<?xml version="1.0" encoding="UTF-8"?>
<svg xmlns="http://www.w3.org/2000/svg" xmlns:xlink="http://www.w3.org/1999/xlink" viewBox="0 0 1325.39868 162.40039">
  <defs>
    <style>
      .cls-1 {
        fill: #f00;
      }

      .cls-2 {
        filter: url(#outer-glow-1);
      }

      #R{
        animation: flicker 4s infinite step-end;
      }

      #A{
        animation: flicker 3s infinite step-end;
      }

      @keyframes flicker{
        0%    { opacity: 1;   }
        3%    { opacity: 0.4; }
        6%    { opacity: 1;   }
        7%    { opacity: 0.4; }
        8%    { opacity: 1;   }
        9%    { opacity: 0.4; }
        10%   { opacity: 1;   }
        100%  { opacity: 1;   }
      }
    </style>
    <filter id="outer-glow-1" filterUnits="userSpaceOnUse">
      <feOffset dx="0" dy="0"/>
      <feGaussianBlur result="blur" stdDeviation="14"/>
      <feFlood flood-color="#fff" flood-opacity=".75"/>
      <feComposite in2="blur" operator="in"/>
      <feComposite in="SourceGraphic"/>
    </filter>
  </defs>
  <g id="Layer_1" data-name="Layer 1"/>
  <g id="Layer_2" data-name="Layer 2">
    <g id="Layer_1-2" data-name="Layer 1">
      <g class="cls-2">
        <path id="R" class="cls-1" d="M51.80029,151c-12,0-21.83447-1.66846-29.5-5-7.66895-3.33105-13.30029-7.73096-16.90039-13.19971-3.59961-5.46582-5.3999-11.33154-5.3999-17.6001,0-6.3999,1.63135-12.7998,4.8999-19.2002,3.26562-6.3999,8-12.2998,14.2002-17.69971s13.6001-9.73145,22.2002-13c8.59961-3.26562,18.2998-4.8999,29.09961-4.8999,3.2002,0,7.30029,.3999,12.30029,1.19971,5,.80029,10.03125,2.1001,15.1001,3.8999,5.06543,1.80029,9.36523,4.16895,12.8999,7.1001,3.53125,2.93457,5.43115,6.53467,5.69971,10.80029,.13135,2.53418-.53418,4.66846-2,6.3999-1.46875,1.73438-3,2.6001-4.59961,2.6001-2,0-3.26904-1.26562-3.80029-3.80029-.3999-1.73096-2.53418-3.76562-6.3999-6.1001-3.86865-2.33105-8.6001-4.3999-14.2002-6.19971-5.59961-1.80029-11.3999-2.7002-17.3999-2.7002-7.19971,0-13.83447,1.2002-19.8999,3.6001-6.06885,2.3999-11.2998,5.53418-15.7002,9.3999-4.3999,3.86865-7.83398,8.1001-10.2998,12.7002-2.46875,4.6001-3.7002,9.1001-3.7002,13.5,0,6.3999,2.83154,11.93408,8.5,16.6001,5.66602,4.66846,14.96582,7,27.90039,7,7.86523,0,15.86523-2.06592,24-6.2002,8.13086-4.13135,16.09961-9.5,23.8999-16.1001,7.7998-6.6001,15.1001-13.63135,21.8999-21.1001,6.7998-7.46533,12.7998-14.59961,18-21.3999,2.3999-3.06543,5.23145-6.73096,8.5-11,3.26562-4.26562,6.66553-8.73096,10.2002-13.3999,3.53125-4.66553,6.86523-9.06543,10-13.2002,3.13086-4.13086,5.63086-7.66553,7.5-10.59961,.3999-.66602,1-1,1.7998-1,.66553,0,1.2002,.2998,1.6001,.8999s.33105,1.2998-.2002,2.1001c-2,2.93408-4.53418,6.53418-7.6001,10.7998-3.06836,4.26855-6.36865,8.7002-9.8999,13.2998-3.53418,4.6001-6.93408,9.06885-10.19971,13.40039-3.26904,4.33398-6.1001,8.03418-8.5,11.09961-4.13477,5.33447-8.83447,11.03467-14.1001,17.1001-5.26904,6.06885-10.96875,12-17.1001,17.80029-6.13428,5.7998-12.53418,11.06836-19.2002,15.7998-6.66846,4.73438-13.43408,8.53418-20.2998,11.3999-6.86865,2.86865-13.63428,4.30029-20.2998,4.30029-9.46875,0-17.2002-1.26562-23.2002-3.80029-6-2.53125-10.36865-5.86572-13.1001-10-2.73438-4.13135-4.1001-8.66553-4.1001-13.6001,0-4.93115,1.30029-9.96533,3.90039-15.09961,2.59961-5.13135,6.2998-9.83154,11.09961-14.1001,4.80029-4.26562,10.46582-7.7002,17-10.30029,6.53125-2.59961,13.73145-3.8999,21.6001-3.8999,4.3999,0,8.93115,.53467,13.6001,1.6001,4.66553,1.06885,9.03125,2.5,13.1001,4.2998,4.06543,1.80029,7.46533,3.76904,10.19971,5.90039,2.73145,2.13428,4.36572,4.26855,4.90039,6.3999,0,.13428,.06543,.33447,.19971,.6001,.80029-.26562,1.3999-.96582,1.80029-2.1001,.3999-1.13135,.59961-1.96582,.59961-2.5-.13428-3.6001-1.8999-6.63135-5.2998-9.1001-3.3999-2.46582-7.43457-4.46582-12.1001-6-4.66846-1.53125-9.26855-2.63135-13.7998-3.2998-4.53467-.66602-8.13428-1-10.80029-1-10,0-19.09961,1.53418-27.2998,4.59961-8.2002,3.06885-15.23438,7.06885-21.1001,12-5.86865,4.93457-10.36865,10.36914-13.5,16.30029-3.13428,5.93408-4.69971,11.83447-4.69971,17.69971,0,5.73438,1.66553,11.03467,5,15.90039,3.33105,4.86865,8.53125,8.76855,15.59961,11.69971,7.06592,2.93115,16.2002,4.3999,27.40039,4.3999,13.46533,0,25.8999-2.59961,37.2998-7.7998s21.93115-12.1001,31.6001-20.7002c9.66553-8.59961,18.6001-18.23096,26.7998-28.8999,8.2002-10.66553,15.8999-21.53125,23.1001-32.6001,7.2002-11.06543,14-21.46533,20.3999-31.19971,.3999-.66553,.93115-1,1.6001-1,.66553,0,1.26562,.33447,1.7998,1,.53125,.66846,.53125,1.3999,0,2.19971-6.66846,10.13477-13.63428,20.83447-20.8999,32.1001-7.26855,11.26904-15.1001,22.26904-23.5,33-8.3999,10.73438-17.53418,20.46875-27.3999,29.2002-9.86865,8.73438-20.63428,15.69971-32.2998,20.8999-11.66895,5.2002-24.5,7.7998-38.5,7.7998Zm130.59961-49.7998c-1.33398,0-2-.66553-2-2,0-1.33105,.6001-2,1.80029-2,8.26562-.66553,16.2998-2.36572,24.1001-5.1001,7.7998-2.73096,14.86523-6.2998,21.19971-10.69971,6.33154-4.40039,11.36572-9.56592,15.1001-15.5,3.73145-5.93164,5.6001-12.36572,5.6001-19.30029,0-6.53125-1.5-12-4.5-16.3999s-7.06885-7.93115-12.2002-10.6001c-5.13428-2.66553-10.83447-4.66553-17.1001-6-6.26855-1.33105-12.69971-2.23096-19.2998-2.69971-6.6001-.46582-12.8999-.76562-18.8999-.90039-11.86865-.26562-23.56885,.43457-35.1001,2.1001-11.53418,1.66895-22.2002,4.1001-32,7.30029-9.7998,3.19971-18.13428,7-25,11.3999-6.86865,4.3999-11.56885,9.26855-14.1001,14.6001-.53418,1.19971-.93408,2.13428-1.19971,2.7998-.26904,.66895,0,1,.7998,1,1.46582,0,3.13135-.56543,5-1.7002,1.86572-1.13086,3.26562-2.16553,4.2002-3.09961,4.26562-4.40039,9.93115-8.33154,17-11.80029,7.06543-3.46533,14.96533-6.3999,23.69971-8.7998,8.73145-2.3999,17.80029-4.23145,27.2002-5.5,9.3999-1.26562,18.56543-1.8999,27.5-1.8999,7.73096,0,15.23096,.53418,22.5,1.59961,7.26562,1.06885,13.76562,2.83447,19.5,5.30029,5.73096,2.46875,10.2998,5.69971,13.69971,9.69971,3.40039,4,5.1001,8.93457,5.1001,14.80029,0,7.06885-2.13428,13.3999-6.3999,19-4.26855,5.6001-9.96875,10.33447-17.1001,14.19971-7.13428,3.86914-15.1001,6.80029-23.8999,8.80029s-17.7998,3-27,3h-.2002c-1.19971,0-1.7998-.66553-1.7998-2,0-1.33154,.66553-2,2-2,8.7998-.3999,17.36572-1.6001,25.7002-3.6001,8.33105-2,15.86523-4.73145,22.59961-8.2002,6.73145-3.46533,12.06592-7.63086,16-12.5,3.93164-4.86523,5.90039-10.2998,5.90039-16.2998,0-6.53125-2.46875-11.83105-7.40039-15.8999-4.93408-4.06592-11.63428-7.06592-20.09961-9-8.46875-1.93115-18.1001-2.8999-28.90039-2.8999-8.93408,0-18,.59961-27.19971,1.7998-9.2002,1.2002-18,2.96875-26.3999,5.2998-8.40039,2.33447-16,5.16895-22.80029,8.5-6.7998,3.33447-12.26855,7.06885-16.3999,11.2002-1.6001,1.6001-3.63428,2.96875-6.1001,4.1001-2.46875,1.13428-4.63428,1.69971-6.5,1.69971-2.7998,0-4.19971-1.19971-4.19971-3.59961,0-1.6001,.53125-3.46582,1.59961-5.6001,2.80029-6,7.86572-11.3999,15.2002-16.2002,7.33105-4.7998,16.1001-8.83105,26.2998-12.1001,10.2002-3.26562,21.16602-5.73096,32.90039-7.3999,11.73096-1.66553,23.53125-2.36572,35.3999-2.1001,5.6001,.13477,11.76562,.43457,18.5,.90039,6.73096,.46875,13.5,1.43408,20.2998,2.8999,6.80029,1.46875,13,3.63428,18.6001,6.5,5.6001,2.86865,10.13135,6.69971,13.6001,11.5,3.46533,4.7998,5.19971,10.93408,5.19971,18.3999,0,8-2,15.33447-6,22-4,6.66895-9.36865,12.46875-16.09961,17.3999-6.73438,4.93457-14.23438,8.76904-22.5,11.5-8.26904,2.73438-16.66895,4.1001-25.2002,4.1001h-.2002Zm26.40039,61.2002c-8.53467,0-16.16895-1.5-22.90039-4.5-6.73438-3-12.53418-6.96875-17.3999-11.90039-4.86865-4.93115-8.8999-10.26562-12.1001-16-3.19971-5.73096-5.66846-11.33105-7.3999-16.7998,0-.13135-.03418-.23145-.1001-.2998-.06836-.06592-.09961-.16602-.09961-.30029,0-1.33105,.73096-2,2.19971-2,.80029,0,1.3999,.46875,1.80029,1.3999,1.59961,5.2002,3.93115,10.53467,7,16,3.06543,5.46875,6.8999,10.5,11.5,15.1001,4.59961,4.6001,10,8.30029,16.19971,11.1001,6.2002,2.7998,13.30029,4.2002,21.30029,4.2002,7.33105,0,13.86523-1.16895,19.59961-3.5,5.73145-2.33447,11.06592-5.43457,16-9.30029,4.93164-3.86572,9.80029-8.06543,14.6001-12.6001,.3999-.3999,.86572-.59961,1.3999-.59961,.80029,0,1.43164,.3999,1.90039,1.19971,.46533,.80029,.2998,1.53467-.5,2.2002-5.06885,4.7998-10.23438,9.23096-15.5,13.2998-5.26904,4.06592-10.90039,7.30029-16.90039,9.7002s-12.86865,3.6001-20.59961,3.6001Zm3.59961-13c-6,0-11.59961-1.36914-16.7998-4.1001-5.2002-2.73145-9.7998-6.33154-13.7998-10.80029-4-4.46533-7.13477-9.33105-9.40039-14.59961-2.26855-5.26562-3.3999-10.36572-3.3999-15.30029v-.3999c0-1.2002,.66553-1.7998,2-1.7998,1.2002,0,1.86572,.59961,2,1.7998,.66553,4.66895,2.06592,9.3999,4.2002,14.2002,2.13135,4.7998,4.96533,9.23438,8.5,13.2998,3.53125,4.06885,7.56543,7.36865,12.1001,9.8999,4.53125,2.53467,9.3999,3.80029,14.59961,3.80029,4.13135,0,8.80029-1.40039,14-4.2002,5.2002-2.7998,10.43164-6.36572,15.7002-10.7002,5.26562-4.33105,10.13135-8.83105,14.6001-13.5,4.46533-4.66553,8.03125-8.86523,10.69971-12.59961,.40039-.66602,.93164-1,1.6001-1,.80029,0,1.43115,.33398,1.8999,1,.46582,.66846,.36572,1.46875-.2998,2.3999-2.93457,4-6.73438,8.43408-11.3999,13.2998-4.66895,4.86865-9.73438,9.53467-15.2002,14-5.46875,4.46875-10.93408,8.13428-16.3999,11-5.46875,2.86572-10.53418,4.30029-15.2002,4.30029Z"/>
        <g id="eact">
          <path class="cls-1" d="M288.39795,144c-3.46875,0-7-.53125-10.6001-1.59961-3.59961-1.06592-6.63428-2.83154-9.09961-5.30029-2.46582-2.46533-3.7002-5.76562-3.7002-9.8999,0-1.46582,.66895-2.2002,2-2.2002,1.33447,0,2,.73438,2,2.2002,0,2.53418,.5,4.53418,1.5,6,1,1.46875,2.76562,2.7998,5.2998,4,2,.93457,4.16602,1.63428,6.5,2.1001,2.33154,.46875,4.36572,.69971,6.1001,.69971,4.93115,0,9.76562-.93115,14.5-2.7998,4.73145-1.86572,9.1001-4.26562,13.1001-7.2002,.26562-.26562,.66553-.3999,1.2002-.3999,1.33105,0,2,.66895,2,2,0,.66895-.26904,1.2002-.80029,1.6001-4.26855,3.2002-8.96875,5.7998-14.1001,7.7998-5.13428,2-10.43408,3-15.8999,3Zm5.6001-30.59961c-2.3999,0-4.46875-.53125-6.2002-1.6001-.7998-.3999-1.19971-.93115-1.19971-1.6001,0-.66553,.2998-1.23145,.8999-1.7002,.6001-.46533,1.2998-.5,2.1001-.09961,1.6001,.66846,3.06543,1,4.3999,1,2.7998,0,5.86572-.83154,9.2002-2.5,3.33105-1.66602,6.53125-3.83154,9.59961-6.5,3.06592-2.66602,5.56592-5.53125,7.5-8.6001,1.93164-3.06592,2.90039-6,2.90039-8.80029,0-5.46533-2.80029-8.19971-8.40039-8.19971-6.26855,0-12.09961,1.63428-17.5,4.8999-5.3999,3.26855-10.33398,7.33447-14.7998,12.2002-4.46875,4.86865-8.43457,9.83398-11.8999,14.8999-.3999,.66846-.93457,1-1.6001,1s-1.23145-.33154-1.7002-1c-.46533-.66553-.43115-1.3999,.1001-2.2002,3.46582-5.06543,7.53125-10.19971,12.2002-15.3999,4.66553-5.2002,9.96533-9.56543,15.8999-13.1001,5.93115-3.53125,12.36572-5.2998,19.2998-5.2998,3.6001,0,6.56592,1.06885,8.90039,3.19971,2.33105,2.13477,3.5,5.13477,3.5,9,0,3.6001-1.1001,7.16895-3.30029,10.7002-2.19971,3.53418-5,6.7998-8.3999,9.7998s-7.03418,5.40039-10.8999,7.2002c-3.86865,1.7998-7.3999,2.7002-10.6001,2.7002Zm-4.6001,18.59961c-3.6001,0-6.8999-.93115-9.8999-2.7998-3-1.86572-4.5-5.06543-4.5-9.6001,0-3.73096,1.36572-7.73096,4.1001-12,2.73096-4.26562,6.13135-8.36572,10.19971-12.2998,4.06592-3.93115,8.23145-7.36572,12.5-10.30029,4.26562-2.93115,7.93164-4.86523,11-5.7998,.13135,0,.23145-.03125,.30029-.1001,.06543-.06543,.16553-.1001,.2998-.1001,1.33154,0,2,.73438,2,2.2002,0,.7998-.46875,1.3999-1.3999,1.7998-2.93457,.93457-6.36865,2.80029-10.2998,5.6001-3.93457,2.80029-7.80029,6.03467-11.6001,9.7002-3.80029,3.66846-6.93457,7.36865-9.3999,11.1001-2.46875,3.73438-3.7002,7.13428-3.7002,10.19971,0,2.93457,.96582,5.06885,2.8999,6.3999,1.93115,1.33447,4.43115,2,7.5,2,7.86572,0,15.83154-2.09961,23.8999-6.2998,8.06592-4.2002,14.96582-10.03125,20.7002-17.5,.3999-.53125,.86572-.7998,1.3999-.7998,.80029,0,1.43115,.36865,1.8999,1.09961,.46582,.73438,.36572,1.5-.2998,2.30029-6,7.73438-13.2998,13.86865-21.8999,18.3999-8.6001,4.53418-17.16895,6.7998-25.7002,6.7998Z"/>
          <path class="cls-1" d="M347.79492,145c-4.3999,0-8.2998-1.46533-11.69971-4.3999-3.40039-2.93115-4.96582-7.46533-4.7002-13.6001,0-1.19971,.66895-1.7998,2-1.7998,.53418,0,1.03418,.16895,1.5,.5,.46875,.33447,.63135,.83447,.5,1.5-.13135,4.7998,1.06543,8.2998,3.6001,10.5,2.53125,2.2002,5.46533,3.2998,8.7998,3.2998,2.66553,0,5.33154-.63086,8-1.8999,2.66553-1.26562,4.86572-3.1001,6.6001-5.5,.3999-.53125,.93115-.7998,1.6001-.7998,.66553,0,1.26562,.33447,1.7998,1,.53125,.66846,.46582,1.3999-.19971,2.19971-2.13477,2.93457-4.80029,5.16895-8,6.7002-3.2002,1.53125-6.46875,2.2998-9.80029,2.2998Zm-12.3999-37.19971c-.66553,0-1.23145-.33154-1.7002-1-.46533-.66553-.43115-1.3999,.1001-2.2002,2.26562-3.19971,4.8999-6.69971,7.8999-10.5,3-3.7998,6.36572-7.3999,10.1001-10.7998,3.73145-3.3999,7.73145-6.2002,12-8.3999,4.26562-2.2002,8.73145-3.30029,13.3999-3.30029,1.46582,0,2.93164,.16895,4.40039,.5,1.46533,.33447,2.86523,.76904,4.19971,1.30029,.80029,.3999,1.2002,1,1.2002,1.7998,0,.53418-.26904,1.03418-.80029,1.5-.53418,.46875-1.19971,.56885-2,.2998-.7998-.26562-1.53418-.46533-2.19971-.59961-.66895-.26562-1.3999-.46582-2.2002-.6001-.7998-.13135-1.66846-.2002-2.6001-.2002-5.46875,0-10.66846,1.66895-15.59961,5-4.93457,3.33447-9.5,7.3999-13.7002,12.2002-4.2002,4.7998-7.83447,9.46875-10.8999,14-.3999,.66846-.93457,1-1.6001,1Zm15.2002,24.6001c-3.2002,0-5.30029-1.30029-6.30029-3.90039-1-2.59961-1.5-4.76562-1.5-6.5,0-3.33105,1.13135-7.26562,3.3999-11.7998,2.26562-4.53125,5.2002-9,8.80029-13.3999s7.46533-8.06592,11.6001-11c4.13086-2.93115,8.06543-4.3999,11.7998-4.3999,1.86572,0,2.7998,.66846,2.7998,2,0,.53418-.19971,1.03418-.59961,1.5-.40039,.46875-.93457,.63428-1.6001,.5-2.93457-.26562-6.23438,.8999-9.8999,3.5-3.66895,2.59961-7.2002,5.93408-10.6001,10-3.3999,4.06836-6.2002,8.16846-8.3999,12.2998-2.2002,4.13428-3.30029,7.73438-3.30029,10.7998,0,1.86914,.33154,3.40039,1,4.6001,.66553,1.2002,1.6001,1.80029,2.80029,1.80029,2.26562,0,4.8999-1.36572,7.8999-4.1001,3-2.73145,6.1001-6.2002,9.2998-10.3999,3.2002-4.2002,6.30029-8.6001,9.30029-13.2002s5.66553-8.7998,8-12.6001c2.33105-3.7998,4.09961-6.63135,5.2998-8.5,2.53125-3.73096,5.06543-6.36572,7.6001-7.8999,2.53125-1.53125,4.86572-2.2998,7-2.2998,2.3999,0,4.36572,.73438,5.8999,2.19971,1.53125,1.46875,2.2998,3.33447,2.2998,5.6001,0,2-.73438,4.13428-2.19971,6.3999-1.06885,1.6001-2.80029,4.23438-5.2002,7.8999-2.3999,3.66895-4.86865,7.6001-7.3999,11.80029-2.53418,4.19971-4.66895,8.03418-6.3999,11.5-1.86865,4-2.80029,7.19971-2.80029,9.6001,0,2.66846,1.33154,4,4,4,2.40039,0,5.1001-.80029,8.1001-2.40039,3-1.59961,6.03125-3.66553,9.1001-6.19971,3.06543-2.53125,5.93115-5.16553,8.6001-7.8999,2.66553-2.73145,4.86572-5.23145,6.6001-7.5,.3999-.53125,.86523-.80029,1.3999-.80029,.7998,0,1.43115,.36865,1.8999,1.1001,.46582,.73438,.43115,1.43457-.1001,2.1001-1.73438,2.53418-4.1001,5.26855-7.1001,8.19971-3,2.93457-6.23438,5.73438-9.69971,8.40039-3.46875,2.66846-6.93457,4.83398-10.3999,6.5-3.46875,1.66846-6.53467,2.5-9.2002,2.5-2.53418,0-4.36865-.73145-5.5-2.2002-1.13428-1.46582-1.7002-3.33105-1.7002-5.6001,0-2.7998,.80029-6,2.40039-9.6001,1.73096-3.73096,3.8999-7.83105,6.5-12.2998,2.59961-4.46582,5.19971-8.66553,7.7998-12.6001,2.6001-3.93115,4.56543-6.8999,5.8999-8.8999,.93115-1.33105,1.3999-2.66553,1.3999-4,0-2.53125-1.33398-3.7998-4-3.7998-1.46875,0-3.23438,.66846-5.2998,2-2.06885,1.33398-4.16895,3.53418-6.2998,6.59961-2.93457,4.40039-6.16895,9.46875-9.7002,15.2002-3.53418,5.73438-7.1001,11.13428-10.7002,16.2002-3.59961,4.93408-7.2998,9.33398-11.09961,13.19971-3.80029,3.86865-7.63477,5.80029-11.5,5.80029Zm35.3999,12.7998c-6,0-10.30029-1.63135-12.8999-4.8999-2.6001-3.26562-3.90039-6.83154-3.90039-10.7002,0-3.19971,.80029-6.26562,2.40039-9.19971,.3999-.66602,1-1,1.7998-1,.66553,0,1.23145,.2998,1.7002,.8999,.46533,.6001,.5,1.2998,.09961,2.1001-1.33398,2.3999-2,4.7998-2,7.19971,0,2.93457,1,5.6001,3,8s5.26562,3.6001,9.80029,3.6001c5.06543,0,9.8999-1.1001,14.5-3.2998,4.6001-2.2002,8.96533-4.83154,13.1001-7.90039,.26562-.26562,.66553-.3999,1.19971-.3999,1.33154,0,2,.66895,2,2,0,.66895-.26855,1.2002-.7998,1.6001-4.26904,3.2002-8.86865,6-13.80029,8.3999-4.93408,2.3999-10.33398,3.6001-16.19971,3.6001Z"/>
          <path class="cls-1" d="M446.59473,144c-3.46875,0-7-.53125-10.6001-1.59961-3.59961-1.06592-6.59961-2.83154-9-5.30029-2.3999-2.46533-3.59961-5.76562-3.59961-9.8999,0-1.46582,.66846-2.2002,2-2.2002,1.33398,0,2,.73438,2,2.2002-.13477,2.53418,.33105,4.56885,1.3999,6.1001,1.06543,1.53418,2.7998,2.83447,5.19971,3.8999,2.13135,.93457,4.33154,1.63428,6.6001,2.1001,2.26562,.46875,4.26562,.69971,6,.69971,5.06592,0,9.93115-.93115,14.6001-2.7998,4.66553-1.86572,9-4.26562,13-7.2002,.26562-.26562,.66553-.3999,1.2002-.3999,1.33105,0,2,.66895,2,2,0,.66895-.26904,1.2002-.80029,1.6001-4.13428,3.2002-8.7998,5.7998-14,7.7998-5.19971,2-10.53418,3-16,3Zm-20.7998-35c-.80029,0-1.2002-.46533-1.2002-1.3999,0-1.06543,.46875-2.26562,1.3999-3.6001,3.73145-4.7998,7.86572-9.76562,12.40039-14.8999,4.53125-5.13135,9.63086-9.46533,15.2998-13,5.66553-3.53125,11.96582-5.2998,18.8999-5.2998,3.86572,0,7.16553,1.19971,9.8999,3.6001,2.73145,2.3999,4.1001,5.66846,4.1001,9.7998,0,3.2002-1.1001,6.3999-3.2998,9.6001-2.2002,3.19971-5.23438,4.7998-9.1001,4.7998-1.86865,0-3.83447-.6001-5.8999-1.7998-2.06885-1.2002-3.1001-2.86572-3.1001-5,0-1.73145,.73145-2.6001,2.2002-2.6001,1.19971,0,1.7998,.7998,1.7998,2.3999v.2002c0,.93408,.66553,1.63428,2,2.1001,1.33105,.46875,2.33105,.69971,3,.69971,2.3999,0,4.3999-1.1001,6-3.2998,1.6001-2.2002,2.3999-4.56592,2.3999-7.1001,0-2.7998-.93408-5.06543-2.7998-6.7998-1.86865-1.73145-4.26904-2.6001-7.2002-2.6001-6.13428,0-11.83447,1.66846-17.1001,5-5.26855,3.33447-10.09961,7.43408-14.5,12.2998-4.3999,4.86865-8.46875,9.76904-12.19971,14.7002-1.06885,1.46875-2.06592,2.19971-3,2.19971Zm20.3999,23.2002c-3.46875,0-6.53418-1.06543-9.2002-3.2002-2.66846-2.13086-4-5.19971-4-9.19971,0-3.06592,1.26562-6.76562,3.80029-11.1001,2.53125-4.33105,5.69971-8.56543,9.5-12.7002,3.7998-4.13086,7.76562-7.56543,11.8999-10.2998,4.13135-2.73145,7.7998-4.1001,11-4.1001,1.86572,0,3.66553,.46875,5.3999,1.3999,1.73145,.93457,2.6001,2.46875,2.6001,4.6001,0,1.73438-.33447,2.6001-1,2.6001-.66895,0-1.43457-.6001-2.2998-1.7998-.86914-1.2002-1.43457-1.86572-1.7002-2-.93457-.53125-1.93457-.80029-3-.80029-2.53418,0-5.6001,1.26904-9.2002,3.80029-3.59961,2.53418-7.16846,5.66846-10.69971,9.3999-3.53467,3.73438-6.46875,7.5-8.80029,11.2998-2.33398,3.80029-3.5,7.03467-3.5,9.7002,0,2.53418,.86572,4.56885,2.6001,6.1001,1.73145,1.53418,3.93115,2.2998,6.6001,2.2998,8.26562,0,16.16553-2.23145,23.7002-6.7002,7.53125-4.46533,13.76562-10.16553,18.69971-17.09961,.3999-.53125,.86572-.80029,1.3999-.80029,.66602,0,1.26562,.3999,1.80029,1.2002,.53125,.7998,.46533,1.53418-.2002,2.19971-5.06885,6.93457-11.6001,12.86914-19.6001,17.80029-8,4.93408-16.59961,7.3999-25.7998,7.3999Z"/>
          <path class="cls-1" d="M489.99219,107.6001c-1.19971,0-1.7998-.6001-1.7998-1.7998,0-.3999,.33447-1.06592,1-2,3.46582-4.26562,7.46582-9.33154,12-15.2002,4.53125-5.86572,9.06543-12,13.6001-18.3999,.3999-.53125,.86572-.7998,1.3999-.7998,.7998,0,1.43115,.36865,1.8999,1.09961,.46582,.73438,.43115,1.43457-.1001,2.1001-4.53418,6.3999-9.06836,12.56885-13.59961,18.5-4.53467,5.93457-8.73438,11.16895-12.6001,15.7002-.53467,.53418-1.13428,.7998-1.80029,.7998Zm16,36.80029c-5.19971,0-9.36865-1.5-12.5-4.5-3.13428-3-4.56543-7.30029-4.2998-12.90039,0-1.19971,.66895-1.7998,2-1.7998,.53125,0,1.03125,.16895,1.5,.5,.46582,.33447,.63135,.83447,.5,1.5-.13428,3.73438,.96582,6.8999,3.2998,9.5,2.33154,2.6001,5.76562,3.8999,10.30029,3.8999,3.19971,0,6.8999-.83105,11.1001-2.5,4.19971-1.66553,8.76562-4.36572,13.69971-8.1001,.26562-.26562,.66553-.3999,1.2002-.3999,1.33105,0,2,.66895,2,2,0,.66895-.26904,1.2002-.80029,1.6001-4.93408,3.73438-9.83398,6.53418-14.69971,8.3999-4.86865,1.86865-9.30029,2.80029-13.30029,2.80029Zm6.40039-12c-4.93457,0-8.6001-1.93164-11-5.80029-.53467-1.06543-1-2.16553-1.40039-3.2998-.3999-1.13135-.59961-2.36572-.59961-3.7002,0-2.26562,.56543-4.8999,1.69971-7.8999,1.13135-3,2.96582-6.23145,5.5-9.7002,1.46582-2.13086,3.6001-4.8999,6.3999-8.2998,2.80029-3.3999,5.76562-7,8.90039-10.7998,3.13086-3.80029,5.83105-7.30029,8.09961-10.5,0-.13135,.23145-.30029,.7002-.5,.46582-.2002,.76562-.30029,.8999-.30029h17.2002c1.33105,0,2,.66895,2,2,0,1.33447-.66895,2-2,2h-16.2002c-2.26855,3.2002-4.8999,6.63428-7.8999,10.30029-3,3.66846-5.86865,7.16846-8.6001,10.5-2.73438,3.33398-4.83447,6-6.2998,8-2.26904,3.33398-3.86865,6.23438-4.80029,8.69971-.93408,2.46875-1.3999,4.63428-1.3999,6.5,0,2,.3999,3.6001,1.2002,4.80029,1.6001,2.66846,4.13135,4,7.6001,4,3.46533,0,7.03125-1.16602,10.69971-3.5,3.66553-2.33154,7.30029-5.33154,10.8999-9,3.6001-3.66602,6.86572-7.5,9.80029-11.5,.3999-.53125,.93115-.80029,1.6001-.80029,.66553,0,1.26562,.33447,1.7998,1,.53125,.66895,.46582,1.3999-.2002,2.2002-4.93408,6.93408-10.53418,12.93408-16.7998,18-6.26855,5.06885-12.2002,7.6001-17.7998,7.6001Zm25.7998-65c-.7998,0-1.43457-.36572-1.8999-1.1001-.46875-.73145-.36865-1.5,.2998-2.30029l14.2002-15.3999c.66553-.66553,1-1.53125,1-2.6001,0-1.19971-.56885-2.26562-1.7002-3.19971-1.13428-.93115-2.43408-1.3999-3.8999-1.3999-1.33447,0-2.73438,.59961-4.2002,1.7998-1.59961,1.33447-4.06836,3.86865-7.3999,7.6001-3.33447,3.73438-7.13428,8.19971-11.3999,13.3999,0,.13428-.2002,.2998-.6001,.5s-.66846,.2998-.7998,.2998h-15.80029c-1.33398,0-2-.66553-2-2,0-1.33105,.66602-2,2-2h14.80029c4-5.06543,7.66553-9.43115,11-13.09961,3.33105-3.66602,5.7998-6.23145,7.3999-7.7002,2-1.86572,4.33105-2.7998,7-2.7998,2.66553,0,4.93115,.83398,6.7998,2.5,1.86572,1.66846,2.80029,3.63428,2.80029,5.8999,0,2-.66895,3.73438-2,5.19971-.26904,.40039-1.16895,1.46875-2.7002,3.2002-1.53418,1.73438-3.36865,3.73438-5.5,6-2.13428,2.26855-4.13428,4.46875-6,6.6001-.3999,.3999-.86865,.6001-1.3999,.6001Z"/>
        </g>
        <path id="A" class="cls-1" d="M629.98975,151c-4.93457,0-10.16895-.56836-15.7002-1.69971-5.53418-1.13428-10.73438-2.93457-15.6001-5.3999-4.86865-2.46582-8.83105-5.73145-11.8999-9.80029-3.06543-4.06543-4.6001-9.1001-4.6001-15.1001,0-7.06543,1.7002-13.59961,5.1001-19.59961s8-11.40039,13.7998-16.2002c5.80029-4.7998,12.36572-8.8999,19.7002-12.2998,7.33105-3.40039,15.03125-6,23.1001-7.80029,8.06543-1.7998,15.96533-2.69971,23.69971-2.69971,2.53125,0,5.93164,.19971,10.2002,.59961,4.26562,.40039,8.76562,1.13477,13.5,2.2002,4.73145,1.06885,9.23145,2.5,13.5,4.2998,4.26562,1.80029,7.73145,4.1001,10.40039,6.90039,2.66504,2.7998,4,6.13428,4,10,0,.53418-.03516,1.03418-.10059,1.5-.06836,.46875-.16895,1.03418-.2998,1.69971-.13477,.93457-.66895,2.13428-1.59961,3.6001-.93457,1.46875-2.40039,2.2002-4.40039,2.2002-1.33398,0-2.90039-.90039-4.7002-2.7002s-3.16895-3.16553-4.09961-4.1001c-4.93457-4.53125-10.2998-7.83105-16.10059-9.8999-5.7998-2.06543-12.16797-3.1001-19.09961-3.1001-10.3999,0-19.83447,1.33447-28.2998,4-8.46875,2.66895-15.76904,6.16895-21.90039,10.5-6.13428,4.33447-10.83398,8.96875-14.09961,13.8999-3.26904,4.93457-4.90039,9.73438-4.90039,14.40039,0,5.46875,2.66602,10.16846,8,14.09961,5.33154,3.93457,13.80029,5.90039,25.40039,5.90039,7.86523,0,16.19971-1.63135,25-4.90039,8.7998-3.26562,17.63086-7.53125,26.5-12.7998,8.86523-5.26562,17.33105-10.96582,25.39941-17.1001,8.06641-6.13135,15.30078-12,21.7002-17.6001,2-1.73096,5.03125-4.23096,9.10059-7.5,4.06543-3.26562,8.73047-7,14-11.19971,5.26562-4.2002,10.73047-8.5,16.39941-12.8999,5.66602-4.40039,11.13184-8.66602,16.40039-12.80029,5.26562-4.13135,9.96582-7.7998,14.09961-11,4.13184-3.19971,7.2002-5.6001,9.2002-7.19971,.26562-.26562,.66602-.40039,1.2002-.40039,1.33105,0,2,.73438,2,2.2002,0,.53418-.26855,1-.7998,1.3999-2,1.6001-5.03516,4-9.10059,7.2002-4.06836,3.19971-8.73438,6.83447-14,10.8999-5.26855,4.06885-10.73438,8.33447-16.39941,12.7998-5.66895,4.46875-11.13477,8.76904-16.40039,12.90039-5.26855,4.13428-9.93457,7.83398-14,11.09961-4.06836,3.26904-7.09961,5.76904-9.09961,7.5-6.40039,5.6001-13.66895,11.5-21.80078,17.7002-8.13379,6.2002-16.73438,12-25.7998,17.3999-9.06836,5.3999-18.16846,9.80029-27.2998,13.2002-9.13428,3.3999-17.8999,5.1001-26.2998,5.1001-5.6001,0-11.26904-.7002-17-2.1001-5.73438-1.3999-10.5-3.8999-14.30029-7.5-3.7998-3.6001-5.69971-8.6001-5.69971-15,0-1.06592,.06543-2.16553,.19971-3.30029,.13135-1.13086,.33154-2.2998,.6001-3.5,1.33105-6.3999,4.56543-12.06543,9.7002-17,5.13086-4.93115,11.2998-9.06543,18.5-12.3999,7.19971-3.33105,14.66553-5.83105,22.3999-7.5,7.73096-1.66553,14.86572-2.5,21.3999-2.5,8.93164,0,16.56543,1.43457,22.90039,4.30029,6.33105,2.86865,12.43066,7.23438,18.2998,13.09961,.39941,.26904,.86523,.66895,1.39941,1.2002,.53125,.53418,1.06641,.93457,1.60059,1.2002,.7998,0,1.39941-.93164,1.7998-2.80029,.13086-.3999,.2002-.7998,.2002-1.19971v-1.2002c0-3.2002-1.2998-5.93115-3.90039-8.2002-2.59961-2.26562-5.89941-4.13086-9.89941-5.59961-4-1.46582-8.2002-2.63135-12.60059-3.5-4.39941-.86572-8.5-1.5-12.2998-1.90039-3.7998-.3999-6.7002-.59961-8.7002-.59961-9.33398,0-18.76855,1.2998-28.2998,3.8999-9.53418,2.6001-18.2998,6.33447-26.2998,11.19971-8,4.86914-14.43457,10.63477-19.30029,17.30029-4.86572,6.66846-7.2998,14-7.2998,22,0,4.93408,1.2998,9.19971,3.8999,12.7998s6.03125,6.53467,10.2998,8.80029c4.26562,2.26855,8.96582,3.93115,14.1001,5,5.13135,1.06543,10.23145,1.59961,15.30029,1.59961,8.53125,0,17.09961-1.2998,25.69971-3.8999s17.03174-6.03125,25.30029-10.2998c8.26562-4.26562,16-8.8999,23.2002-13.8999,7.19922-5,13.66504-9.96582,19.39941-14.90039,.66602-.26562,1.06543-.3999,1.2002-.3999h35.2002c1.33105,0,2,.66895,2,2,0,1.33447-.66895,2-2,2h-34.40039c-5.73438,4.93457-12.26855,9.93457-19.59961,15-7.33496,5.06885-15.2002,9.73438-23.60059,14-8.39941,4.26904-17.03418,7.73145-25.89941,10.3999-8.86914,2.66602-17.7002,4-26.5,4Zm42.39941-109.59961c-2.13379,0-3.49951-.93164-4.09961-2.80029-.6001-1.86572-.76855-3.6001-.5-5.19971,1.2002-5.86572,4.36523-10.90039,9.5-15.1001,5.13086-4.2002,11.59961-7.63135,19.40039-10.30029,7.7998-2.66553,16.36523-4.66553,25.69922-6,9.33203-1.33105,18.86621-2,28.60059-2,1.33105,0,4.26562,.03467,8.7998,.1001,4.53125,.06885,9.96582,.30029,16.2998,.7002,6.33105,.3999,12.83105,1.03418,19.5,1.8999,6.66602,.86865,12.93164,2.1001,18.7998,3.7002,5.86621,1.59961,10.63184,3.63428,14.30078,6.09961,3.66504,2.46875,5.5,5.5,5.5,9.1001,0,1.46875-.26953,2.80029-.80078,4-.39941,.80029-1,1.2002-1.7998,1.2002-.53418,0-1.03418-.26562-1.5-.80029-.46875-.53125-.56836-1.19971-.2998-2,.26562-.3999,.40039-.7998,.40039-1.19971v-1.2002c0-2.7998-1.73438-5.16553-5.2002-7.1001-3.46875-1.93115-8-3.53125-13.60059-4.7998-5.59961-1.26562-11.59961-2.2998-18-3.1001-6.39941-.7998-12.59961-1.36572-18.59961-1.69971-6-.33154-11.16895-.56592-15.5-.7002-4.33398-.13135-7.09961-.2002-8.2998-.2002-10,0-19.53418,.66895-28.60059,2-9.06836,1.33447-17.19922,3.26904-24.39941,5.80029-7.2002,2.53418-13.10059,5.66846-17.7002,9.3999-4.59961,3.73438-7.43457,8.06885-8.5,13,0,.13428-.03418,.33447-.09961,.6001-.06934,.26855-.10059,.53418-.10059,.7998,0,1.2002,.26562,1.80029,.7998,1.80029,.93164,0,1.96582-.53125,3.10059-1.6001,1.13086-1.06592,1.96582-1.93115,2.5-2.6001,6.53125-6.66553,13.59961-11.5,21.2002-14.5,7.59961-3,15.39941-4.8999,23.39941-5.7002,8-.7998,15.7998-1.19971,23.40039-1.19971,11.06543,0,20.13086,.36865,27.2002,1.1001,7.06543,.73438,12.73047,1.59961,17,2.59961,4.26562,1,7.73047,1.90039,10.39941,2.7002,.93164,.3999,1.40039,1,1.40039,1.7998,0,.66895-.26855,1.23438-.7998,1.7002-.53516,.46875-1.13477,.63428-1.80078,.5-2.53418-.7998-5.86816-1.7002-10-2.7002-4.13379-1-9.66797-1.86523-16.59961-2.59961-6.93457-.73145-15.86914-1.1001-26.7998-1.1001-8.53418,0-16.63477,.46875-24.2998,1.3999-7.66895,.93457-15,2.93457-22,6-7,3.06885-13.76953,7.86865-20.30078,14.3999-.93359,.93457-1.96875,1.80029-3.09961,2.6001-1.13477,.7998-2.43457,1.2002-3.90039,1.2002Zm75.60059,56.3999c-1.86914,0-3.76855-.03125-5.7002-.1001-1.93457-.06543-3.96875-.1001-6.09961-.1001-1.33496,0-2-.66553-2-2,0-1.33105,.66504-2,2-2,1.73047,0,3.53125,.03467,5.39941,.1001,1.86621,.06885,3.73145,.1001,5.60059,.1001,2,0,4.03125-.06592,6.09961-.2002,2.06543-.13135,4.09961-.46533,6.09961-1,2.66602-.66553,5.06641-1.73096,7.2002-3.19971,2.13184-1.46582,4.33105-3.80029,6.60059-7,4.53125-6.13135,9.06543-12.13135,13.59961-18,4.53125-5.86572,8.7002-11.06592,12.5-15.6001,3.7998-4.53125,6.83105-7.86572,9.09961-10,.40039-.3999,.86621-.6001,1.40039-.6001,.66602,0,1.23145,.3999,1.7002,1.2002,.46582,.7998,.2998,1.53418-.5,2.19971-2.13477,2.13428-5.06934,5.43457-8.7998,9.8999-3.73438,4.46875-7.83496,9.6001-12.30078,15.40039-4.46875,5.7998-8.96875,11.76855-13.5,17.8999-4.13379,5.73438-8.53418,9.33447-13.19922,10.7998-4.66895,1.46875-9.73438,2.2002-15.2002,2.2002Zm-2.2002-9c-1.33398,0-2-.66553-2-2,0-.66553,.26562-1.2002,.7998-1.6001,3.06543-2.53125,7.13184-5.8999,12.2002-10.1001,5.06543-4.19971,10.36523-8.66553,15.90039-13.3999,5.53125-4.73145,10.56543-9.03125,15.09961-12.8999,.26562-.26562,.66602-.3999,1.2002-.3999,1.46582,0,2.2002,.73438,2.2002,2.19971,0,.3999-.26953,.86865-.80078,1.3999-4.53418,3.86914-9.56836,8.13477-15.09961,12.80029-5.53418,4.66846-10.83398,9.1001-15.90039,13.2998-5.06836,4.2002-9.19922,7.63428-12.39941,10.30029-.26855,.26855-.66895,.3999-1.2002,.3999Zm31.40039,56.3999c-2.80078,0-5.96875-.6001-9.5-1.7998-3.53516-1.2002-6.60059-3.2002-9.2002-6-2.60059-2.80029-3.90039-6.6001-3.90039-11.40039,0-1.46533,.13184-2.93115,.40039-4.3999,.26562-1.46533,.66504-3.06543,1.2002-4.7998,.39941-.93115,1-1.3999,1.7998-1.3999,.66504,0,1.23145,.23438,1.7002,.69971,.46484,.46875,.56543,1.1001,.2998,1.8999-.93457,2.80029-1.40039,5.40039-1.40039,7.80029,0,3.86865,1,6.93408,3,9.19971,2,2.26904,4.46582,3.86914,7.40039,4.80029,2.93066,.93408,5.66504,1.3999,8.2002,1.3999,4.93066,0,9.93066-1.13135,15-3.3999,5.06543-2.26562,9.93066-4.93115,14.59961-8,.53125-.26562,.86523-.3999,1-.3999,.66602,0,1.16602,.23438,1.5,.69971,.33105,.46875,.5,.96875,.5,1.5,0,.66895-.26855,1.2002-.7998,1.6001-4.7998,3.06885-9.93457,5.83447-15.40039,8.2998-5.46875,2.46875-10.93457,3.7002-16.39941,3.7002Zm8.39941-15c-4.26855,0-7.26855-1.03125-9-3.1001-1.73438-2.06543-2.59961-4.63135-2.59961-7.69971,0-3.6001,.76562-7.46582,2.2998-11.6001,1.53125-4.13135,3.23145-8,5.09961-11.6001,1.86621-3.6001,3.33203-6.26562,4.40039-8,2.66602-4.53125,6.06543-9.86572,10.2002-16,4.13086-6.13135,8.56543-12.3999,13.2998-18.7998,4.73145-6.40039,9.16602-12.26562,13.2998-17.6001,.40039-.53125,.93164-.80029,1.60059-.80029,.66504,0,1.26562,.36914,1.7998,1.1001,.53125,.73438,.46582,1.43457-.2002,2.1001-.66895,.7998-2.2998,2.86865-4.90039,6.2002-2.59961,3.33398-5.69922,7.43408-9.2998,12.2998-3.59961,4.86865-7.33398,10.2002-11.2002,16-3.86816,5.7998-7.5,11.6001-10.89941,17.3999-3.40039,5.80029-6.16895,11.2002-8.2998,16.2002-2.13477,5-3.2002,9.16846-3.2002,12.5,0,4.93408,2.53125,7.3999,7.59961,7.3999,3.73145,0,7.96582-.8999,12.7002-2.7002,4.73145-1.7998,9.43164-4.36523,14.09961-7.69971,4.66602-3.33154,8.66602-7.13135,12-11.3999,.40039-.53125,.93164-.80029,1.60059-.80029,.66504,0,1.23145,.3999,1.7002,1.2002,.46484,.7998,.36523,1.53418-.30078,2.19971-3.33398,4.40039-7.46875,8.36914-12.39941,11.90039-4.93457,3.53418-9.96875,6.2998-15.10059,8.2998-5.13379,2-9.89941,3-14.2998,3Z"/>
        <g id="irlines">
          <path class="cls-1" d="M853.98682,133c-2.53418,0-4.2998-.93115-5.2998-2.7998-1-1.86572-1.5-3.93115-1.5-6.2002,0-1.86523,.46582-4.53125,1.39941-8,.93164-3.46533,2.23145-7.23096,3.90039-11.2998,1.66602-4.06543,3.56543-7.86572,5.7002-11.3999,2.13086-3.53125,4.33105-6.36572,6.59961-8.5,1.2002-1.2002,2.46582-2.26562,3.7998-3.2002,1.33203-1.86572,2-3.6001,2-5.19971,0-2-.89941-3.56592-2.69922-4.7002-1.80078-1.13135-3.76953-1.7002-5.90039-1.7002-2.26855,0-4,.53467-5.2002,1.6001-1.86816,1.73438-3.83398,3.76904-5.89941,6.1001-2.06934,2.33447-4.23438,5.03418-6.5,8.1001-2.40039,3.06885-4.93457,6.36865-7.60059,9.8999-2.66895,3.53418-5.73438,7.2998-9.2002,11.2998-.39941,.53467-.93359,.80029-1.59961,.80029s-1.23145-.3999-1.7002-1.2002c-.46582-.7998-.43066-1.53125,.10059-2.19971,3.46484-3.86572,6.56543-7.6001,9.2998-11.2002,2.73145-3.6001,5.23145-6.86572,7.5-9.7998,2.39941-3.06592,4.63086-5.83154,6.7002-8.30029,2.06543-2.46533,4.16504-4.63135,6.2998-6.5,2-1.86572,4.46582-2.7998,7.39941-2.7998,3.46582,0,6.60059,1.16846,9.40039,3.5,2.7998,2.33447,4.2002,5.03418,4.2002,8.1001,0,2.66846-1.40039,5.13428-4.2002,7.3999l-1,.7998c-1.33398,1.2002-2.7002,2.46875-4.09961,3.80029-1.40039,1.33398-2.56934,2.7998-3.5,4.3999-1.46875,3.06885-3.10059,6.43408-4.90039,10.1001-1.7998,3.66846-3.33398,7.2998-4.59961,10.8999-1.26953,3.6001-1.90039,6.7998-1.90039,9.6001,0,3.06836,1.26562,4.59961,3.7998,4.59961,1.2002,0,2.66602-.33105,4.40039-1,4.13086-1.73096,8.39941-4.46533,12.7998-8.19971,4.40039-3.73145,9.13086-8.86572,14.2002-15.3999,.39941-.53125,.86523-.80029,1.39941-.80029,.80078,0,1.46582,.36865,2,1.1001,.53125,.73438,.46582,1.43457-.19922,2.1001-4.13477,5.33447-7.96875,9.66846-11.5,13-3.53516,3.33447-7.63477,6.33447-12.30078,9-2.53418,1.46875-4.73438,2.53418-6.59961,3.19971-1.86914,.66895-3.53418,1-5,1Zm-1,12.2002c-6.53418,0-11.63477-2.26562-15.2998-6.7998-3.66895-4.53125-5.23438-10.13135-4.7002-16.80029,.13086-2,.73145-4.83105,1.7998-8.5,1.06543-3.66553,2.43164-7.3999,4.10059-11.19971,1.66504-3.80029,3.36523-6.90039,5.09961-9.30029,.40039-.53125,.93164-.7998,1.59961-.7998,.66602,0,1.26562,.33447,1.80078,1,.53125,.66846,.46484,1.3999-.2002,2.19971-1.60059,2.13477-3.16895,5-4.7002,8.6001-1.53418,3.6001-2.7998,7.13428-3.7998,10.6001-1,3.46875-1.56934,6.06885-1.7002,7.7998-.40039,4.93457,.7998,9.40039,3.59961,13.40039,2.80078,4,7,6,12.60059,6,3.46582,0,7.53125-1.03125,12.2002-3.1001,4.66504-2.06592,9.73047-5.56592,15.19922-10.5,.26562-.26562,.66602-.3999,1.2002-.3999,.93164,0,1.63184,.43408,2.10059,1.2998,.46484,.86865,.2998,1.63428-.5,2.2998-5.73438,5.06885-11.16895,8.7002-16.30078,10.90039-5.13379,2.19971-9.83398,3.2998-14.09961,3.2998Zm28-81.3999c-3.2002,0-5.93457-1.13135-8.2002-3.3999-2.26855-2.26562-3.39941-5-3.39941-8.2002,0-3.33105,1.13086-6.13135,3.39941-8.3999,2.26562-2.26562,5-3.3999,8.2002-3.3999,3.33105,0,6.13086,1.13428,8.40039,3.3999,2.26562,2.26855,3.39941,5.06885,3.39941,8.3999,0,3.2002-1.13379,5.93457-3.39941,8.2002-2.26953,2.26855-5.06934,3.3999-8.40039,3.3999Zm0-4c2.26562,0,4.13086-.73145,5.59961-2.2002,1.46582-1.46533,2.2002-3.26562,2.2002-5.3999,0-2.26562-.73438-4.13135-2.2002-5.6001-1.46875-1.46533-3.33398-2.19971-5.59961-2.19971-2.13477,0-3.93457,.73438-5.40039,2.19971-1.46875,1.46875-2.19922,3.33447-2.19922,5.6001,0,2.13428,.73047,3.93457,2.19922,5.3999,1.46582,1.46875,3.26562,2.2002,5.40039,2.2002Z"/>
          <path class="cls-1" d="M886.38428,125.2002c-.7998,0-1.43066-.3999-1.89941-1.2002-.46582-.7998-.2998-1.53125,.5-2.19971,4.39941-4.26562,8.59961-9.03125,12.59961-14.30029,4-5.26562,7.43164-10.09961,10.2998-14.5,2.86621-4.3999,4.63184-7.46533,5.30078-9.19971,.39941-.80029,1-1.2002,1.7998-1.2002,.66504,0,1.2002,.26904,1.59961,.80029,.40039,.53418,.46582,1.19971,.2002,2-.66895,1.86865-2.46875,5.06836-5.40039,9.59961-2.93359,4.53467-6.46875,9.5-10.59961,14.90039-4.13477,5.3999-8.46875,10.2998-13,14.69971-.40039,.3999-.86523,.6001-1.40039,.6001Zm1.40039-17.6001c-.66602,0-1.23145-.33105-1.7002-1-.46582-.66553-.43066-1.3999,.10059-2.19971,3.06543-4,6.09961-8.43164,9.09961-13.30029,3-4.86572,5.59961-9.3999,7.7998-13.6001,2.2002-4.19971,3.7002-7.23096,4.5-9.09961,2.13184-5.2002,4.66602-8.90039,7.60059-11.1001,2.93066-2.2002,5.73047-3.30029,8.39941-3.30029,2.93164,0,5.43164,1,7.5,3,2.06543,2,3.10059,4.53467,3.10059,7.6001,0,1.6001-.53516,3.6001-1.60059,6-.39941,.80029-1,1.2002-1.7998,1.2002-.66895,0-1.23438-.26562-1.7002-.80029-.46875-.53125-.5-1.19971-.09961-2,.66504-1.59961,1-3,1-4.19971,0-1.86572-.60059-3.46582-1.7998-4.80029-1.2002-1.33105-2.73438-2-4.60059-2-2,0-4.09961,.93457-6.2998,2.80029-2.2002,1.86865-4.23438,4.93408-6.09961,9.19971-.80078,2-2.33496,5.13477-4.60059,9.40039-2.26855,4.26855-4.93457,8.86865-8,13.7998-3.06836,4.93457-6.13379,9.46875-9.2002,13.6001-.39941,.53418-.93359,.7998-1.59961,.7998Zm36,38.6001c-4.53418,0-8.5-1.13428-11.90039-3.3999-3.39941-2.26562-5.09961-6.06592-5.09961-11.3999,0-4.26562,1.2002-8.96582,3.59961-14.1001,2.40039-5.13135,5.2002-10.13135,8.40039-15,3.2002-4.86572,6.06543-9.03125,8.59961-12.5,.40039-.53125,.93164-.80029,1.60059-.80029,.66504,0,1.26562,.33447,1.7998,1,.53125,.66895,.46582,1.40039-.2002,2.2002-2.26855,3.2002-4.96875,7.13428-8.09961,11.7998-3.13477,4.66895-5.86914,9.43457-8.2002,14.30029-2.33398,4.86865-3.5,9.23438-3.5,13.1001,0,3.59961,1.09961,6.2998,3.2998,8.09961,2.2002,1.80029,5.16602,2.7002,8.90039,2.7002,4.7998,0,10.03125-1.26562,15.7002-3.7998,5.66504-2.53125,10.03125-5.73145,13.09961-9.6001,.40039-.53125,.93164-.80029,1.59961-.80029,.66602,0,1.26562,.36914,1.80078,1.1001,.53125,.73438,.46484,1.43457-.2002,2.1001-3.60059,4.26855-8.33496,7.83447-14.2002,10.7002-5.86914,2.86523-11.53418,4.2998-17,4.2998Zm9.7998-14.7998c-1.73438,0-3.2002-.40039-4.39941-1.2002-2.26953-1.46582-3.40039-3.6001-3.40039-6.3999,0-2.93115,.96582-6.1001,2.90039-9.5,1.93066-3.3999,4.06543-6.6001,6.39941-9.6001,2.33105-3,3.96582-5.36572,4.90039-7.1001,1.06543-1.73096,2.13086-3.46533,3.2002-5.19971,1.06543-1.73145,1.59961-3.6001,1.59961-5.6001,0-1.06592-.33398-2.16553-1-3.30029-.66895-1.13086-2.06836-2.13086-4.2002-3-2.13379-.86523-5.53418-1.2998-10.2002-1.2998-.93359,0-2,.06885-3.19922,.2002-1.2002,.13428-2.53516,.19971-4,.19971h-.2002c-1.33496,0-2-.66553-2-2,0-1.33105,.59961-2,1.7998-2,1.06543-.13135,2.2002-.23096,3.40039-.2998,1.19922-.06592,2.33105-.1001,3.39941-.1001,5.2002,0,9.90039,.76855,14.10059,2.2998,4.19922,1.53467,6.2998,4.43457,6.2998,8.7002,0,2.66895-.93457,5.66895-2.7998,9-2.40039,4.53418-5.16895,8.76855-8.30078,12.7002-3.13379,3.93408-5.69922,8.23438-7.69922,12.8999-.13477,.3999-.23438,.7998-.30078,1.19971-.06836,.40039-.09961,.80029-.09961,1.2002,0,1.73438,.53125,2.93457,1.59961,3.6001,.66602,.3999,1.40039,.6001,2.2002,.6001,2,0,4.43164-.96582,7.2998-2.90039,2.86621-1.93115,5.80078-4.26562,8.80078-7,3-2.73096,5.69922-5.33105,8.09961-7.7998,2.40039-2.46582,4.06543-4.2998,5-5.5,.40039-.53125,.86523-.7998,1.40039-.7998,.66504,0,1.26562,.36865,1.7998,1.09961,.53125,.73438,.46582,1.5-.2002,2.30029-1.46875,1.86865-4.2002,4.76855-8.2002,8.69971-4,3.93457-8.13379,7.56885-12.39941,10.90039-4.26953,3.33398-8.13477,5-11.60059,5Z"/>
          <path class="cls-1" d="M982.98193,144.2002c-6.66895,0-12.2998-1.43115-16.89941-4.2998-4.60059-2.86572-6.90039-7.1001-6.90039-12.7002,0-1.46582,.66895-2.2002,2-2.2002,1.33398,0,2,.73438,2,2.2002,0,3.73438,1.96582,6.83447,5.90039,9.2998,3.93066,2.46875,8.96484,3.7002,15.09961,3.7002,5.06543,0,10.63086-1.06543,16.7002-3.2002,6.06543-2.13086,12.03125-5.66553,17.89941-10.59961,.26562-.26562,.66602-.40039,1.2002-.40039,1.33105,0,2,.66895,2,2,0,.66895-.26855,1.2002-.7998,1.6001-5.73438,4.93457-12,8.6001-18.7998,11s-13.26855,3.6001-19.40039,3.6001Zm-18.7998-36.3999c-.66602,0-1.23145-.3999-1.7002-1.2002-.46582-.7998-.43066-1.53125,.10059-2.19971,2.66504-3.06592,5.13086-6.26562,7.39941-9.6001,2.26562-3.33154,4.46582-6.66553,6.60059-10,3.59961-5.33154,7.56543-11.06592,11.89941-17.2002,4.33105-6.13135,9-12.19971,14-18.19971s10.16602-11.5,15.5-16.5c5.33105-5,10.73145-9.03125,16.2002-12.1001,4.66602-2.53125,8.73145-3.80029,12.2002-3.80029,3.46582,0,6.09961,1.1001,7.89941,3.30029,1.80078,2.19971,2.7002,5.03418,2.7002,8.5,0,1.6001-.16895,3.23438-.5,4.8999-.33398,1.66895-.89941,3.43457-1.7002,5.2998-.39941,.93457-1.89941,2.96875-4.5,6.1001-2.59961,3.13428-5.83398,6.93457-9.69922,11.3999-3.86914,4.46875-7.96875,9.1001-12.30078,13.90039-4.33398,4.7998-8.5,9.3999-12.5,13.7998s-7.43359,8.06885-10.2998,11c-2.86816,2.93457-4.7002,4.73438-5.5,5.3999-.39941,.3999-.7998,.6001-1.2002,.6001-1.46875,0-2.19922-.7998-2.19922-2.3999,0-.3999,.26562-.86572,.7998-1.3999,.7998-.66602,2.59961-2.46582,5.39941-5.40039,2.80078-2.93115,6.2002-6.53125,10.2002-10.7998,4-4.26562,8.13184-8.76562,12.40039-13.5,4.26562-4.73145,8.2998-9.26562,12.09961-13.6001,3.7998-4.33105,6.96582-8.03125,9.5-11.1001,2.53125-3.06543,3.93164-4.93115,4.2002-5.59961,1.33105-3.06592,2-6,2-8.80029,0-2.26562-.56836-4.1001-1.7002-5.5-1.13379-1.3999-2.83398-2.1001-5.09961-2.1001-2.7998,0-6.2002,1.13477-10.2002,3.40039-5.2002,2.93408-10.40039,6.83398-15.59961,11.69971-5.2002,4.86865-10.26953,10.26904-15.2002,16.2002-4.93457,5.93408-9.53418,11.8999-13.7998,17.8999-4.26953,6-8.13477,11.6001-11.60059,16.7998-2.26855,3.33447-4.53418,6.73438-6.7998,10.2002-2.26855,3.46875-4.73438,6.73438-7.40039,9.7998-.39941,.53467-.93359,.80029-1.59961,.80029Zm20.59961,24c-4.13379,0-7.03418-.86572-8.69922-2.6001-1.66895-1.73145-2.5-3.86572-2.5-6.3999,0-2.66553,.63086-5.56592,1.89941-8.7002,1.26562-3.13135,2.56543-5.83105,3.90039-8.1001,2-3.46533,4.73145-7.59961,8.2002-12.3999,3.46484-4.7998,7.2998-9.83105,11.5-15.1001,4.19922-5.26562,8.46484-10.36523,12.7998-15.2998,4.33105-4.93115,8.43066-9.2998,12.2998-13.1001,3.86523-3.7998,7.06543-6.63135,9.59961-8.5,.26562-.26562,.66602-.3999,1.2002-.3999,1.33105,0,2,.66895,2,2,0,.66895-.26855,1.2002-.7998,1.6001-2.53418,1.73438-5.66895,4.46875-9.40039,8.19971-3.73438,3.73438-7.73438,8.03467-12,12.90039-4.26855,4.86865-8.5,9.8999-12.69922,15.09961-4.2002,5.2002-8,10.13477-11.40039,14.80029-3.40039,4.66846-6.03418,8.73438-7.90039,12.19971-.93359,1.73438-2.06836,3.93457-3.39941,6.6001-1.33496,2.66895-2,5.13428-2,7.3999,0,1.73438,.53125,3.13477,1.59961,4.2002,1.06543,1.06885,3,1.6001,5.7998,1.6001,3.60059,0,7.76562-.86572,12.5-2.6001,4.73145-1.73145,9.56641-4.36572,14.5-7.8999,4.93164-3.53125,9.46582-7.8999,13.60059-13.1001,.39941-.53125,.86523-.7998,1.39941-.7998,.80078,0,1.43164,.36865,1.90039,1.09961,.46582,.73438,.36523,1.5-.2998,2.30029-4.26855,5.46875-9,10.06885-14.2002,13.7998-5.2002,3.73438-10.36914,6.53467-15.5,8.3999-5.13477,1.86914-9.76855,2.80029-13.90039,2.80029Z"/>
          <path class="cls-1" d="M1054.77979,133c-2.53418,0-4.2998-.93115-5.2998-2.7998-1-1.86572-1.5-3.93115-1.5-6.2002,0-1.86523,.46582-4.53125,1.39941-8,.93164-3.46533,2.23145-7.23096,3.90039-11.2998,1.66602-4.06543,3.56543-7.86572,5.7002-11.3999,2.13086-3.53125,4.33105-6.36572,6.59961-8.5,1.2002-1.2002,2.46582-2.26562,3.7998-3.2002,1.33203-1.86572,2-3.6001,2-5.19971,0-2-.89941-3.56592-2.69922-4.7002-1.80078-1.13135-3.76953-1.7002-5.90039-1.7002-2.26855,0-4,.53467-5.2002,1.6001-1.86816,1.73438-3.83398,3.76904-5.89941,6.1001-2.06934,2.33447-4.23438,5.03418-6.5,8.1001-2.40039,3.06885-4.93457,6.36865-7.60059,9.8999-2.66895,3.53418-5.73438,7.2998-9.2002,11.2998-.39941,.53467-.93359,.80029-1.59961,.80029s-1.23145-.3999-1.7002-1.2002c-.46582-.7998-.43066-1.53125,.10059-2.19971,3.46484-3.86572,6.56543-7.6001,9.2998-11.2002,2.73145-3.6001,5.23145-6.86572,7.5-9.7998,2.39941-3.06592,4.63086-5.83154,6.7002-8.30029,2.06543-2.46533,4.16504-4.63135,6.2998-6.5,2-1.86572,4.46582-2.7998,7.39941-2.7998,3.46582,0,6.60059,1.16846,9.40039,3.5,2.7998,2.33447,4.2002,5.03418,4.2002,8.1001,0,2.66846-1.40039,5.13428-4.2002,7.3999l-1,.7998c-1.33398,1.2002-2.7002,2.46875-4.09961,3.80029-1.40039,1.33398-2.56934,2.7998-3.5,4.3999-1.46875,3.06885-3.10059,6.43408-4.90039,10.1001-1.7998,3.66846-3.33398,7.2998-4.59961,10.8999-1.26953,3.6001-1.90039,6.7998-1.90039,9.6001,0,3.06836,1.26562,4.59961,3.7998,4.59961,1.2002,0,2.66602-.33105,4.40039-1,4.13086-1.73096,8.39941-4.46533,12.7998-8.19971,4.40039-3.73145,9.13086-8.86572,14.2002-15.3999,.39941-.53125,.86523-.80029,1.39941-.80029,.80078,0,1.46582,.36865,2,1.1001,.53125,.73438,.46582,1.43457-.19922,2.1001-4.13477,5.33447-7.96875,9.66846-11.5,13-3.53516,3.33447-7.63477,6.33447-12.30078,9-2.53418,1.46875-4.73438,2.53418-6.59961,3.19971-1.86914,.66895-3.53418,1-5,1Zm-1,12.2002c-6.53418,0-11.63477-2.26562-15.2998-6.7998-3.66895-4.53125-5.23438-10.13135-4.7002-16.80029,.13086-2,.73145-4.83105,1.7998-8.5,1.06543-3.66553,2.43164-7.3999,4.10059-11.19971,1.66504-3.80029,3.36523-6.90039,5.09961-9.30029,.40039-.53125,.93164-.7998,1.59961-.7998,.66602,0,1.26562,.33447,1.80078,1,.53125,.66846,.46484,1.3999-.2002,2.19971-1.60059,2.13477-3.16895,5-4.7002,8.6001-1.53418,3.6001-2.7998,7.13428-3.7998,10.6001-1,3.46875-1.56934,6.06885-1.7002,7.7998-.40039,4.93457,.7998,9.40039,3.59961,13.40039,2.80078,4,7,6,12.60059,6,3.46582,0,7.53125-1.03125,12.2002-3.1001,4.66504-2.06592,9.73047-5.56592,15.19922-10.5,.26562-.26562,.66602-.3999,1.2002-.3999,.93164,0,1.63184,.43408,2.10059,1.2998,.46484,.86865,.2998,1.63428-.5,2.2998-5.73438,5.06885-11.16895,8.7002-16.30078,10.90039-5.13379,2.19971-9.83398,3.2998-14.09961,3.2998Zm28-81.3999c-3.2002,0-5.93457-1.13135-8.2002-3.3999-2.26855-2.26562-3.39941-5-3.39941-8.2002,0-3.33105,1.13086-6.13135,3.39941-8.3999,2.26562-2.26562,5-3.3999,8.2002-3.3999,3.33105,0,6.13086,1.13428,8.40039,3.3999,2.26562,2.26855,3.39941,5.06885,3.39941,8.3999,0,3.2002-1.13379,5.93457-3.39941,8.2002-2.26953,2.26855-5.06934,3.3999-8.40039,3.3999Zm0-4c2.26562,0,4.13086-.73145,5.59961-2.2002,1.46582-1.46533,2.2002-3.26562,2.2002-5.3999,0-2.26562-.73438-4.13135-2.2002-5.6001-1.46875-1.46533-3.33398-2.19971-5.59961-2.19971-2.13477,0-3.93457,.73438-5.40039,2.19971-1.46875,1.46875-2.19922,3.33447-2.19922,5.6001,0,2.13428,.73047,3.93457,2.19922,5.3999,1.46582,1.46875,3.26562,2.2002,5.40039,2.2002Z"/>
          <path class="cls-1" d="M1088.57764,107.80029c-.66602,0-1.23145-.3999-1.7002-1.2002-.46582-.7998-.43066-1.53125,.10059-2.19971,4.13086-4.66602,7.69922-8.83154,10.69922-12.5,3-3.66602,5.86621-7.36572,8.60059-11.1001,2.73145-3.73145,5.7002-7.86572,8.89941-12.3999,1.46582-2,3.13184-3.43164,5-4.30029,1.86621-.86572,3.66602-1.2998,5.40039-1.2998,2.7998,0,5.23145,.7998,7.2998,2.3999,2.06543,1.6001,3.10059,3.3999,3.10059,5.3999,0,1.2002-.46875,2.33447-1.40039,3.3999-.40039,.40039-.86914,.6001-1.40039,.6001-.66797,0-1.23438-.36572-1.69922-1.1001-.46875-.73096-.36914-1.5,.2998-2.2998,.13086-.13135,.2002-.3999,.2002-.7998,0-.40039-.2002-.86572-.60059-1.40039-.39941-.53125-1.33398-1.06543-2.7998-1.59961-.93457-.40039-1.93457-.6001-3-.6001-1.2002,0-2.43457,.2998-3.7002,.8999-1.26855,.6001-2.43457,1.63428-3.5,3.1001-3.33398,4.53418-6.36816,8.66846-9.09961,12.3999-2.73438,3.73438-5.56934,7.46875-8.5,11.2002-2.93457,3.73438-6.46875,7.93408-10.60059,12.59961-.39941,.53467-.93359,.80029-1.59961,.80029Zm6.59961,37c-2.7998,0-4.83398-.93115-6.09961-2.80029-1.26562-1.86523-1.90039-3.86523-1.90039-6,0-1.73096,.73438-4.13086,2.2002-7.19971,1.46582-3.06592,3.23145-6.33154,5.2998-9.80029,2.06641-3.46533,4.03125-6.73096,5.90039-9.7998,1.86523-3.06543,3.26562-5.53125,4.2002-7.3999,.39941-.80029,1-1.2002,1.7998-1.2002,.66602,0,1.23145,.26904,1.7002,.80029,.46582,.53418,.5,1.19971,.09961,2-.7998,1.59961-2.09961,3.93408-3.89941,7-1.80078,3.06836-3.73438,6.33398-5.80078,9.7998-2.06836,3.46875-3.83398,6.63428-5.2998,9.5-1.46875,2.86865-2.2002,4.96875-2.2002,6.2998,0,3.2002,1.33203,4.80029,4,4.80029,2.66602,0,5.06641-1.23145,7.2002-3.7002,2.13184-2.46533,4.26562-5.69971,6.40039-9.69971,2.13086-4,4.53125-8.33154,7.2002-13,2.66504-4.66602,5.7998-9.30029,9.39941-13.90039,3.60059-4.59961,7.93164-8.73096,13-12.3999,5.06543-3.66553,11.13184-6.36572,18.2002-8.1001h.59961c1.33203,0,2,.66895,2,2,0,.93457-.53418,1.53467-1.59961,1.80029-6.7998,1.73438-12.63477,4.3999-17.5,8-4.86914,3.6001-9.03418,7.69971-12.5,12.2998-3.46875,4.6001-6.5,9.30029-9.09961,14.1001-2.60059,4.7998-5.03516,9.2002-7.30078,13.2002-2.26855,4-4.66797,7.23438-7.19922,9.69971-2.53516,2.46875-5.46875,3.7002-8.80078,3.7002Zm63.2002-14.3999c-2.13379,0-4.09961-.5-5.89941-1.5-1.80078-1-2.7002-2.5-2.7002-4.5,0-1.33154,.33105-2.6001,1-3.80029,.93066-1.73096,2.39941-4.36572,4.39941-7.8999,2-3.53125,4.06641-7.26562,6.2002-11.2002,2.13184-3.93115,3.93164-7.59961,5.40039-11,1.46582-3.3999,2.2002-5.8999,2.2002-7.5,0-3.06543-1.30078-5.3999-3.90039-7-2.59961-1.59961-5.56836-2.3999-8.90039-2.3999-5.19922,0-10.06836,1.43457-14.59961,4.30029-4.53418,2.86865-8.66895,6.2998-12.40039,10.2998-3.73438,4-7.13379,7.86865-10.19922,11.6001-.40039,.53418-.93457,.7998-1.60059,.7998-.66895,0-1.23438-.36572-1.7002-1.1001-.46875-.73096-.43359-1.43115,.10059-2.09961,3.46582-4.13135,7.2002-8.33154,11.2002-12.6001,4-4.26562,8.43066-7.86572,13.2998-10.80029,4.86523-2.93115,10.16504-4.3999,15.89941-4.3999,2.40039,0,4.90039,.43457,7.5,1.30029,2.60059,.86865,4.80078,2.2998,6.60059,4.2998s2.7002,4.6001,2.7002,7.7998c0,2-.76953,4.76904-2.30078,8.30029-1.53418,3.53418-3.36816,7.33447-5.5,11.3999-2.13379,4.06885-4.19922,7.8999-6.19922,11.5s-3.53516,6.3999-4.60059,8.3999c-.39941,.53467-.59961,1.06885-.59961,1.6001,0,.93457,.53125,1.53418,1.59961,1.7998,1.06543,.26904,2.06543,.40039,3,.40039,3.06543,0,6.26562-1.33154,9.60059-4,3.33105-2.66602,6.46484-5.76562,9.39941-9.30029,2.93164-3.53125,5.2002-6.43115,6.7998-8.69971,.40039-.53125,.86621-.80029,1.40039-.80029,.66602,0,1.2998,.33447,1.90039,1,.59961,.66895,.56543,1.3999-.10059,2.2002-1.86816,2.66846-4.36816,5.86865-7.5,9.6001-3.13379,3.73438-6.56836,7-10.2998,9.7998-3.73438,2.7998-7.46875,4.2002-11.2002,4.2002Zm-10.2002,14.59961c-4.13379,0-7.76855-1.26562-10.89941-3.7998-3.13477-2.53125-4.7002-6.2002-4.7002-11v-1.5c0-.46582,.06543-.96582,.2002-1.5,.39941-3.06543,1.43066-6.53125,3.09961-10.3999,1.66602-3.86572,3.60059-7.66553,5.7998-11.3999,2.2002-3.73145,4.16602-6.86572,5.90039-9.40039,.40039-.66553,.93164-1,1.59961-1,.66602,0,1.23145,.33447,1.7002,1,.46582,.66895,.43164,1.46875-.09961,2.40039-2.66895,3.86865-4.7998,7.33398-6.40039,10.3999-2,3.6001-3.7998,7.33447-5.39941,11.19971-1.60059,3.86914-2.40039,7.2002-2.40039,10,0,3.6001,1.09961,6.33447,3.2998,8.2002,2.2002,1.86865,4.96582,2.7998,8.2998,2.7998,4.26562,0,8.46582-.86523,12.60059-2.59961,4.13086-1.73145,7.86523-3.86572,11.2002-6.40039,.26562-.26562,.66504-.3999,1.19922-.3999,1.33203,0,2,.66895,2,2,0,.66895-.26855,1.2002-.7998,1.6001-3.73438,2.7998-7.7998,5.13428-12.2002,7-4.39941,1.86865-9.06836,2.7998-14,2.7998Z"/>
          <path class="cls-1" d="M1205.17627,144c-3.46875,0-7-.53125-10.60059-1.59961-3.59961-1.06592-6.63379-2.83154-9.09961-5.30029-2.46582-2.46533-3.7002-5.76562-3.7002-9.8999,0-1.46582,.66895-2.2002,2-2.2002,1.33398,0,2,.73438,2,2.2002,0,2.53418,.5,4.53418,1.5,6,1,1.46875,2.76562,2.7998,5.2998,4,2,.93457,4.16602,1.63428,6.5,2.1001,2.33105,.46875,4.36621,.69971,6.10059,.69971,4.93066,0,9.76562-.93115,14.5-2.7998,4.73047-1.86572,9.09961-4.26562,13.09961-7.2002,.26562-.26562,.66602-.3999,1.2002-.3999,1.33105,0,2,.66895,2,2,0,.66895-.26855,1.2002-.7998,1.6001-4.26953,3.2002-8.96875,5.7998-14.10059,7.7998-5.13379,2-10.43457,3-15.89941,3Zm5.59961-30.59961c-2.40039,0-4.46875-.53125-6.2002-1.6001-.7998-.3999-1.2002-.93115-1.2002-1.6001,0-.66553,.30078-1.23145,.90039-1.7002,.59961-.46533,1.2998-.5,2.09961-.09961,1.60059,.66846,3.06641,1,4.40039,1,2.7998,0,5.86523-.83154,9.2002-2.5,3.33105-1.66602,6.53125-3.83154,9.59961-6.5,3.06543-2.66602,5.56543-5.53125,7.5-8.6001,1.93164-3.06592,2.90039-6,2.90039-8.80029,0-5.46533-2.7998-8.19971-8.40039-8.19971-6.26855,0-12.09961,1.63428-17.5,4.8999-5.39941,3.26855-10.33398,7.33447-14.7998,12.2002-4.46875,4.86865-8.43457,9.83398-11.90039,14.8999-.39941,.66846-.93359,1-1.59961,1s-1.23145-.33154-1.7002-1c-.46582-.66553-.43066-1.3999,.10059-2.2002,3.46484-5.06543,7.53125-10.19971,12.19922-15.3999,4.66602-5.2002,9.96582-9.56543,15.90039-13.1001,5.93164-3.53125,12.36523-5.2998,19.2998-5.2998,3.60059,0,6.56543,1.06885,8.90039,3.19971,2.33105,2.13477,3.5,5.13477,3.5,9,0,3.6001-1.10059,7.16895-3.2998,10.7002-2.2002,3.53418-5,6.7998-8.40039,9.7998s-7.03418,5.40039-10.90039,7.2002c-3.86816,1.7998-7.39941,2.7002-10.59961,2.7002Zm-4.59961,18.59961c-3.60059,0-6.90039-.93115-9.90039-2.7998-3-1.86572-4.5-5.06543-4.5-9.6001,0-3.73096,1.36523-7.73096,4.09961-12,2.73145-4.26562,6.13184-8.36572,10.2002-12.2998,4.06543-3.93115,8.23145-7.36572,12.5-10.30029,4.26562-2.93115,7.93164-4.86523,11-5.7998,.13184,0,.23145-.03125,.2998-.1001,.06641-.06543,.16602-.1001,.30078-.1001,1.33105,0,2,.73438,2,2.2002,0,.7998-.46875,1.3999-1.40039,1.7998-2.93457,.93457-6.36914,2.80029-10.2998,5.6001-3.93457,2.80029-7.7998,6.03467-11.60059,9.7002-3.7998,3.66846-6.93359,7.36865-9.39941,11.1001-2.46875,3.73438-3.7002,7.13428-3.7002,10.19971,0,2.93457,.96582,5.06885,2.90039,6.3999,1.93066,1.33447,4.43066,2,7.5,2,7.86523,0,15.83105-2.09961,23.89941-6.2998,8.06543-4.2002,14.96582-10.03125,20.7002-17.5,.40039-.53125,.86523-.7998,1.40039-.7998,.7998,0,1.43066,.36865,1.89941,1.09961,.46582,.73438,.36621,1.5-.2998,2.30029-6,7.73438-13.2998,13.86865-21.90039,18.3999-8.59961,4.53418-17.16797,6.7998-25.69922,6.7998Z"/>
          <path class="cls-1" d="M1270.97314,145.40039c-1.59961,0-3.66895-.23438-6.2002-.7002-2.53418-.46875-5.06836-1.2998-7.59961-2.5-2.53418-1.2002-4.66895-2.93115-6.40039-5.2002-1.73047-2.26562-2.59961-5.13086-2.59961-8.59961v-1.5c0-.46582,.06836-.96582,.2002-1.5,.13379-1.06592,.7998-1.6001,2-1.6001,1.33398,0,2,.6001,2,1.7998,0,.53467-.03418,1.03467-.10059,1.5-.06836,.46875-.09961,.83447-.09961,1.1001,0,3.33447,1.06543,5.96875,3.2002,7.8999,2.13086,1.93457,4.7002,3.30029,7.7002,4.1001s5.69922,1.2002,8.09961,1.2002c6,0,11.5-.76562,16.5-2.30029,5-1.53125,9.33105-3.36572,13-5.5,3.66602-2.13135,6.5-4.13135,8.5-6,.40039-.3999,.86523-.6001,1.40039-.6001,.7998,0,1.43066,.40039,1.89941,1.2002,.46582,.7998,.2998,1.53418-.5,2.2002-2.13379,2-5.23438,4.16846-9.2998,6.5-4.06836,2.33398-8.76855,4.33398-14.09961,6-5.33496,1.66553-11.2002,2.5-17.60059,2.5Zm24.40039-18.40039c-1.33496,0-2-.53125-2-1.59961,0-.66602,.26562-1.26562,.7998-1.80029,3.33105-3.6001,5.46582-7.46533,6.40039-11.6001,.93066-4.13086,1.39941-8.26562,1.39941-12.3999,0-2.7998-.09961-5.46533-.2998-8-.2002-2.53125-.2998-4.86572-.2998-7,0-3.73096,.53125-6.46533,1.59961-8.19971,.40039-.53125,1.40039-1.13135,3-1.80029,1.60059-.66553,3.13184-1.56543,4.60059-2.69971,1.46484-1.13135,2.19922-2.56592,2.19922-4.30029,0-.7998-.19922-1.6001-.59961-2.3999-.13477-.53125-.56836-1.06543-1.2998-1.6001-.73438-.53125-1.76855-.7998-3.10059-.7998-1.33398,0-3.06836,.43408-5.19922,1.2998-2.13477,.86865-4.73438,2.43457-7.80078,4.7002-4.66797,3.46875-10.2998,8.1001-16.89941,13.8999-6.60059,5.7998-14.63477,13.83447-24.10059,24.1001-.39941,.3999-.86816,.6001-1.39941,.6001-.66602,0-1.23145-.36572-1.7002-1.1001-.46582-.73145-.36523-1.5,.2998-2.30029,1.60059-1.73096,4.03125-4.43115,7.2998-8.09961,3.26562-3.66602,7.06641-7.63135,11.40039-11.90039,4.33105-4.26562,8.83105-8.33105,13.5-12.19971,4.66602-3.86572,9.16602-7.06592,13.5-9.6001,4.33105-2.53125,8.16602-3.7998,11.5-3.7998,3.46582,0,6,1.73438,7.59961,5.19971,.26562,.53467,.46582,1.1001,.60059,1.7002,.13086,.6001,.2002,1.23438,.2002,1.8999,0,2.3999-.90039,4.73438-2.7002,7-1.7998,2.26855-4.43457,3.93457-7.90039,5-.39941,1.2002-.59961,3.06885-.59961,5.6001,0,2.26855,.09961,4.66846,.2998,7.19971,.2002,2.53467,.2998,4.46875,.2998,5.80029,.13184,3.73438-.13379,7.63428-.7998,11.69971-.66895,4.06885-2.13477,8.1001-4.40039,12.1001,3.86621-1.73096,7.63184-4.03125,11.30078-6.8999,3.66504-2.86572,6.96484-6.36572,9.89941-10.5,.40039-.53125,.86621-.7998,1.40039-.7998,.66504,0,1.23145,.3999,1.7002,1.19971,.46484,.80029,.43066,1.53467-.10059,2.2002-2.53418,3.6001-5.66895,6.93408-9.39941,10-3.73438,3.06885-7.43457,5.53418-11.10059,7.3999-3.66895,1.86865-6.7002,2.7998-9.09961,2.7998Zm-24.60059,6.2002c-3.19922-.13135-5.89941-1.33105-8.09961-3.6001-2.2002-2.26562-3.2998-5.13135-3.2998-8.6001,0-2.66553,.66504-5.33105,2-8,1.59961-3.59961,4.03125-7.56543,7.2998-11.8999,3.26562-4.33105,7-8.53125,11.2002-12.6001,4.2002-4.06543,8.36523-7.43115,12.5-10.09961,.53125-.26562,.93066-.40039,1.2002-.40039,1.19922,0,1.7998,.66895,1.7998,2,0,.66895-.33496,1.2002-1,1.6001-3.86914,2.3999-7.76855,5.56885-11.7002,9.5-3.93457,3.93457-7.43457,8-10.5,12.2002-3.06836,4.19971-5.40039,7.96875-7,11.2998-.53418,1.2002-.93457,2.33447-1.2002,3.3999-.26855,1.06885-.39941,2.06885-.39941,3,0,2.53467,.7998,4.53467,2.39941,6,1.60059,1.46875,3.46582,2.2002,5.60059,2.2002,3.06543,0,6.19922-1.5,9.39941-4.5s5.26562-7.8999,6.2002-14.7002c.66602-4.53125,1.06543-7.86523,1.2002-10,.13086-2.13086,.26562-4.73096,.39941-7.7998,0-1.33105,.66602-2,2-2,1.33203,0,2,.66895,2,2-.13379,3.33447-.43359,7.36865-.89941,12.1001-.46875,4.73438-1.43457,9.36865-2.90039,13.8999-1.46875,4.53418-3.66895,8.23438-6.59961,11.1001-2.93457,2.86865-6.7998,4.16846-11.60059,3.8999Z"/>
        </g>
      </g>
    </g>
  </g>
</svg>