<?xml version="1.0" encoding="UTF-8"?>
<svg xmlns="http://www.w3.org/2000/svg" xmlns:xlink="http://www.w3.org/1999/xlink" viewBox="0 0 660 925.99987">
  <defs>
    <style>
      .cls-1 {
        fill: #f00;
      }

      .cls-2 {
        filter: url(#outer-glow-1);
      }

      .cls-3 {
        fill: none;
      }

      #No{
        opacity:0;
        animation: flicker 6s infinite step-end;
      }

      #Picture{
        opacity:0;
        animation: flicker 6s infinite step-end;
        animation-delay: 3s;
      }

      #Available{
        opacity:0;
        animation: flicker 6s infinite step-end;
        animation-delay: 1.5s;
      }

      @keyframes flicker{
        0%    { opacity: 0;   }
        3%    { opacity: 0.4; }
        6%    { opacity: 1;   }
        7%    { opacity: 0.4; }
        8%    { opacity: 1;   }
        9%    { opacity: 0.4; }
        10%   { opacity: 1;   }
        100%  { opacity: 0;   }
      }
    </style>
    <filter id="outer-glow-1" filterUnits="userSpaceOnUse">
      <feOffset dx="0" dy="0"/>
      <feGaussianBlur result="blur" stdDeviation="14"/>
      <feFlood flood-color="#fff" flood-opacity=".75"/>
      <feComposite in2="blur" operator="in"/>
      <feComposite in="SourceGraphic"/>
    </filter>
  </defs>
  <g id="Layer_1" data-name="Layer 1"/>
  <g id="Layer_2" data-name="Layer 2">
    <g id="Layer_1-2" data-name="Layer 1">
      <g>
        <rect class="cls-3" width="660" height="925.99987"/>
        <g class="cls-2">
          <g id="No">
            <path class="cls-1" d="M62.55273,475.33011c-2.12061,0-4.16992-.20996-6.1499-.62988-1.97998-.42041-3.74072-1.09033-5.27979-2.01025-1.54053-.91943-2.76025-2.11963-3.66016-3.6001-.8999-1.479-1.3501-3.2998-1.3501-5.45996,0-1.95947,.51025-3.75,1.53027-5.37012,1.02002-1.61963,2.36963-3.05957,4.0498-4.31982,1.68018-1.25977,3.51025-2.32959,5.49023-3.20996,1.97998-.87939,3.94971-1.53955,5.90967-1.97998,1.95947-.43994,3.69971-.66016,5.22021-.66016,.87939,0,2.01904,.08057,3.41992,.24023,1.3999,.16016,2.87988,.41992,4.43994,.77979,1.56006,.36035,3.03027,.84033,4.41016,1.43994,1.37988,.6001,2.49902,1.3501,3.35986,2.25,.85986,.90039,1.29004,1.99072,1.29004,3.27002,0,.28027-.08984,.67041-.27002,1.16992-.18018,.50098-.59082,.75-1.22998,.75-.28027,0-.6001-.12891-.95996-.38965-.35986-.25977-.64014-.46973-.83984-.62988-1.96045-1.52002-3.91064-2.67041-5.8501-3.4502-1.94092-.78027-4.21045-1.16992-6.81006-1.16992-1.2002,0-2.58008,.1499-4.14014,.44971-1.56006,.30029-3.1499,.74072-4.77002,1.32031-1.62012,.58008-3.12012,1.29004-4.5,2.12988s-2.48975,1.81006-3.33008,2.91016c-.83984,1.10059-1.25977,2.31006-1.25977,3.62988,0,1.88037,.52979,3.40039,1.58984,4.56006,1.05957,1.16064,2.46924,1.99023,4.22998,2.48975,1.75977,.50098,3.63965,.75,5.64014,.75,2.59961,0,5.22021-.34961,7.85986-1.0498,2.64014-.69922,4.75977-1.58984,6.36035-2.66992,2.71924-1.83936,5.14941-3.87012,7.28955-6.09033,2.13965-2.21973,4.11963-4.55957,5.94043-7.02002,1.81934-2.45996,3.61963-4.94971,5.3999-7.46973,1.7793-2.52002,3.68994-4.99951,5.72998-7.43994,.12012-.15967,.2793-.24023,.47998-.24023,.19971,0,.36914,.11084,.50977,.33008,.13965,.22021,.10986,.43018-.08984,.62988-2.08008,2.48096-4.01074,5.00098-5.79004,7.56006-1.78027,2.56055-3.58008,5.07031-5.3999,7.53027-1.8208,2.45996-3.81006,4.7998-5.97021,7.02002-2.15967,2.21973-4.61963,4.27002-7.37988,6.1499-1.04053,.68066-2.39062,1.33008-4.0498,1.94971-1.66064,.62061-3.47998,1.12061-5.45996,1.5-1.97998,.38086-3.95068,.57031-5.91016,.57031-2.12061,0-4.10986-.2793-5.97021-.84033-1.85986-.55957-3.35986-1.50928-4.5-2.84961-1.13965-1.33984-1.70996-3.12939-1.70996-5.37012,0-1.59961,.46973-3.01953,1.41016-4.26025,.93945-1.23926,2.16943-2.31934,3.68994-3.23975,1.51953-.91992,3.1499-1.68945,4.89014-2.31006,1.73975-.61963,3.41992-1.08008,5.04004-1.37988,1.61963-.30029,3.00928-.4502,4.16992-.4502,2.71973,0,5.11963,.41992,7.19971,1.26025,2.07959,.83984,4.14014,2.06055,6.18018,3.65967,.15967,.12012,.33008,.25049,.51025,.39014,.17969,.14062,.36914,.25049,.56982,.33008,.03955,0,.09912-.0498,.18018-.1499,.07959-.09961,.11963-.29004,.11963-.57031,0-1.03955-.41992-1.94971-1.25977-2.72998-.83984-.77979-1.91064-1.42969-3.20996-1.94971-1.30029-.51953-2.68018-.93018-4.14014-1.22998-1.46045-.30029-2.83008-.51953-4.10986-.66016-1.28076-.13965-2.28027-.20996-3-.20996-1.52051,0-3.22021,.22021-5.1001,.66016-1.88086,.44043-3.75,1.07959-5.60986,1.91992-1.86035,.83984-3.57031,1.85059-5.13037,3.02979-1.55957,1.18018-2.81055,2.50049-3.75,3.95996-.93994,1.46094-1.40967,3.05078-1.40967,4.77002,0,2.52002,.73975,4.56006,2.21973,6.12012,1.47949,1.56006,3.40967,2.69043,5.79004,3.39014,2.37939,.69922,4.92969,1.0498,7.6499,1.0498,2.91943,0,5.81006-.37012,8.67041-1.10986,2.85938-.73975,5.26953-1.74951,7.22998-3.03027,2.79932-1.83936,5.32959-3.93896,7.58984-6.2998,2.25928-2.35986,4.35938-4.84961,6.2998-7.47021,1.93994-2.61914,3.84033-5.26953,5.7002-7.94971,1.85986-2.67969,3.81006-5.28027,5.8501-7.80029,.12012-.15918,.2793-.23975,.47998-.23975,.19971,0,.36914,.11035,.50977,.33008,.13965,.22021,.10986,.43018-.08984,.62988-2.08008,2.56006-4.06055,5.2002-5.93994,7.91992-1.88086,2.7207-3.79053,5.39062-5.72998,8.01025-1.94092,2.62012-4.04053,5.11035-6.30029,7.46973-2.26025,2.36084-4.82959,4.48047-7.70996,6.35986-1.28027,.84033-2.84033,1.59033-4.67969,2.25-1.84033,.66016-3.81006,1.17041-5.91016,1.53027s-4.22998,.54004-6.39014,.54004Zm43.26025-14.64014c-.16064,0-.31055-.06934-.4502-.20996-.14062-.13965-.19043-.30957-.1499-.50977,.51953-2.71973,.94971-5.6001,1.29004-8.64014,.33936-3.03955,.64941-5.93994,.93018-8.7002,.03906-.39941,.07959-.85938,.11963-1.37988,.03955-.51953,.06006-1.05957,.06006-1.62012,0-.95996-.12012-1.89941-.35986-2.81982-.24023-.91992-.76025-1.57959-1.56006-1.97998-.6001-.31982-1.2002-.55957-1.7998-.72021-1.80029-.6001-3.99023-1.19971-6.57031-1.7998s-5.36963-1.10986-8.36963-1.53027c-3-.41992-6-.62988-9-.62988-2.96094,0-5.81104,.28027-8.55029,.83984-2.74023,.56104-5.16016,1.51074-7.25977,2.8501-2.1001,1.34082-3.68994,3.1709-4.77002,5.49023-.12012,.28027-.18018,.52002-.18018,.71973,0,.36035,.19971,.54004,.6001,.54004,.31982,0,.66016-.10938,1.02002-.33008,.35986-.21924,.61963-.5293,.77979-.92969,.63965-1.47949,1.69971-2.68994,3.18018-3.62988,1.47949-.93945,3.16943-1.66992,5.06982-2.19043,1.89941-.51904,3.84033-.87939,5.82031-1.07959,1.97998-.19971,3.80957-.30029,5.48975-.30029,3.15967,0,6.58984,.35059,10.29004,1.05029,3.69922,.7002,7.9292,1.73047,12.68994,3.08984,.2793,.12012,.41992,.2998,.41992,.54004,0,.16016-.07031,.31006-.20996,.44971-.14062,.14062-.33008,.19043-.56982,.15039-4.72021-1.35938-8.90088-2.37939-12.54004-3.06006-3.64014-.67969-7.00049-1.02002-10.08008-1.02002-1.72021,0-3.54004,.1001-5.45996,.2998-1.91992,.20068-3.76025,.54004-5.52002,1.02002-1.76074,.47998-3.2998,1.14014-4.62012,1.97998-1.31982,.84033-2.26025,1.90039-2.81982,3.18018-.28027,.68066-.68994,1.18018-1.22998,1.5-.54004,.32031-1.09033,.47998-1.6499,.47998-.52051,0-.97021-.13965-1.3501-.41992-.38086-.2793-.56982-.67969-.56982-1.2002,0-.39941,.11963-.83984,.35986-1.31982,1.15967-2.52002,2.85938-4.5,5.1001-5.93994,2.23975-1.43994,4.81934-2.45996,7.73975-3.06006,2.91943-.6001,5.93994-.8999,9.06006-.8999,3.31982,0,6.58984,.23975,9.81006,.71973,3.21924,.47998,6.16943,1.06055,8.8501,1.74023,2.6792,.68066,4.81934,1.31982,6.41992,1.91992,1.47949,.52002,2.43945,1.34033,2.87988,2.45996,.43994,1.12012,.66016,2.36035,.66016,3.71973,0,1.08008-.06006,2.16016-.18018,3.24023-.28027,2.80029-.59033,5.72998-.92969,8.79004-.34033,3.06006-.771,5.9502-1.29004,8.66992-.04053,.3208-.24023,.47998-.6001,.47998Zm-8.16016,14.87988c-.64014,0-1.10986-.20996-1.41016-.62988-.2998-.41992-.44971-.91016-.44971-1.46973,0-.67969,.17969-1.27979,.54004-1.80029,.19971-.31982,.43945-.61963,.71973-.8999,.2793-.2793,.54004-.51953,.78027-.72021,.67969-.63916,1.30957-1.74902,1.88965-3.32959,.57959-1.58008,1.1001-3.39014,1.56006-5.43018,.45947-2.04004,.87012-4.12988,1.22998-6.27002,.36035-2.13965,.66016-4.10986,.90039-5.91016,.23975-1.7998,.41992-3.19971,.54004-4.19971,.07959-.36035,.2793-.54004,.59961-.54004,.47998,0,.67969,.22021,.6001,.65967-.16016,1.12061-.37012,2.60059-.62988,4.44043-.26074,1.83984-.56982,3.8501-.93018,6.02979-.35986,2.18066-.77979,4.31055-1.25977,6.39014-.47998,2.08008-1.03027,3.92969-1.6499,5.5498-.62061,1.62012-1.31104,2.79004-2.07031,3.51025-.32031,.28027-.67041,.62988-1.0498,1.0498-.38086,.41992-.57031,.89062-.57031,1.41016,0,.59961,.24023,.8999,.72021,.8999,.19971,0,.35986-.02051,.47998-.06006,1.08008-.28027,2.33984-1.01074,3.77979-2.18994,1.44043-1.17969,2.94043-2.64014,4.5-4.37988,1.56006-1.74023,3.08008-3.63037,4.56006-5.67041,1.47949-2.03955,2.77979-4.05908,3.90039-6.05957,1.67969-2.91943,3.30908-5.8501,4.88965-8.79004,1.57959-2.93994,3.40967-5.75,5.49023-8.43018,1.56006-2.04004,3.2793-3.93018,5.15967-5.66992,1.87988-1.74023,3.93018-3.13965,6.15039-4.2002,2.21973-1.05908,4.60938-1.60938,7.16992-1.6499,.43945,0,.77979-.08984,1.02002-.27002,.23975-.18018,.35986-.36914,.35986-.56982,0-.47998-.35986-.72021-1.08008-.72021-3.40039-.07959-6.43018,.46045-9.08984,1.62012-2.66064,1.16064-5.03076,2.75977-7.10986,4.7998-2.08057,2.04004-3.95996,4.32031-5.64014,6.84033s-3.24023,5.12061-4.68018,7.7998c-1.43994,2.68018-2.86035,5.22021-4.25977,7.62012-1.16064,2.00049-2.36084,3.83984-3.6001,5.52002-1.24023,1.67969-2.58008,3.04004-4.02002,4.08008-.08057,.08057-.20068,.11963-.35986,.11963-.40039,0-.6001-.19971-.6001-.59961,0-.19971,.07959-.36035,.23975-.47998,1.32031-.96045,2.56982-2.23975,3.75-3.84033,1.17969-1.59912,2.34961-3.39941,3.51025-5.3999,1.47949-2.52002,2.95947-5.1499,4.43994-7.89014,1.47949-2.73926,3.08984-5.38965,4.83008-7.94971,1.73975-2.55957,3.67969-4.86963,5.81982-6.93018,2.13965-2.05957,4.59033-3.67969,7.3501-4.85986,2.76025-1.17969,5.8999-1.72998,9.41992-1.6499,.75928,0,1.32959,.18994,1.70996,.56982,.37988,.38037,.57031,.81006,.57031,1.29004,0,.52002-.2207,.98975-.66016,1.41016-.44043,.41992-1.08008,.65039-1.91992,.68994-2.76025,.04004-5.31006,.71045-7.6499,2.00977-2.34033,1.30029-4.48047,2.98047-6.42041,5.04004-1.94043,2.06055-3.7002,4.26025-5.27979,6.6001-1.58057,2.33984-2.97021,4.57031-4.16992,6.68994-.88037,1.52051-1.6709,2.9502-2.37012,4.29004-.7002,1.34033-1.33008,2.51074-1.89014,3.50977-1.12012,1.96045-2.43994,3.98096-3.95996,6.06006-1.52051,2.08057-3.08984,4.04053-4.70996,5.87988-1.62012,1.84033-3.20068,3.38086-4.73975,4.62012-1.54053,1.23926-2.93066,2.01953-4.16992,2.34033-.16064,.03906-.30029,.06934-.42041,.08984-.11963,.01953-.23975,.02979-.35986,.02979Z"/>
            <path class="cls-1" d="M122.6123,473.83011c-1.72021,0-3.16064-.57031-4.32031-1.70996-1.15967-1.14014-1.65918-2.49023-1.5-4.05029,0-.39941,.20068-.59961,.6001-.59961,.16064,0,.31055,.07031,.4502,.20996,.14062,.14062,.18945,.31006,.1499,.50977-.07959,1.04053,.33008,2.05029,1.22998,3.03027,.8999,.98047,2.04932,1.46973,3.4502,1.46973,.91943,0,1.89941-.2793,2.93994-.83984,1.03955-.55957,2.0791-1.5,3.12012-2.82031,.51904-.63916,.93896-1.14941,1.25977-1.52979,.31982-.37988,.54004-.68994,.66016-.93018,.11963-.23975,.2793-.35986,.47998-.35986,.19971,0,.36914,.08984,.50977,.27002,.13965,.18018,.1499,.39014,.03027,.62988-.24023,.47998-.56104,.94043-.95996,1.37988-.40039,.44092-.76074,.88037-1.08008,1.32031-1.12061,1.43994-2.29053,2.47021-3.51025,3.08984-1.2207,.61963-2.39062,.93018-3.50977,.93018Zm10.91992-11.22021c-.24023,0-.43018-.09912-.56982-.2998-.14062-.19971-.13037-.41992,.02979-.66016,1.2002-1.75977,1.7998-3.45947,1.7998-5.1001,0-1.15967-.35059-2.10938-1.0498-2.84961-.7002-.73975-1.75049-1.11035-3.1499-1.11035-2.08057,0-4.10986,.91064-6.09033,2.72998-1.97998,1.8208-4.01025,4.09033-6.08984,6.81006-.12012,.12012-.23975,.18018-.35986,.18018-.19971,0-.36963-.12012-.51025-.35986-.13965-.24023-.12939-.47998,.03027-.72021,1.35938-1.7998,2.71973-3.43945,4.08008-4.91992,1.35938-1.47949,2.76904-2.65967,4.22998-3.54004,1.45947-.87939,2.98975-1.31982,4.58984-1.31982,1.99951,0,3.41992,.47998,4.26025,1.43994,.83984,.95996,1.25977,2.12061,1.25977,3.47998,0,1-.18018,2.02002-.54004,3.06006-.35986,1.04053-.86035,2.02002-1.5,2.93994-.12012,.16016-.26074,.23975-.41992,.23975Zm-10.7998,7.43994c-.84033,0-1.49072-.28955-1.9502-.86963-.46045-.57959-.68994-1.32959-.68994-2.25,0-1.2002,.35986-2.52002,1.08008-3.95996,.71973-1.44043,1.6499-2.81006,2.79004-4.11035,1.13965-1.29932,2.32959-2.37012,3.56982-3.20996,1.23926-.83984,2.35986-1.25977,3.35986-1.25977,.55957,0,.84033,.20068,.84033,.59961,0,.16064-.06006,.31055-.18018,.4502-.12012,.14062-.28027,.19043-.47998,.1499-.83984-.07959-1.81055,.26074-2.91016,1.02002-1.10059,.76025-2.17041,1.74023-3.20996,2.93994-1.04053,1.2002-1.91064,2.4707-2.60986,3.81006-.7002,1.34082-1.05029,2.55029-1.05029,3.62988,0,.52051,.09961,.96045,.30029,1.32031,.19971,.35986,.5791,.54004,1.14014,.54004,.63916,0,1.31982-.20996,2.03955-.62988,.72021-.42041,1.38037-.93018,1.97998-1.53027,.6001-.6001,1.04004-1.15967,1.32031-1.68018,.12012-.19971,.2793-.2998,.47998-.2998,.19971,0,.37939,.08984,.54004,.27002,.15918,.18018,.15918,.39014,0,.62988-.35986,.6001-.88037,1.25098-1.56006,1.9502-.68066,.7002-1.43994,1.29004-2.28027,1.77002-.83984,.47998-1.67969,.71973-2.51953,.71973Zm10.07959-4.7998c-1.31982,0-2.45996-.39941-3.41992-1.2002-.95996-.79932-1.43994-1.87939-1.43994-3.23975,0-.47998,.06934-.99023,.20996-1.53027,.13965-.54004,.34961-1.10986,.62988-1.70996,.12012-.23975,.30029-.35986,.54004-.35986,.19971,0,.36963,.08057,.51025,.24023,.13965,.16016,.1499,.35986,.02979,.59961-.23975,.47998-.41064,.94043-.50977,1.38037-.10059,.44043-.1499,.86035-.1499,1.25977,0,1.08008,.35986,1.91064,1.07959,2.49023,.72021,.58008,1.58008,.86963,2.58008,.86963,.87939,0,1.7793-.21924,2.7002-.65967,.91943-.43994,1.75977-1.14014,2.52002-2.1001,.12012-.15967,.25977-.24023,.41992-.24023,.19971,0,.37988,.11084,.54004,.33008,.15918,.22021,.15918,.43018,0,.62988-.9209,1.12061-1.93018,1.94092-3.03027,2.46045-1.10059,.52002-2.16992,.77979-3.20996,.77979Z"/>
          </g>
          <g id="Picture">
            <path class="cls-1" d="M164.19092,465.00979c-2.08008,0-4.02002-.40967-5.81982-1.22998-1.80029-.81934-3.24023-2.05957-4.32031-3.71973-1.07959-1.65967-1.61963-3.75-1.61963-6.27002,0-3.19971,.77979-6.07959,2.33984-8.64014,1.56006-2.55908,3.66943-4.7998,6.33008-6.71973,2.65967-1.92041,5.69971-3.51025,9.12012-4.77002,3.41992-1.26025,7.00928-2.20996,10.77002-2.8501,3.75928-.63965,7.479-.95996,11.15967-.95996,3.47998,0,6.78955,.28027,9.93018,.83984,3.13965,.56055,5.92969,1.41016,8.37012,2.5498,2.43945,1.14014,4.35938,2.56055,5.75977,4.26025,1.3999,1.70068,2.1001,3.67041,2.1001,5.91016,0,3.23975-1.02002,5.93066-3.06006,8.06982-2.04004,2.14014-4.93018,3.75-8.66992,4.83008-3.74072,1.08008-8.15088,1.62012-13.22998,1.62012-.40039,0-.6001-.19971-.6001-.6001,0-.39941,.19971-.6001,.6001-.6001,7.63965,0,13.50928-1.15967,17.60986-3.47998,4.09961-2.31934,6.1499-5.59961,6.1499-9.83984,0-2.04004-.66992-3.83008-2.00977-5.37012-1.34082-1.53955-3.1709-2.82959-5.49023-3.87012-2.32031-1.03955-4.97021-1.81982-7.94971-2.33984-2.98047-.51953-6.13037-.78027-9.4502-.78027-3.56055,0-7.16992,.30029-10.83008,.90039-3.65967,.59961-7.13965,1.5-10.43994,2.69971-3.2998,1.2002-6.25,2.71045-8.8501,4.53027-2.60059,1.82031-4.66016,3.93994-6.17969,6.35986-1.52051,2.42041-2.28027,5.17041-2.28027,8.25,0,2.16016,.5,3.98975,1.5,5.48975,.99951,1.5,2.34033,2.64014,4.02002,3.42041,1.68018,.77979,3.5,1.16992,5.45996,1.16992,2.47998,0,5.01025-.6499,7.59033-1.9502,2.58008-1.29932,4.78955-3.30908,6.62988-6.02979,.75928-1.11963,1.42969-2.37012,2.00977-3.75,.57959-1.38037,1.04004-2.76953,1.38037-4.16992,.33936-1.3999,.50977-2.66016,.50977-3.78027,0-1.51953-.3208-2.58008-.95996-3.18018h-.06006c-.12012,0-.28027,.021-.47998,.06006-.20068,.04053-.34033,.08057-.41992,.12012,.23975,.52051,.35986,1.26025,.35986,2.22021,0,1.07959-.1499,2.32031-.44971,3.71973-.30029,1.40088-.73047,2.80029-1.29004,4.2002-.56055,1.40039-1.2207,2.66064-1.97998,3.77979-.9209,1.36035-2.11035,2.55029-3.57031,3.57031-1.46045,1.02002-3.02051,1.81006-4.67969,2.36963-1.66064,.56104-3.29102,.84033-4.89014,.84033-2.2002,0-4.09033-.61963-5.66992-1.86035-1.58057-1.23926-2.37012-3.2793-2.37012-6.11963,0-2.83984,.68994-5.37012,2.06982-7.59033,1.38037-2.21973,3.25977-4.14941,5.64014-5.79004,2.37939-1.63965,5.07959-3,8.1001-4.07959,3.01953-1.08008,6.18945-1.87988,9.50977-2.40039,3.31982-.51904,6.57959-.77979,9.78027-.77979,2.87988,0,5.61914,.20996,8.21973,.62988,2.6001,.41992,4.89941,1.05029,6.90039,1.89014,1.99951,.83984,3.56982,1.87012,4.70996,3.08984,1.13965,1.2207,1.70996,2.65039,1.70996,4.29004,0,1.88086-.56055,3.53076-1.68018,4.9502-1.12012,1.42041-2.60059,2.60986-4.43994,3.56982-1.84033,.95996-3.83984,1.68018-6,2.16016s-4.28076,.71973-6.35986,.71973c-.40039,0-.6001-.19971-.6001-.59961,0-.39941,.19971-.6001,.6001-.6001,2.0791,0,4.13965-.22998,6.17969-.68994,2.04004-.45947,3.90039-1.12988,5.58008-2.01025,1.68018-.87939,3.02002-1.94971,4.02002-3.20996,.99951-1.25977,1.5-2.68945,1.5-4.29004,0-1.39941-.53076-2.64014-1.58984-3.71973-1.06055-1.08008-2.53027-1.98975-4.41016-2.72998-1.88037-.73975-4.04053-1.2998-6.47998-1.68018-2.44043-.37988-5.02002-.56982-7.73975-.56982-3.08105,0-6.2207,.25-9.42041,.75-3.2002,.50049-6.27002,1.25049-9.20996,2.25-2.93994,1-5.56006,2.27051-7.85986,3.80957-2.30078,1.54053-4.13037,3.36035-5.48975,5.45996-1.36035,2.1001-2.04004,4.49072-2.04004,7.17041,0,2.32031,.73975,4.04053,2.21973,5.15967,1.47949,1.12061,3.24023,1.68018,5.28027,1.68018,1.99951,0,4.06934-.52979,6.20996-1.58984,2.13916-1.05957,3.88965-2.62988,5.25-4.70996,.75928-1.15967,1.39941-2.41992,1.91992-3.78027,.51953-1.35938,.91943-2.68945,1.19971-3.98975,.27979-1.2998,.42041-2.40967,.42041-3.33008,0-.87939-.12012-1.5-.36035-1.86035-.08057-.11963-.11963-.2793-.11963-.47998,0-.35986,.21924-.64941,.65967-.86963,.43994-.21973,.8999-.33008,1.38037-.33008,.47998,0,.83984,.12012,1.07959,.35986,.47998,.40039,.81934,.95068,1.02002,1.6499,.19971,.70068,.30029,1.49072,.30029,2.37012,0,1.28076-.19043,2.68018-.57031,4.2002-.38037,1.52051-.88037,3-1.5,4.43994-.62061,1.43994-1.29004,2.68018-2.00977,3.71973-1.24023,1.84033-2.72998,3.39014-4.47021,4.65039-1.73975,1.25977-3.56982,2.21045-5.48975,2.84961-1.91992,.64062-3.82031,.95996-5.7002,.95996Zm11.28027,8.22021c-.76025,0-1.38037-.30957-1.86035-.93018-.47998-.61963-.71973-1.22998-.71973-1.82959,0-.56006,.19971-.96045,.6001-1.2002,2.23926-1.3999,4.31982-3.46973,6.23975-6.20996,1.91992-2.73926,4.03955-6.34961,6.35986-10.83008,.47998-.91992,1.05957-2.05957,1.74023-3.41992,.67969-1.35938,1.38916-2.76953,2.12988-4.22998,.73975-1.45996,1.42969-2.85938,2.07031-4.2002,.63916-1.33936,1.15967-2.44971,1.55957-3.33008,.12012-.23975,.30029-.35986,.54004-.35986,.19971,0,.36963,.08057,.51025,.24023,.13965,.16016,.1499,.35986,.02979,.59961-.40039,.88037-.92041,1.99072-1.56006,3.33008-.64014,1.34082-1.33008,2.75098-2.06982,4.22998-.74072,1.48047-1.4502,2.90088-2.12988,4.26025-.68066,1.36035-1.26025,2.52002-1.74023,3.47998-2.27979,4.43994-4.42041,8.09033-6.41992,10.94971-2.00049,2.86035-4.2207,5.03076-6.66016,6.51025-.04004,.20068,.06006,.53076,.30029,.98975,.23975,.46045,.6001,.69043,1.08008,.69043,.19971,0,.41992-.06006,.65967-.18018,1.91992-1.03955,3.73975-2.53955,5.45996-4.5,1.71973-1.95947,3.33936-4.2002,4.86035-6.72021,1.51953-2.52002,2.93994-5.13916,4.25977-7.85986,1.32031-2.71973,2.53955-5.37012,3.66016-7.9502,1.11914-2.57959,2.13916-4.88965,3.06006-6.92969,.11963-.24023,.2998-.35986,.54004-.35986,.19971,0,.36914,.08057,.50977,.23975,.13965,.16016,.16992,.35986,.08984,.6001-.95996,2.08008-2.00977,4.43994-3.1499,7.08008-1.13965,2.63965-2.38037,5.33984-3.71973,8.09961-1.34082,2.76025-2.79004,5.41064-4.3501,7.9502-1.56006,2.54053-3.22021,4.81055-4.97998,6.81006-1.76074,2.00049-3.64062,3.54004-5.64014,4.62012-.40039,.23975-.82031,.35986-1.25977,.35986Z"/>
            <path class="cls-1" d="M223.771,469.87014c-.76025,0-1.29004-.2793-1.58984-.84033-.30029-.55957-.4502-1.1792-.4502-1.85986,0-.55957,.13965-1.35938,.41992-2.3999,.27979-1.03955,.66943-2.16943,1.17041-3.39014,.49951-1.21973,1.06934-2.35938,1.70996-3.41992,.63916-1.05957,1.29932-1.90967,1.97998-2.5498,.35986-.36035,.73975-.67969,1.13965-.95996,.39941-.56006,.6001-1.08008,.6001-1.56006,0-.6001-.27002-1.06982-.81006-1.41016-.54004-.33936-1.13037-.50977-1.77002-.50977-.68066,0-1.19971,.16016-1.55957,.47998-.56104,.52002-1.15039,1.13037-1.77002,1.82959-.62061,.70068-1.27051,1.51074-1.9502,2.43018-.72021,.92041-1.48047,1.91064-2.27979,2.97021-.80078,1.06006-1.7207,2.18994-2.76025,3.38965-.12012,.16064-.28027,.24023-.47998,.24023s-.36914-.12012-.50977-.35986c-.14014-.24023-.12939-.45947,.02979-.66016,1.03955-1.15967,1.96973-2.28027,2.79004-3.35986,.81934-1.08008,1.56934-2.06006,2.25-2.94043,.71973-.91943,1.38916-1.74902,2.00977-2.48975,.61963-.73975,1.25-1.38916,1.89014-1.9502,.6001-.55957,1.33984-.83984,2.22021-.83984,1.03955,0,1.97998,.35059,2.81982,1.0498,.83984,.70068,1.25977,1.51074,1.25977,2.43018,0,.80078-.41992,1.54053-1.25977,2.22021l-.2998,.23975c-.40039,.35986-.81006,.74072-1.22998,1.14014-.42041,.40039-.771,.83984-1.05029,1.31982-.44043,.9209-.92969,1.93066-1.46973,3.03027-.54004,1.10059-1.00049,2.18994-1.38037,3.27002-.38037,1.07959-.56982,2.04004-.56982,2.87988,0,.92041,.37988,1.37988,1.14014,1.37988,.35986,0,.79932-.09912,1.31982-.2998,1.23926-.51953,2.52002-1.33984,3.83984-2.45996,1.32031-1.11963,2.73975-2.65967,4.26025-4.62012,.12012-.15967,.25977-.24023,.41992-.24023,.24023,0,.43994,.11084,.6001,.33008,.15918,.22021,.13965,.43018-.06006,.62988-1.24023,1.60059-2.39062,2.90088-3.4502,3.90039-1.06006,1-2.29004,1.8999-3.68994,2.69971-.76025,.44092-1.42041,.76025-1.97998,.95996-.56055,.20068-1.06006,.30029-1.5,.30029Zm-.2998,3.65967c-1.96045,0-3.49023-.67969-4.59033-2.04004-1.10059-1.35938-1.57031-3.03906-1.40967-5.03955,.03906-.6001,.21924-1.44971,.54004-2.55029,.31934-1.09961,.729-2.21973,1.22998-3.35986,.49951-1.14014,1.00977-2.06982,1.52979-2.79004,.12012-.15918,.2793-.24023,.47998-.24023,.19971,0,.37988,.10059,.54004,.30029,.15967,.20068,.13965,.41992-.06006,.66016-.47998,.64014-.95068,1.5-1.40967,2.57959-.46045,1.08008-.84033,2.14062-1.14014,3.18018-.30029,1.04053-.4707,1.8208-.51025,2.33984-.11963,1.48047,.24023,2.82031,1.08008,4.02002,.84033,1.2002,2.1001,1.80029,3.78027,1.80029,1.03955,0,2.25928-.30957,3.65967-.93018,1.3999-.61963,2.91943-1.66943,4.56006-3.1499,.07959-.07959,.19971-.12012,.36035-.12012,.2793,0,.48926,.13037,.62988,.39014,.13965,.26074,.08984,.49023-.1499,.68994-1.7207,1.52051-3.35107,2.60986-4.89014,3.27002-1.54053,.66016-2.9502,.98975-4.22998,.98975Zm8.3999-24.41992c-.95996,0-1.78027-.33936-2.45996-1.02002-.68066-.67969-1.02002-1.5-1.02002-2.45996,0-.99951,.33936-1.83936,1.02002-2.52002,.67969-.67969,1.5-1.02002,2.45996-1.02002,.99951,0,1.83936,.34033,2.52002,1.02002,.67969,.68066,1.02002,1.52051,1.02002,2.52002,0,.95996-.34033,1.78027-1.02002,2.45996-.68066,.68066-1.52051,1.02002-2.52002,1.02002Zm0-1.19971c.67969,0,1.23926-.21973,1.68018-.66016,.43945-.43994,.65967-.97949,.65967-1.62012,0-.67969-.22021-1.23926-.65967-1.67969-.44092-.43994-1.00049-.66016-1.68018-.66016-.64014,0-1.18018,.22021-1.62012,.66016-.44043,.44043-.65967,1-.65967,1.67969,0,.64062,.21924,1.18018,.65967,1.62012,.43994,.44043,.97998,.66016,1.62012,.66016Z"/>
            <path class="cls-1" d="M239.73047,473.16995c-1.04053,0-2.09961-.15918-3.17969-.47998-1.08008-.31982-1.97998-.84912-2.7002-1.58984-.71973-.73975-1.08008-1.72998-1.08008-2.97021,0-.43945,.20068-.65967,.6001-.65967,.40039,0,.6001,.22021,.6001,.65967-.04053,.76025,.09912,1.37061,.41992,1.83008,.31982,.46045,.83984,.8501,1.56006,1.16992,.63916,.28027,1.29932,.49023,1.97998,.62988,.67969,.14062,1.27979,.21045,1.7998,.21045,1.52002,0,2.97949-.27979,4.38037-.84033,1.39941-.55957,2.69971-1.27979,3.8999-2.15967,.07959-.08008,.19971-.12012,.35986-.12012,.39941,0,.6001,.20068,.6001,.6001,0,.2002-.08057,.35986-.24023,.47998-1.24023,.95996-2.63965,1.73975-4.19971,2.33984s-3.16064,.8999-4.80029,.8999Zm-6.23975-10.5c-.24023,0-.35986-.13965-.35986-.41992,0-.31982,.14062-.67969,.41992-1.08008,1.11914-1.43994,2.35938-2.92969,3.71973-4.46973,1.35938-1.53955,2.88965-2.83984,4.59033-3.90039,1.69971-1.05908,3.58936-1.58984,5.66992-1.58984,1.15967,0,2.14941,.35986,2.96973,1.08008,.81934,.71973,1.22998,1.70068,1.22998,2.93994,0,.95996-.32959,1.91992-.98975,2.87988s-1.57031,1.43994-2.72998,1.43994c-.56055,0-1.15039-.17969-1.77002-.54004-.62061-.35986-.93018-.85938-.93018-1.5,0-.51904,.21924-.77979,.66016-.77979,.35986,0,.54004,.24023,.54004,.72021v.05957c0,.28076,.19971,.49072,.6001,.63037,.39941,.14062,.69922,.20996,.8999,.20996,.71973,0,1.31982-.33008,1.7998-.99023,.47998-.65967,.72021-1.36963,.72021-2.12988,0-.83984-.28027-1.51953-.84033-2.04004-.56055-.51953-1.28027-.77979-2.15967-.77979-1.84033,0-3.55029,.50049-5.12988,1.5-1.58105,1-3.03027,2.22998-4.3501,3.68994-1.32031,1.46045-2.54053,2.93066-3.66016,4.40967-.3208,.44092-.61963,.66016-.8999,.66016Zm6.12012,6.95996c-1.04102,0-1.96045-.31982-2.76025-.95996-.80078-.63916-1.19971-1.56006-1.19971-2.75977,0-.91992,.37939-2.02979,1.13965-3.33008,.75928-1.29932,1.70996-2.56982,2.8501-3.81006,1.14014-1.23926,2.32959-2.26953,3.56982-3.08984,1.23975-.81934,2.34033-1.22998,3.30029-1.22998,.55957,0,1.09961,.14062,1.62012,.41992,.51904,.28027,.77979,.74072,.77979,1.37988,0,.52051-.1001,.77979-.2998,.77979-.20068,0-.43066-.17969-.69043-.54004-.26025-.35986-.43018-.55957-.50977-.59961-.28027-.15967-.58008-.24023-.8999-.24023-.76025,0-1.68018,.38086-2.76025,1.14014-1.08008,.76025-2.15039,1.70068-3.20996,2.81982-1.06006,1.12061-1.94043,2.25-2.63965,3.39014-.70068,1.14014-1.05029,2.11035-1.05029,2.91016,0,.76025,.25977,1.37061,.78027,1.82959,.51904,.46045,1.1792,.69043,1.97998,.69043,2.47949,0,4.84961-.66943,7.10986-2.01025,2.25928-1.33984,4.12939-3.0498,5.60986-5.12988,.12012-.15967,.25977-.24023,.41992-.24023,.19971,0,.37988,.12012,.54004,.36035,.15967,.23975,.13965,.45996-.06006,.65967-1.52051,2.08057-3.47998,3.86084-5.87988,5.34033-2.3999,1.47998-4.97998,2.21973-7.73975,2.21973Z"/>
            <path class="cls-1" d="M252.75,462.25003c-.35986,0-.54004-.18018-.54004-.54004,0-.12012,.10059-.31982,.30029-.6001,1.03955-1.27979,2.23926-2.79932,3.59961-4.56006,1.35938-1.75928,2.71973-3.59961,4.08008-5.52002,.12012-.15918,.25977-.23975,.41992-.23975,.24023,0,.42969,.11035,.57031,.33008,.13965,.22021,.12939,.43018-.03027,.62988-1.36035,1.91992-2.7207,3.77051-4.08008,5.5498-1.35986,1.78027-2.62012,3.35059-3.77979,4.70996-.16016,.16064-.34033,.24023-.54004,.24023Zm4.80029,11.04004c-1.56006,0-2.81104-.4502-3.75-1.3501-.94043-.8999-1.37012-2.18994-1.29004-3.87012,0-.35986,.2002-.54004,.59961-.54004,.15967,0,.30957,.05078,.4502,.15039,.13965,.1001,.18945,.25,.1499,.44971-.04004,1.12061,.28955,2.07031,.99023,2.8501,.69922,.77979,1.72949,1.16992,3.08984,1.16992,.95996,0,2.06982-.24951,3.33008-.75,1.25977-.49951,2.62939-1.30957,4.10986-2.42969,.07959-.08008,.19971-.12012,.35986-.12012,.39941,0,.6001,.20068,.6001,.6001,0,.2002-.08057,.35986-.23975,.47998-1.48047,1.12012-2.95068,1.95996-4.41016,2.52002-1.46045,.56055-2.79004,.83984-3.98975,.83984Zm1.91992-3.6001c-1.48047,0-2.58008-.5791-3.30029-1.73975-.16016-.31982-.2998-.6499-.41992-.99023-.12012-.33936-.18018-.70947-.18018-1.10986,0-.67969,.16992-1.47021,.51025-2.37012,.33936-.8999,.88965-1.86914,1.6499-2.91016,.43994-.63916,1.08008-1.46973,1.91992-2.48975,.84033-1.02002,1.72998-2.1001,2.66992-3.24023,.93945-1.13965,1.74951-2.18994,2.43018-3.1499,0-.03955,.06934-.08984,.20996-.1499,.13965-.06006,.22998-.08984,.27002-.08984h5.16016c.39941,0,.6001,.2002,.6001,.59961,0,.40039-.20068,.6001-.6001,.6001h-4.85986c-.68066,.95996-1.47021,1.99023-2.37012,3.08984-.8999,1.10107-1.76074,2.15088-2.58008,3.15039-.82031,1-1.4502,1.7998-1.89014,2.3999-.68066,1.00049-1.16064,1.87012-1.43994,2.60986-.28027,.74072-.41992,1.39062-.41992,1.9502,0,.6001,.12012,1.08008,.35986,1.43994,.47998,.80078,1.23926,1.19971,2.28027,1.19971,1.03955,0,2.10938-.34961,3.20996-1.0498,1.09961-.69922,2.18994-1.59912,3.27002-2.7002,1.08008-1.09961,2.05957-2.25,2.93994-3.44971,.12012-.15967,.2793-.24023,.47998-.24023,.19971,0,.37939,.10059,.54004,.30029,.15918,.20068,.13965,.41992-.06006,.65967-1.48047,2.08057-3.16016,3.88037-5.04004,5.40039-1.88086,1.52051-3.66016,2.27979-5.33984,2.27979Zm7.73975-19.5c-.23975,0-.43018-.10986-.56982-.33008-.14062-.21924-.11084-.44971,.08984-.68994l4.26025-4.62012c.19971-.19971,.2998-.45898,.2998-.77979,0-.35986-.17041-.67969-.50977-.95996-.34033-.2793-.73047-.41992-1.17041-.41992-.3999,0-.82031,.17969-1.25977,.54004-.47998,.3999-1.2207,1.16064-2.22021,2.27979-1,1.12012-2.14014,2.45996-3.41992,4.02002,0,.04053-.06006,.08984-.17969,.1499-.12012,.06006-.20068,.09033-.24023,.09033h-4.73975c-.40039,0-.6001-.19971-.6001-.6001,0-.39941,.19971-.6001,.6001-.6001h4.43994c1.19971-1.51953,2.29932-2.82959,3.2998-3.93018,.99951-1.09961,1.74023-1.86914,2.22021-2.31006,.59961-.55957,1.29932-.83984,2.09961-.83984,.7998,0,1.47949,.25049,2.04004,.75,.56006,.50049,.84033,1.09033,.84033,1.77002,0,.6001-.20068,1.12012-.6001,1.56006-.08057,.12012-.35059,.44043-.81006,.95996-.46045,.52051-1.01074,1.12012-1.6499,1.7998-.64062,.68066-1.24023,1.34082-1.80029,1.97998-.11963,.12012-.26025,.18018-.41992,.18018Z"/>
            <path class="cls-1" d="M276.50928,470.04983c-.28027,0-.57031-.18896-.87012-.56982-.2998-.37988-.4502-.96924-.4502-1.77002,0-.83984,.18018-1.77002,.54004-2.79004,.36035-1.02002,.81006-2.04004,1.3501-3.06006s1.05957-1.91992,1.56006-2.69971c.49951-.78027,.88965-1.3501,1.16992-1.70996,.6001-.75977,1.11963-1.41943,1.56006-1.97998,.43945-.56006,.69922-.90039,.77979-1.02002,.39941-.56006,.6001-1.08008,.6001-1.56006,0-.6001-.27002-1.06982-.81006-1.41016-.54004-.33936-1.13037-.50977-1.77002-.50977-.68066,0-1.19971,.16016-1.55957,.47998-.56104,.52002-1.15039,1.13037-1.77002,1.82959-.62061,.70068-1.27051,1.51074-1.9502,2.43018-.72021,.92041-1.48047,1.90039-2.27979,2.93994-.80078,1.04053-1.7207,2.16016-2.76025,3.35986-.12012,.16064-.28027,.24023-.47998,.24023s-.36914-.10986-.50977-.33008c-.14014-.21924-.12939-.4292,.02979-.62988,1.03955-1.15967,1.96973-2.28027,2.79004-3.35986,.81934-1.08008,1.56934-2.06006,2.25-2.94043,.71973-.91943,1.38916-1.74902,2.00977-2.48975,.61963-.73975,1.25-1.38916,1.89014-1.9502,.55957-.51904,1.31982-.77979,2.28027-.77979,.95996,0,1.84961,.29053,2.66992,.87012,.81934,.58008,1.22998,1.33008,1.22998,2.25,0,.35986-.12012,.79004-.36035,1.29004-.23975,.50049-.80029,1.33008-1.67969,2.48975-2.16016,2.84082-3.62061,5.08057-4.37988,6.72021-.76074,1.64062-1.14014,3.1001-1.14014,4.37988,0,.6001,.12012,1.00049,.35986,1.2002,.15967,.11963,.24023,.28027,.24023,.47998,0,.3999-.18018,.59961-.54004,.59961Zm-1.2002,3.42041c-1.43994-.04053-2.59033-.54004-3.44971-1.5-.86084-.96045-1.29004-2.25977-1.29004-3.90039,0-.2793,.00928-.55957,.02979-.83984,.01953-.2793,.0498-.55957,.08984-.83984,.12012-.6001,.45947-1.53955,1.02002-2.82031,.56006-1.2793,1.29004-2.64941,2.18994-4.10986,.90039-1.45947,1.8501-2.72998,2.8501-3.81006,.12012-.15918,.25977-.23975,.41992-.23975,.24023,0,.42041,.11963,.54004,.35986,.12012,.23975,.08008,.46045-.11963,.66016-.96045,1.07959-1.86035,2.30957-2.7002,3.68994-.83984,1.37988-1.52979,2.66992-2.06982,3.86963-.54004,1.2002-.85059,2.06104-.93018,2.58008-.04053,.28027-.07031,.55029-.08984,.81006-.021,.26074-.03027,.51025-.03027,.75,0,1.40088,.35986,2.44043,1.08008,3.12012,.72021,.68066,1.59961,1.02002,2.64014,1.02002,1.27979,0,2.75977-.54004,4.43994-1.62012s3.31982-2.81982,4.91992-5.21973c.12012-.19971,.2793-.30029,.47998-.30029,.19971,0,.37988,.10059,.54004,.30029,.15918,.2002,.13965,.44043-.06006,.71973-1.68018,2.48047-3.44971,4.32031-5.31006,5.52002-1.85986,1.2002-3.59033,1.80029-5.18994,1.80029Zm3.6001-4.74023c-.40039,0-.6001-.19971-.6001-.6001,0-.23975,.12012-.41992,.35986-.54004,1.92041-1.03955,3.56006-2.45996,4.92041-4.25977,1.35938-1.80029,2.55908-3.73975,3.59961-5.82031,1.04004-2.0791,2.04004-4.02002,3-5.81982,.24023-.47998,.58984-.82959,1.05029-1.0498,.45947-.21973,.94971-.33008,1.46973-.33008,.91992,0,1.79004,.2998,2.61035,.8999,.81934,.6001,1.22998,1.36035,1.22998,2.27979,0,.68066-.26074,1.36035-.78027,2.04004-.12012,.16064-.28027,.24023-.47998,.24023-.20068,0-.37012-.09961-.50977-.2998-.14062-.19971-.13037-.42041,.02979-.66016,.35986-.47998,.54004-.93945,.54004-1.37988,0-.6001-.28027-1.05957-.83984-1.38037-.56055-.31934-1.12061-.47998-1.68018-.47998-.3208,0-.62988,.06006-.93018,.18018-.2998,.12012-.50977,.2998-.62988,.54004-1,1.88037-2.04004,3.89062-3.12012,6.02979-1.07959,2.14062-2.33057,4.13086-3.75,5.97021-1.41992,1.84033-3.1499,3.2998-5.18994,4.37988-.08057,.04053-.17969,.06006-.2998,.06006Zm9.06006,4.7998c-.76025,0-1.58057-.12988-2.45996-.38965-.88037-.25977-1.58057-.77002-2.1001-1.53027-.08057-.15918-.12012-.2793-.12012-.35986,0-.39941,.19971-.6001,.6001-.6001,.19971,0,.35986,.08057,.47998,.24023,.35986,.52002,.87939,.89062,1.56006,1.10986,.67969,.22021,1.35938,.33008,2.04004,.33008,1.03955,0,2.20947-.21924,3.50977-.66016,1.29932-.43945,2.61035-1.15967,3.93018-2.16016,.07959-.07959,.19971-.11963,.35986-.11963,.39941,0,.6001,.20068,.6001,.59961,0,.20068-.08057,.36035-.24023,.48047-1.40039,1.07959-2.81055,1.85986-4.22998,2.33984-1.41992,.47998-2.72998,.71973-3.92969,.71973Zm1.7998-3.47998c-.23975,0-.41992-.01953-.54004-.06006-.56055-.19922-.95068-.49951-1.16992-.8999-.22021-.39941-.33008-.85938-.33008-1.37988,0-.67969,.13965-1.38916,.41992-2.12988,.27979-.73975,.58984-1.44971,.93018-2.12988,.33936-.67969,.60938-1.2002,.81006-1.56006,.43945-.84033,.88965-1.68018,1.3501-2.52002,.45947-.84033,.88965-1.52002,1.29004-2.04004,.11963-.15967,.2793-.24023,.47998-.24023,.19971,0,.37939,.10059,.54004,.30029,.15918,.20068,.13965,.41992-.06006,.65967-.88037,1.16064-1.66064,2.43018-2.34033,3.81006-.68018,1.37988-1.31982,2.72998-1.91992,4.05029-.23975,.52002-.35986,1.06006-.35986,1.61963,0,.84033,.31982,1.26025,.95996,1.26025,.31982,0,.78027-.18018,1.37988-.54004,1.35938-.87939,2.58008-1.95947,3.66016-3.24023,1.08008-1.2793,2.11963-2.52002,3.12012-3.71973,.12012-.15967,.25977-.24023,.41992-.24023,.23975,0,.4292,.11084,.56982,.33008,.13965,.22021,.10986,.4502-.08984,.68994-.28027,.36035-.77051,.95996-1.47021,1.80029-.7002,.83984-1.51025,1.73975-2.42969,2.69971-.9209,.95996-1.84033,1.78027-2.76025,2.45996-.92041,.68066-1.73975,1.02002-2.45996,1.02002Z"/>
            <path class="cls-1" d="M298.04834,467.52981c-.24023,0-.42969-.11963-.57031-.35986-.13965-.23975-.08984-.45947,.15039-.66016,1.31982-1.2793,2.58008-2.70898,3.77979-4.28955,1.2002-1.58008,2.22949-3.03027,3.08984-4.3501,.85986-1.32031,1.38965-2.23975,1.59033-2.76025,.12012-.23975,.2998-.35986,.54004-.35986,.19971,0,.35986,.08057,.47998,.23975,.11963,.16064,.13965,.36035,.06006,.6001-.20068,.56055-.74072,1.521-1.62012,2.88037-.88037,1.35986-1.94092,2.84961-3.18018,4.46973-1.24023,1.62012-2.54053,3.08984-3.8999,4.41016-.12012,.12012-.25977,.17969-.41992,.17969Zm.41992-5.27979c-.19971,0-.36914-.09961-.50977-.2998-.14014-.19971-.12939-.42041,.02979-.66016,.91943-1.2002,1.83008-2.5293,2.72998-3.99023,.8999-1.45947,1.68018-2.81982,2.33984-4.07959,.66016-1.26025,1.11035-2.16943,1.3501-2.73047,.63965-1.55957,1.3999-2.66992,2.28027-3.32959,.87939-.66016,1.71924-.99023,2.52002-.99023,.87891,0,1.62891,.30029,2.25,.8999,.61963,.6001,.92969,1.36035,.92969,2.28027,0,.47998-.16016,1.08008-.47998,1.7998-.12012,.24023-.2998,.35986-.54004,.35986-.20068,0-.37012-.07959-.50977-.23975-.14062-.15918-.1499-.35986-.03027-.6001,.19971-.47998,.30029-.8999,.30029-1.25977,0-.56006-.18018-1.04004-.54004-1.43994-.36035-.39941-.82031-.6001-1.37988-.6001-.6001,0-1.23047,.28027-1.89014,.83984-.66016,.56055-1.27051,1.48047-1.83008,2.76025-.24023,.59961-.7002,1.54004-1.37988,2.81982-.68066,1.28076-1.48047,2.66064-2.3999,4.14014-.9209,1.47998-1.84033,2.84033-2.76025,4.07959-.12012,.16064-.28027,.24023-.47998,.24023Zm10.7998,11.58008c-1.36035,0-2.5498-.34033-3.56982-1.02002s-1.52979-1.81982-1.52979-3.41992c0-1.27979,.35986-2.68994,1.07959-4.22998,.72021-1.53955,1.56006-3.03955,2.52002-4.5,.95996-1.45996,1.81982-2.70947,2.58008-3.75,.12012-.15967,.2793-.24023,.47998-.24023,.19971,0,.37988,.10059,.54004,.30029,.15967,.2002,.13965,.41992-.06006,.65967-.68066,.95996-1.49023,2.14062-2.42969,3.54004-.94043,1.40088-1.76074,2.83057-2.45996,4.29004-.70068,1.46045-1.05029,2.77051-1.05029,3.93018,0,1.08008,.33008,1.88965,.99023,2.42969,.65967,.54004,1.54932,.81006,2.66992,.81006,1.43994,0,3.00928-.37939,4.70996-1.14014,1.69971-.75928,3.00928-1.71924,3.93018-2.87988,.11963-.15918,.2793-.23975,.47998-.23975,.19971,0,.37939,.11035,.54004,.33008,.15918,.22021,.13965,.43018-.06006,.62988-1.08008,1.28076-2.50049,2.3501-4.26025,3.20996-1.76074,.85986-3.46045,1.29004-5.1001,1.29004Zm2.94043-4.43994c-.52051,0-.96045-.12012-1.32031-.36035-.68066-.43945-1.02002-1.07959-1.02002-1.91992,0-.87939,.28955-1.83008,.87012-2.8501,.57959-1.02002,1.21973-1.97998,1.91992-2.87988,.69922-.8999,1.18994-1.60938,1.47021-2.12988,.31934-.51953,.63916-1.03955,.95996-1.56006,.31934-.51953,.47998-1.08008,.47998-1.68018,0-.31934-.10059-.64941-.30029-.98975-.2002-.33936-.62061-.63965-1.25977-.8999-.64014-.25977-1.66016-.39014-3.06006-.39014-.28027,0-.6001,.02051-.95996,.06006-.35986,.04004-.76025,.06006-1.2002,.06006h-.06006c-.3999,0-.59961-.19971-.59961-.6001,0-.39941,.17969-.6001,.54004-.6001,.31934-.03906,.65967-.06934,1.02002-.08984,.35986-.01953,.69922-.03027,1.02002-.03027,1.55957,0,2.96973,.23096,4.22998,.69043,1.25977,.45996,1.88965,1.33008,1.88965,2.60986,0,.80029-.28027,1.70068-.83984,2.69971-.72021,1.36035-1.55078,2.63086-2.49023,3.81006-.93994,1.18066-1.70996,2.47021-2.30957,3.87012-.04053,.12012-.07031,.24023-.09033,.35986-.02051,.12012-.02979,.24023-.02979,.36035,0,.52002,.15918,.87988,.47998,1.07959,.19971,.12012,.41992,.18018,.66016,.18018,.59961,0,1.3291-.28955,2.18994-.87012,.85938-.5791,1.73975-1.2793,2.63965-2.09961,.90039-.81982,1.70996-1.59961,2.43018-2.34033,.72021-.73975,1.21973-1.29004,1.5-1.6499,.12012-.15918,.25977-.24023,.41992-.24023,.19971,0,.37988,.11084,.54004,.33008,.15918,.2207,.13965,.4502-.06006,.68994-.44043,.56104-1.25977,1.43066-2.45996,2.61035-1.19971,1.18018-2.44043,2.27051-3.71973,3.27002-1.28076,1-2.44043,1.5-3.47998,1.5Z"/>
            <path class="cls-1" d="M327.20752,473.16995c-1.04053,0-2.09961-.15918-3.17969-.47998-1.08008-.31982-1.99023-.84912-2.72998-1.58984-.73975-.73975-1.11035-1.72998-1.11035-2.97021,0-.43945,.20068-.65967,.6001-.65967,.40039,0,.6001,.22021,.6001,.65967,0,.76025,.1499,1.36035,.4502,1.80029,.2998,.44043,.82959,.83984,1.58984,1.19971,.6001,.28027,1.24951,.49023,1.9502,.62988,.69922,.14062,1.30957,.21045,1.82959,.21045,1.47949,0,2.92969-.27979,4.3501-.84033,1.41943-.55957,2.72998-1.27979,3.93018-2.15967,.07959-.08008,.19971-.12012,.35986-.12012,.39941,0,.6001,.20068,.6001,.6001,0,.2002-.08057,.35986-.24023,.47998-1.28027,.95996-2.69043,1.73975-4.22998,2.33984-1.54004,.6001-3.13037,.8999-4.77002,.8999Zm1.68018-9.18018c-.72021,0-1.34082-.15918-1.85986-.47998-.24023-.11963-.36035-.2793-.36035-.47998,0-.19971,.09033-.36914,.27002-.50977,.18018-.13965,.39014-.1499,.63037-.03027,.47998,.20068,.91943,.30029,1.31982,.30029,.83984,0,1.75977-.24951,2.75977-.75,.99951-.49951,1.95947-1.14941,2.88037-1.9502,.91943-.79932,1.66943-1.65918,2.25-2.58008,.5791-.91943,.86963-1.7998,.86963-2.63965,0-1.63965-.83984-2.45996-2.51953-2.45996-1.88086,0-3.63037,.49023-5.25,1.46973-1.62012,.98096-3.10059,2.2002-4.44043,3.66016-1.34033,1.46045-2.53027,2.9502-3.56982,4.46973-.12012,.20068-.28027,.30029-.47998,.30029s-.36914-.09961-.50977-.30029c-.14014-.19971-.12939-.41992,.02979-.65967,1.03955-1.52002,2.25928-3.06006,3.66016-4.62012,1.39941-1.56006,2.98975-2.86963,4.77002-3.93018,1.7793-1.05908,3.70947-1.58984,5.79004-1.58984,1.07959,0,1.96924,.3208,2.66992,.95996,.69922,.64014,1.0498,1.54053,1.0498,2.7002,0,1.08008-.33008,2.15039-.98975,3.20996-.66016,1.06006-1.5,2.04004-2.52002,2.93994s-2.11035,1.62012-3.27002,2.16016c-1.16064,.54004-2.22021,.80957-3.18018,.80957Zm-1.37988,5.58008c-1.08008,0-2.07031-.2793-2.97021-.83984-.8999-.55957-1.3501-1.51953-1.3501-2.87988,0-1.11963,.40967-2.31934,1.22998-3.6001,.81982-1.27979,1.83936-2.50977,3.06006-3.68994,1.21973-1.17969,2.46973-2.20996,3.75-3.08984,1.27979-.87939,2.37939-1.45996,3.30029-1.74023,.03906,0,.06934-.00928,.08984-.02979,.01953-.02002,.0498-.03027,.08984-.03027,.39941,0,.6001,.22021,.6001,.66016,0,.23975-.14062,.41992-.41992,.54004-.88037,.28027-1.91064,.83984-3.08984,1.67969-1.18066,.84033-2.34033,1.81055-3.47998,2.91016-1.14014,1.10059-2.08057,2.21045-2.82031,3.33008-.74072,1.12012-1.10986,2.14014-1.10986,3.06006,0,.88037,.28955,1.52051,.87012,1.91992,.5791,.40039,1.3291,.6001,2.25,.6001,2.35938,0,4.74902-.63037,7.16992-1.89014,2.41943-1.25977,4.48975-3.00928,6.20996-5.25,.12012-.15918,.25977-.24023,.41992-.24023,.24023,0,.42969,.11084,.57031,.33008,.13965,.2207,.10938,.4502-.09033,.68994-1.7998,2.32031-3.98975,4.16064-6.56982,5.52002-2.58008,1.36035-5.15088,2.04004-7.70996,2.04004Z"/>
          </g>
          <g id="Available">
            <path class="cls-1" d="M366.68652,475.27005c-1.48047,0-3.05078-.1709-4.70996-.51025-1.66064-.34033-3.2207-.87988-4.68018-1.61963-1.46045-.73975-2.64941-1.71973-3.56982-2.93994-.91992-1.21973-1.38037-2.72998-1.38037-4.53027,0-2.11963,.51025-4.08008,1.53027-5.87988,1.02002-1.80029,2.3999-3.41992,4.14014-4.85986,1.73975-1.44043,3.70947-2.67041,5.90967-3.69043,2.19971-1.01953,4.50928-1.7998,6.93018-2.33984,2.41943-.54004,4.78955-.81006,7.10986-.81006,.75928,0,1.7793,.06006,3.06006,.18018,1.27979,.12012,2.62988,.34033,4.0498,.66016,1.41943,.32031,2.76953,.75,4.05029,1.29004,1.27979,.53955,2.31934,1.22998,3.12012,2.06982,.79932,.83984,1.19971,1.84033,1.19971,3,0,.16016-.01025,.31006-.02979,.44971-.021,.14062-.05078,.31055-.09033,.51025-.04004,.28027-.2002,.64014-.47998,1.08008-.28027,.44043-.71973,.65967-1.31982,.65967-.40039,0-.87012-.26953-1.41016-.80957s-.95068-.94971-1.22998-1.22998c-1.47998-1.35938-3.08984-2.34961-4.83008-2.97021-1.73975-.61963-3.65039-.93018-5.72998-.93018-3.11963,0-5.9502,.40039-8.48975,1.2002-2.54053,.80078-4.73047,1.85059-6.56982,3.1499-1.84033,1.30029-3.25049,2.69092-4.23047,4.16992-.98047,1.48047-1.46973,2.92041-1.46973,4.32031,0,1.64062,.7998,3.05029,2.3999,4.22998,1.59961,1.18018,4.14014,1.77002,7.62012,1.77002,2.35986,0,4.85986-.48975,7.5-1.47021,2.64014-.97949,5.28955-2.25928,7.94971-3.83984,2.66016-1.57959,5.19971-3.28955,7.62012-5.12988,2.41992-1.83936,4.59033-3.6001,6.51025-5.28027,.6001-.51953,1.50928-1.26953,2.72998-2.25,1.21973-.97949,2.61914-2.1001,4.19971-3.35986,1.58008-1.26025,3.21973-2.55029,4.92041-3.87012,1.69922-1.31982,3.33936-2.59961,4.91992-3.83984,1.57959-1.23926,2.98975-2.34033,4.22998-3.30029,1.23926-.95996,2.15967-1.67969,2.75977-2.15967,.07959-.08008,.19971-.12012,.35986-.12012,.39941,0,.6001,.22021,.6001,.66016,0,.16016-.08057,.2998-.23975,.41992-.6001,.47998-1.51025,1.19971-2.72998,2.15967-1.2207,.96045-2.62061,2.05029-4.2002,3.27002-1.58057,1.2207-3.22021,2.50049-4.91992,3.84033-1.70068,1.34033-3.34033,2.63037-4.91992,3.86963-1.58057,1.24072-2.98047,2.35059-4.2002,3.33008-1.2207,.98096-2.12988,1.73096-2.72998,2.25-1.91992,1.68018-4.10059,3.4502-6.54004,5.31006-2.44043,1.85986-5.02002,3.6001-7.73975,5.22021-2.7207,1.62012-5.45068,2.93994-8.18994,3.95996-2.74072,1.02002-5.37012,1.52979-7.89014,1.52979-1.68018,0-3.38086-.20996-5.1001-.62988-1.72021-.41992-3.1499-1.16992-4.29004-2.25s-1.70996-2.58008-1.70996-4.5c0-.31982,.01953-.6499,.06006-.98975,.03955-.33984,.09912-.69043,.18018-1.05029,.39941-1.91992,1.36963-3.61963,2.90967-5.1001,1.53955-1.479,3.39014-2.71973,5.55029-3.71973,2.15967-.99951,4.39941-1.74951,6.71973-2.25,2.31934-.5,4.45996-.75,6.41992-.75,2.67969,0,4.96973,.43018,6.87012,1.29004,1.89941,.86035,3.72949,2.16992,5.49023,3.92969,.11963,.08057,.25977,.20068,.41992,.36035,.15918,.16016,.31982,.28027,.47998,.35986,.23975,0,.41992-.2793,.54004-.83984,.03906-.12012,.06006-.24023,.06006-.36035v-.35986c0-.95996-.39014-1.7793-1.16992-2.45996-.78027-.67969-1.77002-1.23926-2.97021-1.68018-1.2002-.43945-2.45996-.78906-3.77979-1.0498-1.32031-.25977-2.55029-.4502-3.69043-.56982-1.13965-.12012-2.00977-.18018-2.60986-.18018-2.80029,0-5.63037,.39014-8.48975,1.16992-2.86035,.77979-5.49023,1.90039-7.89014,3.35986-2.3999,1.46094-4.33057,3.19043-5.79004,5.18994-1.45947,2.00098-2.18994,4.2002-2.18994,6.6001,0,1.48047,.39014,2.76025,1.16992,3.84033,.77979,1.07959,1.80957,1.95996,3.08984,2.63965,1.27979,.68066,2.68994,1.17969,4.22998,1.5,1.53955,.31982,3.06934,.47998,4.59033,.47998,2.55908,0,5.12988-.38965,7.70996-1.16992,2.58008-.77979,5.10938-1.80908,7.58984-3.08984,2.47949-1.27979,4.7998-2.66992,6.95996-4.16992s4.09961-2.98975,5.82031-4.47021c.19922-.07959,.31934-.12012,.35986-.12012h10.56006c.39941,0,.59961,.20068,.59961,.6001,0,.40039-.2002,.6001-.59961,.6001h-10.32031c-1.72021,1.48047-3.68066,2.98047-5.87988,4.5-2.2002,1.52051-4.56006,2.92041-7.08008,4.2002-2.52002,1.28027-5.11035,2.31934-7.77002,3.11963-2.66064,.7998-5.31006,1.2002-7.94971,1.2002Zm12.71973-32.87988c-.64014,0-1.0498-.2793-1.22998-.84033-.17969-.55957-.23047-1.07959-.1499-1.56006,.35986-1.75928,1.30957-3.26953,2.8501-4.52979,1.53906-1.25977,3.47998-2.28955,5.81982-3.08984,2.33984-.7998,4.90967-1.3999,7.70996-1.80029,2.79932-.39941,5.65967-.59961,8.58008-.59961,.39941,0,1.27979,.01025,2.64014,.02979,1.35938,.02051,2.98975,.08984,4.89014,.20996,1.89893,.12012,3.84912,.31055,5.84961,.56982,2,.26074,3.87939,.63037,5.64014,1.11035,1.75977,.47998,3.18896,1.09033,4.28955,1.83008,1.10059,.74023,1.65039,1.6499,1.65039,2.72998,0,.44043-.08008,.83984-.24023,1.19971-.12012,.24023-.2998,.35986-.54004,.35986-.16016,0-.30957-.07959-.44922-.23975-.14062-.15918-.1709-.35986-.09082-.6001,.08008-.12012,.12012-.23975,.12012-.35986v-.35986c0-.84033-.52051-1.5498-1.55957-2.13037-1.04102-.5791-2.40039-1.05908-4.08008-1.43994-1.68018-.37939-3.47998-.68994-5.3999-.92969-1.92041-.24023-3.78027-.40967-5.58008-.51025-1.80029-.09912-3.35059-.16943-4.6499-.20996-1.30029-.03955-2.13037-.06006-2.49023-.06006-3,0-5.86035,.20068-8.58008,.6001-2.7207,.40039-5.15967,.98047-7.31982,1.73975-2.16016,.76074-3.93018,1.70068-5.31006,2.82031-1.37988,1.12012-2.23047,2.42041-2.5498,3.8999,0,.04053-.01074,.1001-.03027,.18018-.02051,.08057-.02979,.16016-.02979,.23975,0,.35986,.07959,.54004,.23975,.54004,.2793,0,.58984-.15918,.93018-.47998,.33936-.31982,.58984-.57959,.75-.77979,1.95947-2,4.08008-3.4502,6.35986-4.3501,2.28027-.8999,4.62012-1.47021,7.02002-1.70996,2.3999-.24023,4.74023-.36035,7.02002-.36035,3.31982,0,6.03955,.11084,8.16016,.33008,2.11963,.22021,3.81934,.47998,5.1001,.78027,1.2793,.2998,2.31934,.56982,3.11963,.81006,.2793,.11963,.41992,.2998,.41992,.54004,0,.2002-.08057,.37012-.23975,.50977-.16016,.14062-.34033,.19043-.54004,.1499-.76025-.23975-1.76074-.50977-3-.81006-1.24023-.2998-2.90039-.55957-4.97998-.77979-2.08008-.21924-4.76074-.33008-8.04004-.33008-2.56006,0-4.99023,.14062-7.29004,.41992-2.30078,.28027-4.5,.88037-6.6001,1.80029-2.09961,.92041-4.13037,2.36035-6.08984,4.31982-.28027,.28027-.59082,.54004-.93018,.77979-.34033,.24023-.72998,.36035-1.16992,.36035Zm22.68018,16.91992c-.56055,0-1.13086-.00928-1.70996-.03027-.58057-.01953-1.19092-.02979-1.83008-.02979-.40039,0-.6001-.19971-.6001-.6001,0-.39941,.19971-.6001,.6001-.6001,.51953,0,1.05957,.01025,1.62012,.03027,.55957,.02051,1.11914,.02979,1.67969,.02979,.6001,0,1.20947-.01953,1.83008-.06006,.61963-.03906,1.22998-.13965,1.83008-.2998,.7998-.19971,1.51953-.51953,2.16016-.95996,.63916-.43994,1.29932-1.14014,1.97998-2.1001,1.35938-1.83936,2.71973-3.63916,4.08008-5.3999,1.35938-1.75977,2.60986-3.31982,3.75-4.68018,1.13965-1.35938,2.04932-2.35938,2.72998-3,.11963-.12012,.25928-.17969,.41992-.17969,.19971,0,.36914,.11963,.50977,.35986,.13965,.23975,.09033,.46045-.1499,.66016-.64014,.64014-1.52051,1.62988-2.64014,2.96973-1.12012,1.34082-2.3501,2.87988-3.68994,4.62012-1.34033,1.73975-2.69043,3.53076-4.0498,5.37012-1.24023,1.72021-2.56055,2.80029-3.95996,3.23975-1.40088,.44092-2.92041,.66016-4.56006,.66016Zm-.66016-2.7002c-.40039,0-.6001-.19971-.6001-.6001,0-.19971,.08008-.35986,.24023-.47998,.91943-.75928,2.13916-1.77002,3.66016-3.02979,1.51953-1.26025,3.10938-2.59961,4.77002-4.02002,1.65918-1.41943,3.16943-2.70947,4.52979-3.87012,.07959-.07959,.19971-.12012,.35986-.12012,.43994,0,.66016,.2207,.66016,.66016,0,.12012-.08057,.26074-.24023,.41992-1.35986,1.16064-2.87061,2.44043-4.52979,3.84033-1.66016,1.40039-3.25049,2.72998-4.77002,3.98975-1.52051,1.26025-2.75977,2.29053-3.72021,3.08984-.08057,.08105-.2002,.12012-.35986,.12012Zm9.41992,16.91992c-.83984,0-1.79053-.17969-2.84961-.54004-1.06055-.35986-1.97998-.95996-2.76025-1.7998-.77979-.83984-1.16992-1.97998-1.16992-3.41992,0-.43994,.03955-.87939,.12012-1.31982,.07959-.43994,.19971-.91992,.35986-1.44043,.12012-.2793,.2998-.41992,.54004-.41992,.19971,0,.36914,.07031,.50977,.20996,.13965,.14062,.16992,.33008,.09033,.57031-.28027,.83984-.41992,1.61963-.41992,2.33984,0,1.16064,.2998,2.08057,.8999,2.76025,.6001,.68018,1.33936,1.16016,2.21973,1.43994,.87939,.28027,1.69971,.41992,2.45996,.41992,1.47949,0,2.97949-.33936,4.5-1.02002,1.52002-.67969,2.97949-1.47949,4.38037-2.3999,.15918-.08008,.25928-.12012,.2998-.12012,.19971,0,.34961,.07031,.4502,.20996,.09912,.14062,.1499,.29053,.1499,.4502,0,.2002-.08057,.35986-.24023,.47998-1.43994,.92041-2.97998,1.75-4.61963,2.48975-1.64062,.74072-3.28076,1.10986-4.92041,1.10986Zm2.52002-4.5c-1.28027,0-2.18066-.30908-2.69971-.92969-.52051-.61963-.78027-1.38965-.78027-2.31006,0-1.08008,.22998-2.23975,.68994-3.47998,.45947-1.23926,.96973-2.3999,1.53027-3.47998,.55957-1.08008,.99951-1.87988,1.31982-2.3999,.7998-1.35938,1.81982-2.95996,3.06006-4.80029,1.23926-1.83936,2.56982-3.71973,3.99023-5.64014,1.41895-1.91992,2.74951-3.67969,3.99023-5.27979,.11914-.15918,.2793-.23975,.47949-.23975s.37988,.11035,.54004,.32959c.15918,.2207,.13965,.43066-.05957,.63037-.20117,.23975-.69043,.86035-1.46973,1.85986-.78076,1.00049-1.71045,2.23047-2.79053,3.68994-1.08008,1.46045-2.20068,3.06006-3.36035,4.7998-1.16064,1.74023-2.25,3.47998-3.27002,5.22021-1.01953,1.73975-1.85059,3.35986-2.48975,4.85986-.64014,1.5-.95996,2.75098-.95996,3.75,0,1.48047,.75928,2.22021,2.27979,2.22021,1.11963,0,2.38965-.27002,3.81006-.81006,1.41943-.54004,2.82959-1.30957,4.22998-2.31006,1.3999-.99951,2.59961-2.13916,3.60059-3.41992,.11914-.15967,.2793-.24023,.47949-.24023s.36914,.12012,.50977,.36035c.13965,.23975,.11035,.45996-.08984,.65967-1,1.32031-2.24072,2.51074-3.71973,3.57031-1.48047,1.06006-2.99072,1.88965-4.53027,2.48975-1.54004,.6001-2.96973,.8999-4.29004,.8999Z"/>
            <path class="cls-1" d="M425.06543,467.52981c-.24023,0-.42969-.11963-.57031-.35986-.13965-.23975-.08984-.45947,.15039-.66016,1.51953-1.479,2.68945-2.85938,3.50977-4.13965,.81934-1.27979,1.72949-2.79932,2.73047-4.56006,.11914-.19971,.2998-.30029,.54004-.30029,.19922,0,.37891,.09033,.54004,.27002,.15918,.18018,.15918,.39014,0,.63037-1.00098,1.7998-1.94141,3.35986-2.82031,4.67969-.88086,1.32031-2.10059,2.74023-3.66016,4.26025-.12012,.12012-.25977,.17969-.41992,.17969Zm10.25977,2.45996c-1.04004,0-1.76953-.34961-2.18945-1.0498-.41992-.69922-.63086-1.60986-.63086-2.72998,0-1.11914,.16016-2.35986,.48047-3.72021,.31934-1.35938,.70996-2.6792,1.16992-3.95996,.45898-1.2793,.90039-2.38965,1.32031-3.32959,.41992-.93945,.70898-1.5498,.87012-1.83008,.35938-.6001,.54004-1.15967,.54004-1.68018,0-.51953-.16113-.93945-.48047-1.25977-.32031-.31982-.74023-.47998-1.25977-.47998-.52051,0-1.11035,.22021-1.77051,.65967-.65918,.44092-1.26953,1.18066-1.83008,2.22021-.75977,1.36035-1.58984,2.87988-2.48926,4.56006-.90039,1.67969-1.93066,3.22021-3.08984,4.61963-.16113,.16064-.34082,.24023-.54004,.24023-.2002,0-.36035-.09961-.48047-.2998-.12012-.19971-.09961-.42041,.05957-.66016,1.16016-1.3999,2.16992-2.91943,3.03027-4.56006,.86035-1.63965,1.66992-3.13965,2.43066-4.5,.71973-1.27979,1.48926-2.18994,2.30957-2.72998,.81934-.54004,1.60938-.81006,2.37012-.81006,.83984,0,1.53906,.28027,2.09961,.83984,.55957,.56104,.83984,1.28076,.83984,2.16016,0,.72021-.23926,1.48047-.71973,2.28027-.12012,.23975-.38086,.80957-.78027,1.70996-.40039,.8999-.83008,1.99023-1.29004,3.27002-.45996,1.28027-.84961,2.57031-1.16992,3.86963-.32031,1.30029-.47949,2.45068-.47949,3.4502,0,.76025,.12891,1.37061,.38965,1.83008,.25977,.45996,.69043,.68994,1.29004,.68994,.2793,0,.81055-.27002,1.58984-.81006,.78027-.54004,1.37012-1.12988,1.77051-1.77002,.12012-.19971,.2998-.2998,.54004-.2998,.19922,0,.36914,.08984,.50977,.27002,.13965,.17969,.15039,.38965,.03027,.62988-.28027,.52002-.7002,1.02002-1.26074,1.5s-1.12988,.88037-1.70996,1.19971c-.58008,.3208-1.07031,.47998-1.46973,.47998Zm-1.62012,3.48047c-1.31934,0-2.39062-.31982-3.20996-.96045-.82031-.63916-1.41016-1.45947-1.76953-2.45996-.36035-.99902-.52051-1.99951-.48047-3,0-.39941,.2002-.59961,.60059-.59961,.39941,0,.59961,.2002,.59961,.59961-.04004,1.40088,.29004,2.62061,.99023,3.66016,.69922,1.04053,1.78906,1.56006,3.26953,1.56006,1.51953,0,2.85938-.40967,4.02051-1.22998,1.15918-.81934,2.23926-1.84961,3.24023-3.08984,.11914-.15967,.2793-.24023,.47949-.24023s.37988,.11084,.54004,.33008c.15918,.22021,.13965,.43018-.05957,.62988-1.08008,1.31982-2.27148,2.45068-3.57031,3.39014-1.30078,.94043-2.85059,1.41016-4.65039,1.41016Zm11.16016-6.18018c-1.88086,0-3.1709-.57959-3.87012-1.74023-.7002-1.15967-1.0498-2.47949-1.0498-3.95996,0-1.15967,.13965-2.31934,.41992-3.47998,.2793-1.15967,.62012-2.13916,1.02051-2.93994,.43945-.91943,.98926-1.62939,1.64941-2.12988,.66016-.49951,1.30957-.75,1.9502-.75,.63965,0,1.17969,.26074,1.62012,.77979,.43945,.52051,.66016,1.34082,.66016,2.45996,0,.3208-.03027,.68066-.08984,1.08008-.06055,.40039-.13086,.82031-.20996,1.26025-.24023,1.08008-.57031,2.14014-.99023,3.17969-.41992,1.04102-.83105,1.90039-1.23047,2.58008-.08008,.20068-.26074,.30029-.54004,.30029-.2002,0-.37988-.09033-.54004-.27002-.16016-.18018-.16016-.39014,0-.63037,.36035-.59961,.75-1.39941,1.16992-2.3999,.41992-.99951,.75-1.99951,.99023-3,.08008-.43945,.15039-.83984,.20996-1.19971,.06055-.36035,.08984-.67969,.08984-.95996,0-.67969-.12012-1.17969-.35938-1.5-.24023-.31982-.52051-.48047-.83984-.48047-.40039,0-.83105,.19043-1.29004,.57031-.46094,.38037-.85059,.91016-1.16992,1.58984-.32129,.68066-.63086,1.57031-.93066,2.66992-.2998,1.10059-.4502,2.18994-.4502,3.27002,0,1.2002,.27051,2.25,.81055,3.1499,.54004,.90039,1.53027,1.3501,2.96973,1.3501,.71973,0,1.53906-.24902,2.45996-.75,.91992-.49951,1.82031-1.11914,2.7002-1.85986,.87891-.73975,1.63965-1.47021,2.28027-2.18994,.12012-.15967,.2793-.24023,.47949-.24023s.36914,.12012,.50977,.36035c.13965,.23975,.11035,.45996-.08984,.65967-.63965,.68066-1.43945,1.43066-2.39941,2.25-.95996,.82031-1.96094,1.521-3,2.1001-1.04102,.58057-2.02051,.87012-2.94043,.87012Z"/>
            <path class="cls-1" d="M456.50391,473.47024c-1.31934,0-2.48926-.43994-3.50977-1.32031-1.01953-.87939-1.48926-2.23975-1.41016-4.08008,0-.35986,.20117-.54004,.60059-.54004,.16016,0,.30957,.05078,.44922,.15039,.14062,.1001,.18945,.25,.15039,.44971-.03906,1.43994,.31934,2.49023,1.08008,3.1499,.75977,.66016,1.63965,.99023,2.63965,.99023,.7998,0,1.59961-.18945,2.40039-.56982,.7998-.37988,1.45996-.93018,1.97949-1.65039,.12012-.15918,.2793-.23975,.48047-.23975,.19922,0,.37988,.1001,.54004,.2998,.15918,.20068,.13965,.41992-.06055,.66016-.63965,.88037-1.43945,1.55078-2.39941,2.00977-.95996,.45947-1.94043,.69043-2.94043,.69043Zm-3.71973-11.16016c-.19922,0-.36914-.09961-.50977-.30029-.13965-.19971-.12988-.41992,.0293-.65967,.67969-.95996,1.4707-2.01025,2.37012-3.1499,.90039-1.14014,1.91016-2.22021,3.03027-3.24023,1.11914-1.02002,2.31934-1.85986,3.59961-2.52002s2.62012-.98975,4.02051-.98975c.43945,0,.87891,.05029,1.32031,.1499,.43945,.1001,.85938,.23047,1.25977,.38965,.24023,.12012,.36035,.30029,.36035,.54004,0,.16064-.08105,.31055-.24023,.4502-.16016,.14062-.36035,.17041-.60059,.08984-.23926-.07959-.45996-.13965-.65918-.17969-.20117-.08008-.4209-.13965-.66016-.18018-.24023-.03955-.50098-.06006-.78027-.06006-1.64062,0-3.2002,.50049-4.67969,1.5-1.48047,1.00049-2.85059,2.22021-4.11035,3.66016s-2.35059,2.84033-3.26953,4.19971c-.12012,.20068-.28125,.30029-.48047,.30029Zm4.55957,7.37988c-.95996,0-1.58984-.39014-1.88965-1.16992-.2998-.78027-.4502-1.42969-.4502-1.9502,0-.99902,.33984-2.17969,1.02051-3.54004,.67969-1.35938,1.55957-2.69971,2.63965-4.02002,1.08008-1.31982,2.24023-2.41943,3.48047-3.2998,1.23926-.87939,2.41895-1.31982,3.54004-1.31982,.55957,0,.83984,.20068,.83984,.59961,0,.16064-.06055,.31055-.18066,.4502-.11914,.14062-.28027,.19043-.47949,.1499-.88086-.07959-1.87012,.27002-2.96973,1.05029-1.10059,.77979-2.16016,1.78027-3.18066,3-1.01953,1.2207-1.85938,2.45068-2.51953,3.68994-.66016,1.24023-.99023,2.32031-.99023,3.23975,0,.56055,.09961,1.02002,.2998,1.38037,.2002,.35986,.48047,.53955,.83984,.53955,.67969,0,1.4707-.40967,2.37012-1.22998,.90039-.81934,1.83008-1.85986,2.79004-3.11963,.95996-1.26025,1.89062-2.58008,2.79004-3.95996,.90039-1.38037,1.7002-2.64014,2.40039-3.78027,.69922-1.14014,1.22949-1.98926,1.58984-2.5498,.75977-1.11963,1.51953-1.90967,2.28027-2.37012,.75879-.45947,1.45898-.68994,2.09961-.68994,.71973,0,1.30957,.22021,1.77051,.66016,.45898,.44043,.68945,1,.68945,1.67969,0,.6001-.21973,1.24023-.66016,1.91992-.32031,.47998-.83984,1.27051-1.55957,2.37012-.71973,1.10059-1.46094,2.28027-2.21973,3.54004-.76074,1.26025-1.40137,2.41016-1.91992,3.4502-.56152,1.19971-.84082,2.15967-.84082,2.87988,0,.80078,.39941,1.19971,1.2002,1.19971,.71973,0,1.53027-.23975,2.42969-.71973,.90039-.47998,1.80957-1.09961,2.73047-1.85986,.91992-.75977,1.7793-1.5498,2.58008-2.37012,.7998-.81934,1.45996-1.56934,1.97949-2.25,.12012-.15967,.25977-.24023,.4209-.24023,.23926,0,.42871,.11084,.56934,.33008,.13965,.22021,.12988,.43018-.03027,.62988-.51953,.76074-1.22949,1.58105-2.12988,2.46045-.89941,.87988-1.87012,1.72021-2.90918,2.51953-1.04102,.80078-2.08105,1.45068-3.12012,1.9502-1.04102,.50049-1.96094,.75-2.76074,.75-.75977,0-1.31055-.21924-1.64941-.66016-.34082-.43945-.50977-.99902-.50977-1.67969,0-.84033,.23926-1.80029,.71973-2.87988,.51953-1.11963,1.16992-2.34961,1.9502-3.69043,.7793-1.33936,1.55957-2.59961,2.33984-3.77979,.78027-1.1792,1.36914-2.06982,1.76953-2.66992,.2793-.39941,.41992-.7998,.41992-1.2002,0-.75928-.40039-1.14014-1.19922-1.14014-.44141,0-.9707,.20068-1.59082,.6001-.62012,.40039-1.25,1.06055-1.88965,1.97998-.87988,1.32031-1.85059,2.84082-2.91016,4.56006-1.06055,1.72021-2.12988,3.34033-3.20996,4.85986-1.08008,1.48047-2.18945,2.80078-3.33008,3.96045-1.13965,1.16064-2.29004,1.73975-3.4502,1.73975Zm10.62012,3.83984c-1.7998,0-3.08984-.48926-3.87012-1.46973-.7793-.97998-1.16992-2.04932-1.16992-3.20996,0-.95996,.24023-1.87988,.7207-2.76025,.12012-.19971,.2998-.2998,.54004-.2998,.19922,0,.36914,.08984,.50977,.27002,.13965,.17969,.14941,.39014,.03027,.62988-.40039,.72021-.60059,1.43994-.60059,2.16016,0,.88037,.2998,1.67969,.90039,2.3999,.59961,.72021,1.5791,1.08008,2.93945,1.08008,1.51953,0,2.9707-.33008,4.35059-.99023,1.37988-.65967,2.68945-1.44922,3.92969-2.36963,.08008-.08008,.2002-.12012,.36035-.12012,.39941,0,.59961,.20068,.59961,.6001,0,.2002-.08008,.35986-.24023,.47998-1.28027,.95996-2.66016,1.7998-4.13965,2.52002-1.48047,.71973-3.10059,1.07959-4.86035,1.07959Z"/>
            <path class="cls-1" d="M488.72461,469.87014c-.76074,0-1.29004-.2793-1.59082-.84033-.2998-.55957-.44922-1.1792-.44922-1.85986,0-.55957,.13965-1.35938,.41992-2.3999,.2793-1.03955,.66895-2.16943,1.16992-3.39014,.49902-1.21973,1.06934-2.35938,1.70996-3.41992,.63965-1.05957,1.29883-1.90967,1.97949-2.5498,.36035-.36035,.74023-.67969,1.14062-.95996,.39941-.56006,.59961-1.08008,.59961-1.56006,0-.6001-.26953-1.06982-.80957-1.41016-.54004-.33936-1.13086-.50977-1.77051-.50977-.68066,0-1.2002,.16016-1.55957,.47998-.56055,.52002-1.15039,1.13037-1.77051,1.82959-.62012,.70068-1.27051,1.51074-1.9502,2.43018-.71973,.92041-1.47949,1.91064-2.2793,2.97021-.80078,1.06006-1.7207,2.18994-2.75977,3.38965-.12012,.16064-.28125,.24023-.48047,.24023s-.36914-.12012-.50977-.35986c-.13965-.24023-.12988-.45947,.0293-.66016,1.04004-1.15967,1.96973-2.28027,2.79004-3.35986,.81934-1.08008,1.56934-2.06006,2.25-2.94043,.7207-.91943,1.38965-1.74902,2.01074-2.48975,.61914-.73975,1.24902-1.38916,1.88965-1.9502,.59961-.55957,1.33984-.83984,2.21973-.83984,1.04004,0,1.98047,.35059,2.82031,1.0498,.83984,.70068,1.25977,1.51074,1.25977,2.43018,0,.80078-.41992,1.54053-1.25977,2.22021l-.2998,.23975c-.40039,.35986-.81055,.74072-1.23047,1.14014-.41992,.40039-.77051,.83984-1.0498,1.31982-.44043,.9209-.92969,1.93066-1.46973,3.03027-.54004,1.10059-1.00098,2.18994-1.37988,3.27002-.38086,1.07959-.57031,2.04004-.57031,2.87988,0,.92041,.37988,1.37988,1.13965,1.37988,.36035,0,.7998-.09912,1.32031-.2998,1.23926-.51953,2.52051-1.33984,3.83984-2.45996,1.32031-1.11963,2.73926-2.65967,4.25977-4.62012,.12012-.15967,.25977-.24023,.4209-.24023,.23926,0,.43945,.11084,.59961,.33008,.15918,.22021,.13965,.43018-.06055,.62988-1.24023,1.60059-2.39062,2.90088-3.44922,3.90039-1.06055,1-2.29102,1.8999-3.69043,2.69971-.75977,.44092-1.41992,.76025-1.97949,.95996-.56055,.20068-1.06055,.30029-1.5,.30029Zm-.30078,3.65967c-1.95996,0-3.49023-.67969-4.58984-2.04004-1.10059-1.35938-1.57031-3.03906-1.41016-5.03955,.04004-.6001,.21973-1.44971,.54004-2.55029,.32031-1.09961,.72949-2.21973,1.23047-3.35986,.5-1.14014,1.00977-2.06982,1.53027-2.79004,.11914-.15918,.2793-.24023,.47949-.24023s.37988,.10059,.54004,.30029c.15918,.20068,.13965,.41992-.05957,.66016-.48047,.64014-.95117,1.5-1.41016,2.57959-.46094,1.08008-.83984,2.14062-1.14062,3.18018-.2998,1.04053-.46973,1.8208-.50977,2.33984-.12012,1.48047,.24023,2.82031,1.08008,4.02002,.83984,1.2002,2.10059,1.80029,3.78027,1.80029,1.03906,0,2.25879-.30957,3.66016-.93018,1.39941-.61963,2.91895-1.66943,4.55957-3.1499,.08008-.07959,.2002-.12012,.36035-.12012,.2793,0,.48926,.13037,.62988,.39014,.13965,.26074,.08984,.49023-.15039,.68994-1.71973,1.52051-3.35059,2.60986-4.88965,3.27002-1.54004,.66016-2.9502,.98975-4.23047,.98975Zm8.40039-24.41992c-.95996,0-1.78027-.33936-2.45996-1.02002-.68066-.67969-1.02051-1.5-1.02051-2.45996,0-.99951,.33984-1.83936,1.02051-2.52002,.67969-.67969,1.5-1.02002,2.45996-1.02002,.99902,0,1.83984,.34033,2.51953,1.02002,.67969,.68066,1.02051,1.52051,1.02051,2.52002,0,.95996-.34082,1.78027-1.02051,2.45996-.67969,.68066-1.52051,1.02002-2.51953,1.02002Zm0-1.19971c.67969,0,1.23926-.21973,1.67969-.66016,.44043-.43994,.66016-.97949,.66016-1.62012,0-.67969-.21973-1.23926-.66016-1.67969-.44043-.43994-1-.66016-1.67969-.66016-.64062,0-1.18066,.22021-1.62012,.66016-.44043,.44043-.66016,1-.66016,1.67969,0,.64062,.21973,1.18018,.66016,1.62012,.43945,.44043,.97949,.66016,1.62012,.66016Z"/>
            <path class="cls-1" d="M504.50293,473.23001c-2,0-3.68945-.4292-5.06934-1.29004-1.37988-.85986-2.07031-2.12988-2.07031-3.81006,0-.43945,.2002-.65967,.59961-.65967,.40039,0,.60059,.22021,.60059,.65967,0,1.12061,.58984,2.05029,1.76953,2.79004,1.17969,.74072,2.69043,1.10986,4.53027,1.10986,1.51953,0,3.18945-.31934,5.00977-.95996,1.82031-.63916,3.60938-1.69971,5.37012-3.17969,.08008-.08008,.2002-.12012,.36035-.12012,.39941,0,.59961,.20068,.59961,.6001,0,.20068-.08008,.35986-.24023,.47998-1.71973,1.47998-3.59961,2.58008-5.63965,3.2998-2.04004,.72021-3.98047,1.08008-5.82031,1.08008Zm-5.63965-10.91992c-.19922,0-.36914-.12012-.50977-.35986-.13965-.24023-.12988-.45947,.0293-.66016,.7998-.91992,1.54004-1.87988,2.2207-2.87988,.67969-.99951,1.33984-2,1.97949-3,1.08008-1.59961,2.26953-3.31982,3.57031-5.16016,1.2998-1.83936,2.7002-3.66016,4.2002-5.45996,1.5-1.80029,3.0498-3.4502,4.64941-4.9502s3.21973-2.70947,4.86035-3.62988c1.39941-.75928,2.61914-1.14014,3.66016-1.14014,1.03906,0,1.83008,.33008,2.37012,.99023s.80957,1.51025,.80957,2.5498c0,.47998-.05078,.97021-.14941,1.47021-.10059,.50049-.27051,1.03027-.51074,1.58984-.12012,.28027-.56934,.89062-1.34961,1.83008-.78027,.94043-1.75,2.08008-2.91016,3.41992-1.16016,1.34082-2.39062,2.72998-3.68945,4.16992-1.30078,1.43994-2.55078,2.82031-3.75,4.14014-1.2002,1.31982-2.23047,2.42041-3.09082,3.2998-.86035,.88037-1.40918,1.42041-1.64941,1.62012-.12012,.12012-.24023,.18018-.36035,.18018-.44043,0-.66016-.24023-.66016-.72021,0-.12012,.08008-.25977,.24023-.41992,.24023-.19971,.78027-.73975,1.62012-1.62012,.83984-.87939,1.86035-1.95898,3.05957-3.23975,1.2002-1.27979,2.43945-2.62988,3.7207-4.05029,1.2793-1.41895,2.48926-2.7793,3.62988-4.07959,1.13965-1.2998,2.08984-2.40967,2.84961-3.33008,.75977-.91992,1.17969-1.47949,1.25977-1.68018,.39941-.91943,.60059-1.7998,.60059-2.64014,0-.67969-.1709-1.22998-.50977-1.6499-.34082-.41992-.85059-.62988-1.53027-.62988-.83984,0-1.86035,.34033-3.06055,1.02002-1.55957,.88037-3.11914,2.05029-4.67969,3.50977-1.55957,1.46094-3.08008,3.08057-4.55957,4.86035-1.48047,1.78027-2.86035,3.56982-4.14062,5.36963-1.28027,1.80029-2.44043,3.47998-3.47949,5.04004-.68066,1.00049-1.36035,2.02051-2.04004,3.06006-.68066,1.04053-1.4209,2.02051-2.21973,2.93994-.12012,.16064-.28125,.24023-.48047,.24023Zm6.17969,7.19971c-1.24023,0-2.11035-.25928-2.60938-.77979-.50098-.51953-.75-1.15967-.75-1.91992,0-.7998,.18945-1.66992,.56934-2.60986,.37988-.93945,.77051-1.74951,1.16992-2.43018,.60059-1.03955,1.41992-2.28027,2.45996-3.72021s2.19043-2.94922,3.4502-4.52979c1.26074-1.57959,2.54004-3.10986,3.83984-4.58984,1.2998-1.47949,2.53027-2.79004,3.69043-3.93018s2.12012-1.98926,2.87988-2.5498c.08008-.08008,.2002-.12012,.36035-.12012,.39941,0,.59961,.20068,.59961,.6001,0,.2002-.08008,.35986-.24023,.47998-.75977,.52002-1.7002,1.34033-2.81934,2.45996-1.12012,1.12012-2.32031,2.41016-3.60059,3.86963-1.28027,1.46094-2.5498,2.97021-3.80957,4.53027s-2.40039,3.04004-3.41992,4.43994c-1.02051,1.40088-1.81055,2.62012-2.37012,3.66016-.28027,.52002-.62109,1.18018-1.02051,1.97998-.39941,.80029-.59961,1.54004-.59961,2.21973,0,.52051,.15918,.94043,.48047,1.26025,.31934,.32031,.89941,.47998,1.73926,.47998,1.08008,0,2.33008-.25977,3.75-.78027,1.41992-.51904,2.87012-1.30957,4.35059-2.36963,1.47949-1.05957,2.83984-2.37012,4.08008-3.93018,.12012-.15918,.25977-.24023,.41992-.24023,.23926,0,.42871,.11084,.56934,.33008,.13965,.2207,.11035,.4502-.08984,.68994-1.28027,1.64062-2.7002,3.021-4.25977,4.14014-1.55957,1.12061-3.11035,1.96045-4.65039,2.52002-1.54004,.56055-2.93066,.83984-4.16992,.83984Z"/>
            <path class="cls-1" d="M521.3623,473.47024c-1.31934,0-2.48926-.43994-3.50977-1.32031-1.01953-.87939-1.48926-2.23975-1.41016-4.08008,0-.35986,.20117-.54004,.60059-.54004,.16016,0,.30957,.05078,.44922,.15039,.14062,.1001,.18945,.25,.15039,.44971-.03906,1.43994,.31934,2.49023,1.08008,3.1499,.75977,.66016,1.63965,.99023,2.63965,.99023,.7998,0,1.59961-.18945,2.40039-.56982,.7998-.37988,1.45996-.93018,1.97949-1.65039,.12012-.15918,.2793-.23975,.48047-.23975,.19922,0,.37988,.1001,.54004,.2998,.15918,.20068,.13965,.41992-.06055,.66016-.63965,.88037-1.43945,1.55078-2.39941,2.00977-.95996,.45947-1.94043,.69043-2.94043,.69043Zm-3.71973-11.16016c-.19922,0-.36914-.09961-.50977-.30029-.13965-.19971-.12988-.41992,.0293-.65967,.67969-.95996,1.4707-2.01025,2.37012-3.1499,.90039-1.14014,1.91016-2.22021,3.03027-3.24023,1.11914-1.02002,2.31934-1.85986,3.59961-2.52002s2.62012-.98975,4.02051-.98975c.43945,0,.87891,.05029,1.32031,.1499,.43945,.1001,.85938,.23047,1.25977,.38965,.24023,.12012,.36035,.30029,.36035,.54004,0,.16064-.08105,.31055-.24023,.4502-.16016,.14062-.36035,.17041-.60059,.08984-.23926-.07959-.45996-.13965-.65918-.17969-.20117-.08008-.4209-.13965-.66016-.18018-.24023-.03955-.50098-.06006-.78027-.06006-1.64062,0-3.2002,.50049-4.67969,1.5-1.48047,1.00049-2.85059,2.22021-4.11035,3.66016s-2.35059,2.84033-3.26953,4.19971c-.12012,.20068-.28125,.30029-.48047,.30029Zm4.55957,7.37988c-.95996,0-1.58984-.39014-1.88965-1.16992-.2998-.78027-.4502-1.42969-.4502-1.9502,0-.99902,.33984-2.17969,1.02051-3.54004,.67969-1.35938,1.55957-2.69971,2.63965-4.02002,1.08008-1.31982,2.24023-2.41943,3.48047-3.2998,1.23926-.87939,2.41895-1.31982,3.54004-1.31982,.55957,0,.83984,.20068,.83984,.59961,0,.16064-.06055,.31055-.18066,.4502-.11914,.14062-.28027,.19043-.47949,.1499-.88086-.07959-1.87012,.27002-2.96973,1.05029-1.10059,.77979-2.16016,1.78027-3.18066,3-1.01953,1.2207-1.85938,2.45068-2.51953,3.68994-.66016,1.24023-.99023,2.32031-.99023,3.23975,0,.56055,.09961,1.02002,.2998,1.38037,.2002,.35986,.48047,.53955,.83984,.53955,.67969,0,1.4707-.40967,2.37012-1.22998,.90039-.81934,1.83008-1.85986,2.79004-3.11963,.95996-1.26025,1.89062-2.58008,2.79004-3.95996,.90039-1.38037,1.7002-2.64014,2.40039-3.78027,.69922-1.14014,1.22949-1.98926,1.58984-2.5498,.75977-1.11963,1.51953-1.90967,2.28027-2.37012,.75879-.45947,1.45898-.68994,2.09961-.68994,.71973,0,1.30957,.22021,1.77051,.66016,.45898,.44043,.68945,1,.68945,1.67969,0,.6001-.21973,1.24023-.66016,1.91992-.32031,.47998-.83984,1.27051-1.55957,2.37012-.71973,1.10059-1.46094,2.28027-2.21973,3.54004-.76074,1.26025-1.40137,2.41016-1.91992,3.4502-.56152,1.19971-.84082,2.15967-.84082,2.87988,0,.80078,.39941,1.19971,1.2002,1.19971,.71973,0,1.53027-.23975,2.42969-.71973,.90039-.47998,1.80957-1.09961,2.73047-1.85986,.91992-.75977,1.7793-1.5498,2.58008-2.37012,.7998-.81934,1.45996-1.56934,1.97949-2.25,.12012-.15967,.25977-.24023,.4209-.24023,.23926,0,.42871,.11084,.56934,.33008,.13965,.22021,.12988,.43018-.03027,.62988-.51953,.76074-1.22949,1.58105-2.12988,2.46045-.89941,.87988-1.87012,1.72021-2.90918,2.51953-1.04102,.80078-2.08105,1.45068-3.12012,1.9502-1.04102,.50049-1.96094,.75-2.76074,.75-.75977,0-1.31055-.21924-1.64941-.66016-.34082-.43945-.50977-.99902-.50977-1.67969,0-.84033,.23926-1.80029,.71973-2.87988,.51953-1.11963,1.16992-2.34961,1.9502-3.69043,.7793-1.33936,1.55957-2.59961,2.33984-3.77979,.78027-1.1792,1.36914-2.06982,1.76953-2.66992,.2793-.39941,.41992-.7998,.41992-1.2002,0-.75928-.40039-1.14014-1.19922-1.14014-.44141,0-.9707,.20068-1.59082,.6001-.62012,.40039-1.25,1.06055-1.88965,1.97998-.87988,1.32031-1.85059,2.84082-2.91016,4.56006-1.06055,1.72021-2.12988,3.34033-3.20996,4.85986-1.08008,1.48047-2.18945,2.80078-3.33008,3.96045-1.13965,1.16064-2.29004,1.73975-3.4502,1.73975Zm10.62012,3.83984c-1.7998,0-3.08984-.48926-3.87012-1.46973-.7793-.97998-1.16992-2.04932-1.16992-3.20996,0-.95996,.24023-1.87988,.7207-2.76025,.12012-.19971,.2998-.2998,.54004-.2998,.19922,0,.36914,.08984,.50977,.27002,.13965,.17969,.14941,.39014,.03027,.62988-.40039,.72021-.60059,1.43994-.60059,2.16016,0,.88037,.2998,1.67969,.90039,2.3999,.59961,.72021,1.5791,1.08008,2.93945,1.08008,1.51953,0,2.9707-.33008,4.35059-.99023,1.37988-.65967,2.68945-1.44922,3.92969-2.36963,.08008-.08008,.2002-.12012,.36035-.12012,.39941,0,.59961,.20068,.59961,.6001,0,.2002-.08008,.35986-.24023,.47998-1.28027,.95996-2.66016,1.7998-4.13965,2.52002-1.48047,.71973-3.10059,1.07959-4.86035,1.07959Z"/>
            <path class="cls-1" d="M550.34277,473.16995c-.95996,0-1.94043-.15918-2.94043-.47998-1-.31982-1.83008-.83984-2.48926-1.56006-.66016-.71973-.99023-1.67969-.99023-2.87988,0-.47998,.17969-.72021,.54004-.72021,.44043,0,.66016,.26074,.66016,.78027,0,.92041,.2793,1.6499,.83984,2.18994,.55957,.54004,1.24902,.92041,2.06934,1.14014,.81934,.22021,1.59082,.33008,2.31055,.33008,1.87988,0,3.72949-.39014,5.5498-1.17041,1.81934-.77979,3.46973-1.84961,4.9502-3.20996,1.47949-1.35938,2.65918-2.90967,3.54004-4.6499,.87891-1.73975,1.31934-3.56982,1.31934-5.48975,0-1.44043-.39941-2.64014-1.19922-3.6001-.80078-.95996-1.91992-1.43994-3.36035-1.43994-.95996,0-1.91016,.18994-2.84961,.56982-.94043,.38086-1.85059,.8501-2.73047,1.41016-.16016,.08057-.28027,.11963-.36035,.11963-.35938,0-.53906-.19971-.53906-.59961,0-.19971,.0791-.36035,.23926-.47998,.91992-.6001,1.91016-1.11963,2.9707-1.56006,1.05859-.43994,2.14941-.66016,3.26953-.66016,1.87988,0,3.30957,.62061,4.29004,1.85986,.97949,1.24023,1.46973,2.7002,1.46973,4.38037,0,2.08008-.47949,4.07031-1.43945,5.96973-.95996,1.90039-2.23047,3.58057-3.81055,5.04004-1.58008,1.46045-3.35059,2.60986-5.30957,3.4502-1.96094,.83984-3.95996,1.25977-6,1.25977Zm-5.16016-10.85986c-.19922,0-.36914-.12012-.50977-.35986-.13965-.24023-.12988-.45947,.0293-.66016,1-1.11963,2.19043-2.5293,3.57031-4.22998,1.37988-1.69971,2.89941-3.51953,4.56055-5.45996,1.65918-1.93994,3.38965-3.85986,5.18945-5.76025,1.7998-1.89941,3.62012-3.62988,5.45996-5.18994s3.64941-2.80957,5.43066-3.75c1.7793-.93945,3.46875-1.41016,5.06934-1.41016,.48047,0,1.07031,.10059,1.77051,.30029,.69922,.20068,1.3291,.53076,1.88965,.98975,.55957,.46045,.83984,1.09033,.83984,1.89014,0,.72021-.2002,1.22998-.59961,1.53027-.40039,.2998-.88086,.49023-1.44043,.56982-.56055,.08057-1.10059,.12012-1.62012,.12012-1.19922,0-2.44043,.31006-3.71973,.92969-1.28027,.62061-2.51953,1.41016-3.71973,2.37012s-2.32031,1.99023-3.36035,3.08984c-1.04004,1.10059-1.91992,2.13037-2.63965,3.09033-.12012,.16016-.28027,.23975-.48047,.23975s-.37012-.09912-.50977-.2998c-.14062-.19971-.12988-.41992,.03027-.66016,.71973-.95996,1.60938-2.00977,2.66992-3.1499,1.05957-1.14014,2.23926-2.22949,3.54004-3.27002,1.29883-1.03955,2.64941-1.89014,4.0498-2.5498,1.39941-.66016,2.7793-.99023,4.13965-.99023,.36035,0,.86035-.02979,1.5-.08984s.95996-.36963,.95996-.93018c0-.55957-.37012-1.0293-1.10938-1.41016-.74121-.37939-1.4707-.56982-2.19043-.56982-1.48047,0-3.07031,.4707-4.76953,1.41016-1.70117,.94043-3.4502,2.18994-5.25,3.75s-3.59082,3.28027-5.37012,5.15967c-1.78027,1.88086-3.48047,3.771-5.10059,5.67041-1.61914,1.8999-3.09961,3.66992-4.43945,5.30957-1.34082,1.64062-2.4707,3-3.38965,4.08008-.12012,.16064-.28125,.24023-.48047,.24023Zm6.17969,7.73975c-1.83984,0-3.16992-.63916-3.98926-1.91992-.82031-1.27979-1.19141-2.71973-1.11035-4.31982,0-.35986,.19922-.54004,.59961-.54004,.16016,0,.30957,.05078,.4502,.1499,.13965,.10059,.18945,.25049,.15039,.4502-.04102,1.28027,.22949,2.42969,.80957,3.44971,.5791,1.02002,1.60938,1.53027,3.08984,1.53027,1.08008,0,2.20996-.39014,3.39062-1.16992,1.17871-.78027,2.26953-1.77002,3.26953-2.97021s1.82031-2.44971,2.45996-3.75c.63965-1.29932,.95996-2.44971,.95996-3.4502,0-1.19971-.56055-1.7998-1.67969-1.7998-.9209,0-1.91992,.34033-3,1.02002-1.08008,.68066-2.09961,1.55078-3.06055,2.60986-.95996,1.06055-1.71973,2.17041-2.2793,3.33008-.56055,1.16064-.78027,2.22021-.66016,3.18018v.06006c0,.3999-.20117,.59961-.59961,.59961-.40039,0-.60059-.17969-.60059-.53955-.12012-1.11963,.12988-2.34033,.75-3.66016,.62012-1.32031,1.45996-2.56982,2.52051-3.75,1.05859-1.17969,2.19922-2.1499,3.41992-2.91016,1.21973-.75928,2.38965-1.14014,3.50977-1.14014,.91992,0,1.62891,.28076,2.12988,.84033,.5,.56055,.75,1.28027,.75,2.15967,0,1.12061-.33984,2.39062-1.01953,3.81006-.68066,1.42041-1.57031,2.80029-2.6709,4.14014-1.10059,1.34082-2.30957,2.44043-3.62988,3.2998-1.31934,.86084-2.63965,1.29004-3.95996,1.29004Z"/>
            <path class="cls-1" d="M574.58203,473.23001c-2,0-3.68945-.4292-5.06934-1.29004-1.37988-.85986-2.07031-2.12988-2.07031-3.81006,0-.43945,.2002-.65967,.59961-.65967,.40039,0,.60059,.22021,.60059,.65967,0,1.12061,.58984,2.05029,1.76953,2.79004,1.17969,.74072,2.69043,1.10986,4.53027,1.10986,1.51953,0,3.18945-.31934,5.00977-.95996,1.82031-.63916,3.60938-1.69971,5.37012-3.17969,.08008-.08008,.2002-.12012,.36035-.12012,.39941,0,.59961,.20068,.59961,.6001,0,.20068-.08008,.35986-.24023,.47998-1.71973,1.47998-3.59961,2.58008-5.63965,3.2998-2.04004,.72021-3.98047,1.08008-5.82031,1.08008Zm-5.63965-10.91992c-.19922,0-.36914-.12012-.50977-.35986-.13965-.24023-.12988-.45947,.0293-.66016,.7998-.91992,1.54004-1.87988,2.2207-2.87988,.67969-.99951,1.33984-2,1.97949-3,1.08008-1.59961,2.26953-3.31982,3.57031-5.16016,1.2998-1.83936,2.7002-3.66016,4.2002-5.45996,1.5-1.80029,3.0498-3.4502,4.64941-4.9502s3.21973-2.70947,4.86035-3.62988c1.39941-.75928,2.61914-1.14014,3.66016-1.14014,1.03906,0,1.83008,.33008,2.37012,.99023s.80957,1.51025,.80957,2.5498c0,.47998-.05078,.97021-.14941,1.47021-.10059,.50049-.27051,1.03027-.51074,1.58984-.12012,.28027-.56934,.89062-1.34961,1.83008-.78027,.94043-1.75,2.08008-2.91016,3.41992-1.16016,1.34082-2.39062,2.72998-3.68945,4.16992-1.30078,1.43994-2.55078,2.82031-3.75,4.14014-1.2002,1.31982-2.23047,2.42041-3.09082,3.2998-.86035,.88037-1.40918,1.42041-1.64941,1.62012-.12012,.12012-.24023,.18018-.36035,.18018-.44043,0-.66016-.24023-.66016-.72021,0-.12012,.08008-.25977,.24023-.41992,.24023-.19971,.78027-.73975,1.62012-1.62012,.83984-.87939,1.86035-1.95898,3.05957-3.23975,1.2002-1.27979,2.43945-2.62988,3.7207-4.05029,1.2793-1.41895,2.48926-2.7793,3.62988-4.07959,1.13965-1.2998,2.08984-2.40967,2.84961-3.33008,.75977-.91992,1.17969-1.47949,1.25977-1.68018,.39941-.91943,.60059-1.7998,.60059-2.64014,0-.67969-.1709-1.22998-.50977-1.6499-.34082-.41992-.85059-.62988-1.53027-.62988-.83984,0-1.86035,.34033-3.06055,1.02002-1.55957,.88037-3.11914,2.05029-4.67969,3.50977-1.55957,1.46094-3.08008,3.08057-4.55957,4.86035-1.48047,1.78027-2.86035,3.56982-4.14062,5.36963-1.28027,1.80029-2.44043,3.47998-3.47949,5.04004-.68066,1.00049-1.36035,2.02051-2.04004,3.06006-.68066,1.04053-1.4209,2.02051-2.21973,2.93994-.12012,.16064-.28125,.24023-.48047,.24023Zm6.17969,7.19971c-1.24023,0-2.11035-.25928-2.60938-.77979-.50098-.51953-.75-1.15967-.75-1.91992,0-.7998,.18945-1.66992,.56934-2.60986,.37988-.93945,.77051-1.74951,1.16992-2.43018,.60059-1.03955,1.41992-2.28027,2.45996-3.72021s2.19043-2.94922,3.4502-4.52979c1.26074-1.57959,2.54004-3.10986,3.83984-4.58984,1.2998-1.47949,2.53027-2.79004,3.69043-3.93018s2.12012-1.98926,2.87988-2.5498c.08008-.08008,.2002-.12012,.36035-.12012,.39941,0,.59961,.20068,.59961,.6001,0,.2002-.08008,.35986-.24023,.47998-.75977,.52002-1.7002,1.34033-2.81934,2.45996-1.12012,1.12012-2.32031,2.41016-3.60059,3.86963-1.28027,1.46094-2.5498,2.97021-3.80957,4.53027s-2.40039,3.04004-3.41992,4.43994c-1.02051,1.40088-1.81055,2.62012-2.37012,3.66016-.28027,.52002-.62109,1.18018-1.02051,1.97998-.39941,.80029-.59961,1.54004-.59961,2.21973,0,.52051,.15918,.94043,.48047,1.26025,.31934,.32031,.89941,.47998,1.73926,.47998,1.08008,0,2.33008-.25977,3.75-.78027,1.41992-.51904,2.87012-1.30957,4.35059-2.36963,1.47949-1.05957,2.83984-2.37012,4.08008-3.93018,.12012-.15918,.25977-.24023,.41992-.24023,.23926,0,.42871,.11084,.56934,.33008,.13965,.2207,.11035,.4502-.08984,.68994-1.28027,1.64062-2.7002,3.021-4.25977,4.14014-1.55957,1.12061-3.11035,1.96045-4.65039,2.52002-1.54004,.56055-2.93066,.83984-4.16992,.83984Z"/>
            <path class="cls-1" d="M593.54199,473.16995c-1.04102,0-2.10059-.15918-3.18066-.47998-1.08008-.31982-1.99023-.84912-2.72949-1.58984-.74023-.73975-1.11035-1.72998-1.11035-2.97021,0-.43945,.20117-.65967,.60059-.65967,.40039,0,.59961,.22021,.59961,.65967,0,.76025,.15039,1.36035,.4502,1.80029,.2998,.44043,.8291,.83984,1.58984,1.19971,.59961,.28027,1.25,.49023,1.9502,.62988,.69922,.14062,1.30957,.21045,1.83008,.21045,1.47949,0,2.92969-.27979,4.34961-.84033,1.41992-.55957,2.73047-1.27979,3.92969-2.15967,.08008-.08008,.2002-.12012,.36035-.12012,.39941,0,.59961,.20068,.59961,.6001,0,.2002-.08008,.35986-.23926,.47998-1.28125,.95996-2.69141,1.73975-4.23047,2.33984-1.54004,.6001-3.12988,.8999-4.76953,.8999Zm1.67969-9.18018c-.71973,0-1.34082-.15918-1.86035-.47998-.23926-.11963-.35938-.2793-.35938-.47998,0-.19971,.08984-.36914,.26953-.50977,.18066-.13965,.39062-.1499,.62988-.03027,.48047,.20068,.91992,.30029,1.32031,.30029,.83984,0,1.75977-.24951,2.75977-.75,1-.49951,1.95996-1.14941,2.87988-1.9502,.91992-.79932,1.66992-1.65918,2.25-2.58008,.58008-.91943,.87012-1.7998,.87012-2.63965,0-1.63965-.83984-2.45996-2.51953-2.45996-1.88086,0-3.62988,.49023-5.25,1.46973-1.62012,.98096-3.10059,2.2002-4.44043,3.66016-1.34082,1.46045-2.53027,2.9502-3.56934,4.46973-.12012,.20068-.28125,.30029-.48047,.30029s-.36914-.09961-.50977-.30029c-.13965-.19971-.12988-.41992,.0293-.65967,1.04004-1.52002,2.25977-3.06006,3.66016-4.62012s2.99023-2.86963,4.77051-3.93018c1.7793-1.05908,3.70996-1.58984,5.79004-1.58984,1.08008,0,1.96973,.3208,2.66992,.95996,.69922,.64014,1.0498,1.54053,1.0498,2.7002,0,1.08008-.33008,2.15039-.99023,3.20996-.66016,1.06006-1.5,2.04004-2.51953,2.93994-1.02051,.8999-2.11035,1.62012-3.27051,2.16016s-2.21973,.80957-3.17969,.80957Zm-1.37988,5.58008c-1.08008,0-2.07031-.2793-2.96973-.83984-.90039-.55957-1.35059-1.51953-1.35059-2.87988,0-1.11963,.41016-2.31934,1.23047-3.6001,.81934-1.27979,1.83887-2.50977,3.05957-3.68994,1.21973-1.17969,2.46973-2.20996,3.75-3.08984,1.28027-.87939,2.37988-1.45996,3.2998-1.74023,.04004,0,.06934-.00928,.09082-.02979,.01953-.02002,.04883-.03027,.08984-.03027,.39941,0,.59961,.22021,.59961,.66016,0,.23975-.14062,.41992-.41992,.54004-.87988,.28027-1.91016,.83984-3.08984,1.67969-1.18066,.84033-2.33984,1.81055-3.48047,2.91016-1.13965,1.10059-2.08008,2.21045-2.81934,3.33008-.74121,1.12012-1.11035,2.14014-1.11035,3.06006,0,.88037,.29004,1.52051,.87012,1.91992,.5791,.40039,1.3291,.6001,2.25,.6001,2.35938,0,4.74902-.63037,7.16992-1.89014,2.41992-1.25977,4.48926-3.00928,6.20996-5.25,.12012-.15918,.25977-.24023,.41992-.24023,.24023,0,.42969,.11084,.57031,.33008,.13965,.2207,.10938,.4502-.08984,.68994-1.80078,2.32031-3.99023,4.16064-6.57031,5.52002-2.58008,1.36035-5.15039,2.04004-7.70996,2.04004Z"/>
          </g>
        </g>
      </g>
    </g>
  </g>
</svg>